solid Bottom v11
facet normal -0.12597472157475642 -0.9621090315324292 -0.24181931471223267
  outer loop
    vertex 95.89113687623902 80.36609447010774 0.5588000000000001
    vertex 96.957936876239 80.2264119304252 0.5588
    vertex 96.9579769682382 80.05494671872773 1.2409753604985019
  endloop
endfacet
facet normal -0.2799884376671253 -0.9600033722715364 -2.2291731814381204e-16
  outer loop
    vertex 95.89113687623902 80.36609447010774 1.22555
    vertex 95.89113687623902 80.36609447010774 0.5588000000000001
    vertex 96.9579769682382 80.05494671872773 1.2409753604985019
  endloop
endfacet
facet normal -0.14852987257151964 -0.8402739972841761 0.521419683596583
  outer loop
    vertex 98.05013687623901 80.14160467418937 2.2352000000000003
    vertex 98.227936876239 79.68461298862626 1.5494000000000006
    vertex 98.227936876239 80.1101761027608 2.2352000000000003
  endloop
endfacet
facet normal -3.921902295243493e-28 -0.7795471620207521 -0.6263435336821089
  outer loop
    vertex 99.320136876239 80.36609447010774 0.0
    vertex 99.497936876239 80.36609447010774 0.0
    vertex 99.320136876239 79.917114878271 0.5588000000000001
  endloop
endfacet
facet normal -3.921902295243493e-28 -0.7795471620207521 -0.6263435336821089
  outer loop
    vertex 99.497936876239 79.917114878271 0.5588000000000001
    vertex 99.320136876239 79.917114878271 0.5588000000000001
    vertex 99.497936876239 80.36609447010774 0.0
  endloop
endfacet
facet normal -3.921902295243493e-28 -0.7795471620207521 -0.6263435336821089
  outer loop
    vertex 99.497936876239 79.36609447010774 1.2446
    vertex 99.320136876239 79.917114878271 0.5588000000000001
    vertex 99.497936876239 79.917114878271 0.5588000000000001
  endloop
endfacet
facet normal -3.921902295243493e-28 -0.7795471620207521 -0.6263435336821089
  outer loop
    vertex 99.320136876239 79.36609447010774 1.2446
    vertex 99.320136876239 79.917114878271 0.5588000000000001
    vertex 99.497936876239 79.36609447010774 1.2446
  endloop
endfacet
facet normal -0.11401838617754474 -0.8707946938152947 -0.47824304368866216
  outer loop
    vertex 98.05013687623901 80.08340361598832 0.5588
    vertex 98.227936876239 80.06012319270789 0.5588
    vertex 98.2279499750928 79.68460202789704 1.2425534775212168
  endloop
endfacet
facet normal -0.2655439266148582 -0.9076073308958827 -0.3251697340497951
  outer loop
    vertex 97.415136876239 80.16654798484696 0.5588
    vertex 97.5929584109094 79.86977761955127 1.241924864714319
    vertex 97.41515797586545 79.92162493611819 1.2424071392176743
  endloop
endfacet
facet normal 0.12812201446982607 -0.964012167037123 0.23294911721786757
  outer loop
    vertex 101.860136876239 80.23106301391623 2.2352000000000003
    vertex 101.860136876239 80.06534259040848 1.5494000000000006
    vertex 102.03793687623902 80.25469351874976 2.2352000000000003
  endloop
endfacet
facet normal 0.0 -1.0 0.0
  outer loop
    vertex 99.320136876239 79.36609447010774 1.2446
    vertex 99.497936876239 79.36609447010774 1.2446
    vertex 99.320136876239 79.36609447010774 1.5494000000000006
  endloop
endfacet
facet normal 0.0 -1.0 0.0
  outer loop
    vertex 99.497936876239 79.36609447010774 1.5494000000000006
    vertex 99.320136876239 79.36609447010774 1.5494000000000006
    vertex 99.497936876239 79.36609447010774 1.2446
  endloop
endfacet
facet normal 0.25582262964672703 -0.8641345137067191 -0.4333893450253314
  outer loop
    vertex 100.590136876239 79.68940255113908 1.2446641564473295
    vertex 100.76793678976794 80.08590321015647 0.5590343269528003
    vertex 100.76793686747486 79.74203409661962 1.2446746005196359
  endloop
endfacet
facet normal -0.14154143626265384 -0.8007385071477459 0.5820514281328621
  outer loop
    vertex 98.685136876239 80.0293597762302 2.2352000000000003
    vertex 98.862936876239 79.49942780344107 1.5494000000000006
    vertex 98.862936876239 79.9979312048016 2.2352000000000003
  endloop
endfacet
facet normal 0.2787928716150312 -0.9418180788898791 0.18775846455705336
  outer loop
    vertex 101.860136876239 80.06534259040848 1.5494000000000006
    vertex 102.03793687623902 80.11797416935586 1.5494000000000006
    vertex 102.03793687623902 80.25469351874976 2.2352000000000003
  endloop
endfacet
facet normal 0.13121817164662355 -0.9873081884260877 0.0894669352135996
  outer loop
    vertex 102.495136876239 80.31545767403593 2.2352000000000003
    vertex 102.495136876239 80.25331251522053 1.5494000000000006
    vertex 102.876136876239 80.36609447010774 2.2352000000000003
  endloop
endfacet
facet normal -0.1206682519235727 -0.9215818343841653 -0.3689527009127678
  outer loop
    vertex 97.415136876239 80.16654798484696 0.5588
    vertex 97.592936876239 80.14326756156655 0.5588
    vertex 97.5929584109094 79.86977761955127 1.241924864714319
  endloop
endfacet
facet normal 0.2838409169024348 -0.9588713854798177 0.0
  outer loop
    vertex 102.495136876239 80.25331251522053 1.5494000000000006
    vertex 102.876136876239 80.36609447010774 1.5494000000000006
    vertex 102.876136876239 80.36609447010774 2.2352000000000003
  endloop
endfacet
facet normal 0.10850509245336411 -0.8164110574077846 0.5671857105516586
  outer loop
    vertex 99.95513687623901 79.97787903355717 2.2352000000000003
    vertex 99.95513687623901 79.5014328159724 1.5494000000000006
    vertex 100.13293716675433 80.00150957700161 2.2352000000000003
  endloop
endfacet
facet normal 0.13174650240978641 -0.9912834403452869 0.0
  outer loop
    vertex 102.876136876239 80.36609447010774 0.5687730135086377
    vertex 101.86012658269361 80.23106027778941 0.5622867750865506
    vertex 102.876136876239 80.36609447010774 0.0
  endloop
endfacet
facet normal 0.13174650240978641 -0.9912834403452869 0.0
  outer loop
    vertex 101.40293480093196 80.17029720371345 0.560205960759517
    vertex 102.876136876239 80.36609447010774 0.0
    vertex 101.86012658269361 80.23106027778941 0.5622867750865506
  endloop
endfacet
facet normal 0.13174650240978641 -0.9912834403452869 0.0
  outer loop
    vertex 101.22513640583634 80.14666697837599 0.5594373692248231
    vertex 102.876136876239 80.36609447010774 0.0
    vertex 101.40293480093196 80.17029720371345 0.560205960759517
  endloop
endfacet
facet normal 0.13174650240978641 -0.9912834403452869 0.0
  outer loop
    vertex 100.76793678976794 80.08590321015647 0.5590343269528003
    vertex 102.876136876239 80.36609447010774 0.0
    vertex 101.22513640583634 80.14666697837599 0.5594373692248231
  endloop
endfacet
facet normal 0.13174650240978641 -0.9912834403452869 0.0
  outer loop
    vertex 100.59013685764774 80.06227284863424 0.5589007605931343
    vertex 102.876136876239 80.36609447010774 0.0
    vertex 100.76793678976794 80.08590321015647 0.5590343269528003
  endloop
endfacet
facet normal 0.13174650240978641 -0.9912834403452869 0.0
  outer loop
    vertex 100.13293687353678 80.0015090478051 0.5588292908703464
    vertex 102.876136876239 80.36609447010774 0.0
    vertex 100.59013685764774 80.06227284863424 0.5589007605931343
  endloop
endfacet
facet normal 0.13174650240978641 -0.9912834403452869 0.0
  outer loop
    vertex 99.9551368757526 79.97787868046484 0.558810544713347
    vertex 102.876136876239 80.36609447010774 0.0
    vertex 100.13293687353678 80.0015090478051 0.5588292908703464
  endloop
endfacet
facet normal 0.13174650240978641 -0.9912834403452869 0.0
  outer loop
    vertex 99.497936876239 79.917114878271 0.5588000000000001
    vertex 102.876136876239 80.36609447010774 0.0
    vertex 99.9551368757526 79.97787868046484 0.558810544713347
  endloop
endfacet
facet normal -0.25257410861653046 -0.8629494283977699 -0.43763524045091184
  outer loop
    vertex 98.05013687623901 80.08340361598832 0.5588
    vertex 98.2279499750928 79.68460202789704 1.2425534775212168
    vertex 98.05014902839119 79.73645115517839 1.2429299117265749
  endloop
endfacet
facet normal 0.11632431407545316 -0.8725675112274148 -0.4744413475923769
  outer loop
    vertex 100.59013685764774 80.06227284863424 0.5589007605931343
    vertex 100.76793678976794 80.08590321015647 0.5590343269528003
    vertex 100.590136876239 79.68940255113908 1.2446641564473295
  endloop
endfacet
facet normal 0.28384090527688005 -0.9588713889210102 5.421747540803457e-07
  outer loop
    vertex 99.497936876239 79.36609447010774 1.2446
    vertex 99.9551368760418 79.50143273623574 1.244606714046796
    vertex 99.497936876239 79.36609447010774 1.5494000000000006
  endloop
endfacet
facet normal 0.28384090527688005 -0.9588713889210102 5.421747540803457e-07
  outer loop
    vertex 100.13293687514349 79.55406428401226 1.2446186501299732
    vertex 99.497936876239 79.36609447010774 1.5494000000000006
    vertex 99.9551368760418 79.50143273623574 1.244606714046796
  endloop
endfacet
facet normal 0.28384090527688005 -0.9588713889210102 5.421747540803457e-07
  outer loop
    vertex 100.590136876239 79.68940255113908 1.2446641564473295
    vertex 99.497936876239 79.36609447010774 1.5494000000000006
    vertex 100.13293687514349 79.55406428401226 1.2446186501299732
  endloop
endfacet
facet normal 0.28384090527688005 -0.9588713889210102 5.421747540803457e-07
  outer loop
    vertex 100.76793686747486 79.74203409661962 1.2446746005196359
    vertex 99.497936876239 79.36609447010774 1.5494000000000006
    vertex 100.590136876239 79.68940255113908 1.2446641564473295
  endloop
endfacet
facet normal 0.28384090527688005 -0.9588713889210102 5.421747540803457e-07
  outer loop
    vertex 101.22513682856201 79.87737235510733 1.2448029134106093
    vertex 99.497936876239 79.36609447010774 1.5494000000000006
    vertex 100.76793686747486 79.74203409661962 1.2446746005196359
  endloop
endfacet
facet normal 0.28384090527688005 -0.9588713889210102 5.421747540803457e-07
  outer loop
    vertex 101.4029366658993 79.93000387096068 1.245047603086927
    vertex 99.497936876239 79.36609447010774 1.5494000000000006
    vertex 101.22513682856201 79.87737235510733 1.2448029134106093
  endloop
endfacet
facet normal 0.28384090527688005 -0.9588713889210102 5.421747540803457e-07
  outer loop
    vertex 101.86013583295384 80.06534197275107 1.2457100554104463
    vertex 99.497936876239 79.36609447010774 1.5494000000000006
    vertex 101.4029366658993 79.93000387096068 1.245047603086927
  endloop
endfacet
facet normal 0.28384090527688005 -0.9588713889210102 5.421747540803457e-07
  outer loop
    vertex 102.876136876239 80.36609447010774 1.2477750000000003
    vertex 99.497936876239 79.36609447010774 1.5494000000000006
    vertex 101.86013583295384 80.06534197275107 1.2457100554104463
  endloop
endfacet
facet normal 0.28384090527688005 -0.9588713889210102 5.421747540803457e-07
  outer loop
    vertex 102.876136876239 80.36609447010774 1.5494000000000006
    vertex 99.497936876239 79.36609447010774 1.5494000000000006
    vertex 102.876136876239 80.36609447010774 1.2477750000000003
  endloop
endfacet
facet normal 0.28384090527688005 -0.9588713889210102 5.421747540803457e-07
  outer loop
    vertex 99.95513687623901 79.5014328159724 1.5494000000000006
    vertex 99.497936876239 79.36609447010774 1.5494000000000006
    vertex 102.876136876239 80.36609447010774 1.5494000000000006
  endloop
endfacet
facet normal 0.28384090527688005 -0.9588713889210102 5.421747540803457e-07
  outer loop
    vertex 100.13293716675433 79.55406448091684 1.5494000000000006
    vertex 99.95513687623901 79.5014328159724 1.5494000000000006
    vertex 102.876136876239 80.36609447010774 1.5494000000000006
  endloop
endfacet
facet normal 0.28384090527688005 -0.9588713889210102 5.421747540803457e-07
  outer loop
    vertex 100.590136876239 79.68940274078443 1.5494000000000006
    vertex 100.13293716675433 79.55406448091684 1.5494000000000006
    vertex 102.876136876239 80.36609447010774 1.5494000000000006
  endloop
endfacet
facet normal 0.28384090527688005 -0.9588713889210102 5.421747540803457e-07
  outer loop
    vertex 100.767936876239 79.74203431973179 1.5494000000000006
    vertex 100.590136876239 79.68940274078443 1.5494000000000006
    vertex 102.876136876239 80.36609447010774 1.5494000000000006
  endloop
endfacet
facet normal 0.28384090527688005 -0.9588713889210102 5.421747540803457e-07
  outer loop
    vertex 101.22513687623902 79.87737266559645 1.5494000000000006
    vertex 100.767936876239 79.74203431973179 1.5494000000000006
    vertex 102.876136876239 80.36609447010774 1.5494000000000006
  endloop
endfacet
facet normal 0.28384090527688005 -0.9588713889210102 5.421747540803457e-07
  outer loop
    vertex 101.40293687623901 79.93000424454384 1.5494000000000006
    vertex 101.22513687623902 79.87737266559645 1.5494000000000006
    vertex 102.876136876239 80.36609447010774 1.5494000000000006
  endloop
endfacet
facet normal 0.28384090527688005 -0.9588713889210102 5.421747540803457e-07
  outer loop
    vertex 101.860136876239 80.06534259040848 1.5494000000000006
    vertex 101.40293687623901 79.93000424454384 1.5494000000000006
    vertex 102.876136876239 80.36609447010774 1.5494000000000006
  endloop
endfacet
facet normal 0.28384090527688005 -0.9588713889210102 5.421747540803457e-07
  outer loop
    vertex 102.03793687623902 80.11797416935586 1.5494000000000006
    vertex 101.860136876239 80.06534259040848 1.5494000000000006
    vertex 102.876136876239 80.36609447010774 1.5494000000000006
  endloop
endfacet
facet normal 0.28384090527688005 -0.9588713889210102 5.421747540803457e-07
  outer loop
    vertex 102.495136876239 80.25331251522053 1.5494000000000006
    vertex 102.03793687623902 80.11797416935586 1.5494000000000006
    vertex 102.876136876239 80.36609447010774 1.5494000000000006
  endloop
endfacet
facet normal -0.24352969270750857 -0.8350633162940548 0.49331789603638115
  outer loop
    vertex 98.05013687623901 79.7364648404781 1.5494000000000006
    vertex 98.227936876239 79.68461298862626 1.5494000000000006
    vertex 98.05013687623901 80.14160467418937 2.2352000000000003
  endloop
endfacet
facet normal -0.279966536655064 -0.9600097590923556 2.8298513691834017e-05
  outer loop
    vertex 95.89113687623902 80.36609447010774 1.22555
    vertex 96.9579769682382 80.05494671872773 1.2409753604985019
    vertex 95.89113687623902 80.36609447010774 1.5494
  endloop
endfacet
facet normal -0.279966536655064 -0.9600097590923556 2.8298513691834017e-05
  outer loop
    vertex 97.41515797586545 79.92162493611819 1.2424071392176743
    vertex 95.89113687623902 80.36609447010774 1.5494
    vertex 96.9579769682382 80.05494671872773 1.2409753604985019
  endloop
endfacet
facet normal -0.279966536655064 -0.9600097590923556 2.8298513691834017e-05
  outer loop
    vertex 98.05014902839119 79.73645115517839 1.2429299117265749
    vertex 95.89113687623902 80.36609447010774 1.5494
    vertex 97.41515797586545 79.92162493611819 1.2424071392176743
  endloop
endfacet
facet normal -0.279966536655064 -0.9600097590923556 2.8298513691834017e-05
  outer loop
    vertex 98.68514385733178 79.55127364904429 1.2434331600079822
    vertex 95.89113687623902 80.36609447010774 1.5494
    vertex 98.05014902839119 79.73645115517839 1.2429299117265749
  endloop
endfacet
facet normal -0.279966536655064 -0.9600097590923556 2.8298513691834017e-05
  outer loop
    vertex 99.320136876239 79.36609447010774 1.2446
    vertex 95.89113687623902 80.36609447010774 1.5494
    vertex 98.68514385733178 79.55127364904429 1.2434331600079822
  endloop
endfacet
facet normal -0.279966536655064 -0.9600097590923556 2.8298513691834017e-05
  outer loop
    vertex 99.320136876239 79.36609447010774 1.5494000000000006
    vertex 95.89113687623902 80.36609447010774 1.5494
    vertex 99.320136876239 79.36609447010774 1.2446
  endloop
endfacet
facet normal -0.279966536655064 -0.9600097590923556 2.8298513691834017e-05
  outer loop
    vertex 96.780136876239 80.10683521084847 1.5494000000000003
    vertex 95.89113687623902 80.36609447010774 1.5494
    vertex 99.320136876239 79.36609447010774 1.5494000000000006
  endloop
endfacet
facet normal -0.279966536655064 -0.9600097590923556 2.8298513691834017e-05
  outer loop
    vertex 97.592936876239 79.86979817381145 1.5494000000000003
    vertex 96.780136876239 80.10683521084847 1.5494000000000003
    vertex 99.320136876239 79.36609447010774 1.5494000000000006
  endloop
endfacet
facet normal -0.279966536655064 -0.9600097590923556 2.8298513691834017e-05
  outer loop
    vertex 96.957936876239 80.05498335899662 1.5494000000000003
    vertex 96.780136876239 80.10683521084847 1.5494000000000003
    vertex 97.592936876239 79.86979817381145 1.5494000000000003
  endloop
endfacet
facet normal -0.279966536655064 -0.9600097590923556 2.8298513691834017e-05
  outer loop
    vertex 97.415136876239 79.92165002566328 1.5494000000000003
    vertex 96.957936876239 80.05498335899662 1.5494000000000003
    vertex 97.592936876239 79.86979817381145 1.5494000000000003
  endloop
endfacet
facet normal -0.279966536655064 -0.9600097590923556 2.8298513691834017e-05
  outer loop
    vertex 98.05013687623901 79.7364648404781 1.5494000000000006
    vertex 97.592936876239 79.86979817381145 1.5494000000000003
    vertex 99.320136876239 79.36609447010774 1.5494000000000006
  endloop
endfacet
facet normal -0.279966536655064 -0.9600097590923556 2.8298513691834017e-05
  outer loop
    vertex 98.227936876239 79.68461298862626 1.5494000000000006
    vertex 98.05013687623901 79.7364648404781 1.5494000000000006
    vertex 99.320136876239 79.36609447010774 1.5494000000000006
  endloop
endfacet
facet normal -0.279966536655064 -0.9600097590923556 2.8298513691834017e-05
  outer loop
    vertex 98.685136876239 79.55127965529292 1.5494000000000006
    vertex 98.227936876239 79.68461298862626 1.5494000000000006
    vertex 99.320136876239 79.36609447010774 1.5494000000000006
  endloop
endfacet
facet normal -0.279966536655064 -0.9600097590923556 2.8298513691834017e-05
  outer loop
    vertex 98.862936876239 79.49942780344107 1.5494000000000006
    vertex 98.685136876239 79.55127965529292 1.5494000000000006
    vertex 99.320136876239 79.36609447010774 1.5494000000000006
  endloop
endfacet
facet normal -0.279966536655064 -0.9600097590923556 2.8298513691834017e-05
  outer loop
    vertex 98.68514385733178 79.55127364904429 1.2434331600079822
    vertex 98.8629439315768 79.49942368834174 1.2433300391963211
    vertex 99.320136876239 79.36609447010774 1.2446
  endloop
endfacet
facet normal -0.279966536655064 -0.9600097590923556 2.8298513691834017e-05
  outer loop
    vertex 98.05014902839119 79.73645115517839 1.2429299117265749
    vertex 98.2279499750928 79.68460202789704 1.2425534775212168
    vertex 98.68514385733178 79.55127364904429 1.2434331600079822
  endloop
endfacet
facet normal -0.279966536655064 -0.9600097590923556 2.8298513691834017e-05
  outer loop
    vertex 97.41515797586545 79.92162493611819 1.2424071392176743
    vertex 97.5929584109094 79.86977761955127 1.241924864714319
    vertex 98.05014902839119 79.73645115517839 1.2429299117265749
  endloop
endfacet
facet normal 0.11597470436587415 -0.8726137076432419 0.47444197240585995
  outer loop
    vertex 100.590136876239 80.06227369367687 2.2352000000000003
    vertex 100.590136876239 79.68940274078443 1.5494000000000006
    vertex 100.767936876239 80.08590419851038 2.2352000000000003
  endloop
endfacet
facet normal 0.1085633911579529 -0.8164044980467109 -0.5671839963092958
  outer loop
    vertex 99.9551368757526 79.97787868046484 0.558810544713347
    vertex 100.13293687353678 80.0015090478051 0.5588292908703464
    vertex 99.9551368760418 79.50143273623574 1.244606714046796
  endloop
endfacet
facet normal 0.2406631962169321 -0.8128886062997699 -0.5303709454095955
  outer loop
    vertex 99.9551368760418 79.50143273623574 1.244606714046796
    vertex 100.13293687353678 80.0015090478051 0.5588292908703464
    vertex 100.13293687514349 79.55406428401226 1.2446186501299732
  endloop
endfacet
facet normal -0.26317224669273853 -0.9024176339093766 0.3411492086757622
  outer loop
    vertex 96.780136876239 80.10683521084847 1.5494000000000003
    vertex 96.957936876239 80.05498335899662 1.5494000000000003
    vertex 96.780136876239 80.36609447010774 2.2352000000000003
  endloop
endfacet
facet normal -0.0 -0.7795471620207528 -0.626343533682108
  outer loop
    vertex 99.497936876239 80.36609447010774 0.0
    vertex 102.876136876239 80.36609447010774 0.0
    vertex 99.497936876239 79.917114878271 0.5588000000000001
  endloop
endfacet
facet normal 0.2558100641991619 -0.8641775588775911 0.4333109250720415
  outer loop
    vertex 100.590136876239 79.68940274078443 1.5494000000000006
    vertex 100.767936876239 79.74203431973179 1.5494000000000006
    vertex 100.767936876239 80.08590419851038 2.2352000000000003
  endloop
endfacet
facet normal 0.28384118488377047 -0.9588713061531132 5.895026563990051e-17
  outer loop
    vertex 101.86013583295384 80.06534197275107 1.2457100554104463
    vertex 102.876136876239 80.36609447010774 0.5687730135086377
    vertex 102.876136876239 80.36609447010774 1.2477750000000003
  endloop
endfacet
facet normal -0.2538614504756066 -0.8704909136808351 0.42166329359042626
  outer loop
    vertex 97.415136876239 79.92165002566328 1.5494000000000003
    vertex 97.592936876239 79.86979817381145 1.5494000000000003
    vertex 97.415136876239 80.25384957214855 2.2352000000000003
  endloop
endfacet
facet normal 0.12277333054921732 -0.9237677453548474 0.36273938571359227
  outer loop
    vertex 101.22513687623902 80.14666835379656 2.2352000000000003
    vertex 101.22513687623902 79.87737266559645 1.5494000000000006
    vertex 101.40293687623901 80.17029885863006 2.2352000000000003
  endloop
endfacet
facet normal 0.13174650240978641 -0.9912834403452869 0.0
  outer loop
    vertex 99.497936876239 79.917114878271 2.2352000000000003
    vertex 99.95513687623901 79.97787903355717 2.2352000000000003
    vertex 102.876136876239 80.36609447010774 2.794
  endloop
endfacet
facet normal 0.13174650240978641 -0.9912834403452869 0.0
  outer loop
    vertex 100.13293716675433 80.00150957700161 2.2352000000000003
    vertex 102.876136876239 80.36609447010774 2.794
    vertex 99.95513687623901 79.97787903355717 2.2352000000000003
  endloop
endfacet
facet normal 0.13174650240978641 -0.9912834403452869 0.0
  outer loop
    vertex 100.590136876239 80.06227369367687 2.2352000000000003
    vertex 102.876136876239 80.36609447010774 2.794
    vertex 100.13293716675433 80.00150957700161 2.2352000000000003
  endloop
endfacet
facet normal 0.13174650240978641 -0.9912834403452869 0.0
  outer loop
    vertex 100.767936876239 80.08590419851038 2.2352000000000003
    vertex 102.876136876239 80.36609447010774 2.794
    vertex 100.590136876239 80.06227369367687 2.2352000000000003
  endloop
endfacet
facet normal 0.13174650240978641 -0.9912834403452869 0.0
  outer loop
    vertex 101.22513687623902 80.14666835379656 2.2352000000000003
    vertex 102.876136876239 80.36609447010774 2.794
    vertex 100.767936876239 80.08590419851038 2.2352000000000003
  endloop
endfacet
facet normal 0.13174650240978641 -0.9912834403452869 0.0
  outer loop
    vertex 101.40293687623901 80.17029885863006 2.2352000000000003
    vertex 102.876136876239 80.36609447010774 2.794
    vertex 101.22513687623902 80.14666835379656 2.2352000000000003
  endloop
endfacet
facet normal 0.13174650240978641 -0.9912834403452869 0.0
  outer loop
    vertex 101.860136876239 80.23106301391623 2.2352000000000003
    vertex 102.876136876239 80.36609447010774 2.794
    vertex 101.40293687623901 80.17029885863006 2.2352000000000003
  endloop
endfacet
facet normal 0.13174650240978641 -0.9912834403452869 0.0
  outer loop
    vertex 102.03793687623902 80.25469351874976 2.2352000000000003
    vertex 102.876136876239 80.36609447010774 2.794
    vertex 101.860136876239 80.23106301391623 2.2352000000000003
  endloop
endfacet
facet normal 0.13174650240978641 -0.9912834403452869 0.0
  outer loop
    vertex 102.495136876239 80.31545767403593 2.2352000000000003
    vertex 102.876136876239 80.36609447010774 2.794
    vertex 102.03793687623902 80.25469351874976 2.2352000000000003
  endloop
endfacet
facet normal 0.13174650240978641 -0.9912834403452869 0.0
  outer loop
    vertex 102.876136876239 80.36609447010774 2.2352000000000003
    vertex 102.876136876239 80.36609447010774 2.794
    vertex 102.495136876239 80.31545767403593 2.2352000000000003
  endloop
endfacet
facet normal 0.26942996515279133 -0.9087062335035228 -0.3188423984817689
  outer loop
    vertex 101.22513682856201 79.87737235510733 1.2448029134106093
    vertex 101.40293480093196 80.17029720371345 0.560205960759517
    vertex 101.4029366658993 79.93000387096068 1.245047603086927
  endloop
endfacet
facet normal -1.2789943120548093e-17 -0.7795471620207528 0.6263435336821083
  outer loop
    vertex 96.780136876239 80.36609447010774 2.794
    vertex 99.320136876239 79.917114878271 2.2352000000000003
    vertex 99.320136876239 80.36609447010774 2.794
  endloop
endfacet
facet normal -0.16152653412765783 -0.9137996562512838 0.3726652210868925
  outer loop
    vertex 96.780136876239 80.36609447010774 2.2352000000000003
    vertex 96.957936876239 80.05498335899662 1.5494000000000003
    vertex 96.957936876239 80.33466589867916 2.2352000000000003
  endloop
endfacet
facet normal 0.1295662441908224 -0.9636448600394905 -0.23366893692948423
  outer loop
    vertex 101.86012658269361 80.23106027778941 0.5622867750865506
    vertex 102.876136876239 80.36609447010774 0.5687730135086377
    vertex 101.86013583295384 80.06534197275107 1.2457100554104463
  endloop
endfacet
facet normal 0.0 1.0 0.0
  outer loop
    vertex 95.89113687623902 83.41742612037866 0.0
    vertex 101.860136876239 83.41742612037866 0.5588
    vertex 102.876136876239 83.41742612037866 0.0
  endloop
endfacet
facet normal 0.0 1.0 0.0
  outer loop
    vertex 102.495136876239 83.41742612037866 1.5494000000000006
    vertex 102.876136876239 83.41742612037866 0.0
    vertex 101.860136876239 83.41742612037866 0.5588
  endloop
endfacet
facet normal 0.0 1.0 0.0
  outer loop
    vertex 102.876136876239 83.41742612037866 2.794
    vertex 102.876136876239 83.41742612037866 0.0
    vertex 102.495136876239 83.41742612037866 1.5494000000000006
  endloop
endfacet
facet normal 0.0 1.0 0.0
  outer loop
    vertex 101.860136876239 83.41742612037866 1.2446
    vertex 102.495136876239 83.41742612037866 1.5494000000000006
    vertex 101.860136876239 83.41742612037866 0.5588
  endloop
endfacet
facet normal 0.0 1.0 0.0
  outer loop
    vertex 101.40293687623901 83.41742612037866 1.2446
    vertex 102.495136876239 83.41742612037866 1.5494000000000006
    vertex 101.860136876239 83.41742612037866 1.2446
  endloop
endfacet
facet normal 0.0 1.0 0.0
  outer loop
    vertex 101.22513687623902 83.41742612037866 1.2446
    vertex 102.495136876239 83.41742612037866 1.5494000000000006
    vertex 101.40293687623901 83.41742612037866 1.2446
  endloop
endfacet
facet normal 0.0 1.0 0.0
  outer loop
    vertex 100.767936876239 83.41742612037866 1.2446
    vertex 102.495136876239 83.41742612037866 1.5494000000000006
    vertex 101.22513687623902 83.41742612037866 1.2446
  endloop
endfacet
facet normal 0.0 1.0 0.0
  outer loop
    vertex 100.590136876239 83.41742612037866 1.2446
    vertex 102.495136876239 83.41742612037866 1.5494000000000006
    vertex 100.767936876239 83.41742612037866 1.2446
  endloop
endfacet
facet normal 0.0 1.0 0.0
  outer loop
    vertex 100.13293687623901 83.41742612037866 1.2446
    vertex 102.495136876239 83.41742612037866 1.5494000000000006
    vertex 100.590136876239 83.41742612037866 1.2446
  endloop
endfacet
facet normal 0.0 1.0 0.0
  outer loop
    vertex 99.95513687623901 83.41742612037866 1.2446
    vertex 102.495136876239 83.41742612037866 1.5494000000000006
    vertex 100.13293687623901 83.41742612037866 1.2446
  endloop
endfacet
facet normal 0.0 1.0 0.0
  outer loop
    vertex 99.497936876239 83.41742612037866 1.2446
    vertex 102.495136876239 83.41742612037866 1.5494000000000006
    vertex 99.95513687623901 83.41742612037866 1.2446
  endloop
endfacet
facet normal 0.0 1.0 0.0
  outer loop
    vertex 99.320136876239 83.41742612037866 1.2446
    vertex 102.495136876239 83.41742612037866 1.5494000000000006
    vertex 99.497936876239 83.41742612037866 1.2446
  endloop
endfacet
facet normal 0.0 1.0 0.0
  outer loop
    vertex 98.862936876239 83.41742612037866 1.2446
    vertex 102.495136876239 83.41742612037866 1.5494000000000006
    vertex 99.320136876239 83.41742612037866 1.2446
  endloop
endfacet
facet normal 0.0 1.0 0.0
  outer loop
    vertex 98.685136876239 83.41742612037866 1.2446
    vertex 102.495136876239 83.41742612037866 1.5494000000000006
    vertex 98.862936876239 83.41742612037866 1.2446
  endloop
endfacet
facet normal 0.0 1.0 0.0
  outer loop
    vertex 98.227936876239 83.41742612037866 1.2446
    vertex 102.495136876239 83.41742612037866 1.5494000000000006
    vertex 98.685136876239 83.41742612037866 1.2446
  endloop
endfacet
facet normal 0.0 1.0 0.0
  outer loop
    vertex 98.05013687623901 83.41742612037866 1.2446
    vertex 102.495136876239 83.41742612037866 1.5494000000000006
    vertex 98.227936876239 83.41742612037866 1.2446
  endloop
endfacet
facet normal 0.0 1.0 0.0
  outer loop
    vertex 97.592936876239 83.41742612037866 1.2446
    vertex 102.495136876239 83.41742612037866 1.5494000000000006
    vertex 98.05013687623901 83.41742612037866 1.2446
  endloop
endfacet
facet normal 0.0 1.0 0.0
  outer loop
    vertex 97.415136876239 83.41742612037866 1.2446
    vertex 102.495136876239 83.41742612037866 1.5494000000000006
    vertex 97.592936876239 83.41742612037866 1.2446
  endloop
endfacet
facet normal 0.0 1.0 0.0
  outer loop
    vertex 96.957936876239 83.41742612037866 1.2446
    vertex 102.495136876239 83.41742612037866 1.5494000000000006
    vertex 97.415136876239 83.41742612037866 1.2446
  endloop
endfacet
facet normal 0.0 1.0 0.0
  outer loop
    vertex 96.780136876239 83.41742612037866 1.5494
    vertex 102.495136876239 83.41742612037866 1.5494000000000006
    vertex 96.957936876239 83.41742612037866 1.2446
  endloop
endfacet
facet normal 0.0 1.0 0.0
  outer loop
    vertex 102.495136876239 83.41742612037866 2.2352000000000003
    vertex 102.876136876239 83.41742612037866 2.794
    vertex 102.495136876239 83.41742612037866 1.5494000000000006
  endloop
endfacet
facet normal 0.0 1.0 0.0
  outer loop
    vertex 102.03793687623902 83.41742612037866 2.2352000000000003
    vertex 102.876136876239 83.41742612037866 2.794
    vertex 102.495136876239 83.41742612037866 2.2352000000000003
  endloop
endfacet
facet normal 0.0 1.0 0.0
  outer loop
    vertex 101.860136876239 83.41742612037866 2.2352000000000003
    vertex 102.876136876239 83.41742612037866 2.794
    vertex 102.03793687623902 83.41742612037866 2.2352000000000003
  endloop
endfacet
facet normal 0.0 1.0 0.0
  outer loop
    vertex 101.40293687623901 83.41742612037866 2.2352000000000003
    vertex 102.876136876239 83.41742612037866 2.794
    vertex 101.860136876239 83.41742612037866 2.2352000000000003
  endloop
endfacet
facet normal 0.0 1.0 0.0
  outer loop
    vertex 101.22513687623902 83.41742612037866 2.2352000000000003
    vertex 102.876136876239 83.41742612037866 2.794
    vertex 101.40293687623901 83.41742612037866 2.2352000000000003
  endloop
endfacet
facet normal 0.0 1.0 0.0
  outer loop
    vertex 100.767936876239 83.41742612037866 2.2352000000000003
    vertex 102.876136876239 83.41742612037866 2.794
    vertex 101.22513687623902 83.41742612037866 2.2352000000000003
  endloop
endfacet
facet normal 0.0 1.0 0.0
  outer loop
    vertex 100.590136876239 83.41742612037866 2.2352000000000003
    vertex 102.876136876239 83.41742612037866 2.794
    vertex 100.767936876239 83.41742612037866 2.2352000000000003
  endloop
endfacet
facet normal 0.0 1.0 0.0
  outer loop
    vertex 100.13293716675433 83.41742612037866 2.2352000000000003
    vertex 102.876136876239 83.41742612037866 2.794
    vertex 100.590136876239 83.41742612037866 2.2352000000000003
  endloop
endfacet
facet normal 0.0 1.0 0.0
  outer loop
    vertex 99.95513687623901 83.41742612037866 2.2352000000000003
    vertex 102.876136876239 83.41742612037866 2.794
    vertex 100.13293716675433 83.41742612037866 2.2352000000000003
  endloop
endfacet
facet normal 0.0 1.0 0.0
  outer loop
    vertex 99.497936876239 83.41742612037866 2.2352000000000003
    vertex 102.876136876239 83.41742612037866 2.794
    vertex 99.95513687623901 83.41742612037866 2.2352000000000003
  endloop
endfacet
facet normal 0.0 1.0 0.0
  outer loop
    vertex 99.320136876239 83.41742612037866 2.2352000000000003
    vertex 102.876136876239 83.41742612037866 2.794
    vertex 99.497936876239 83.41742612037866 2.2352000000000003
  endloop
endfacet
facet normal 0.0 1.0 0.0
  outer loop
    vertex 98.862936876239 83.41742612037866 2.2352000000000003
    vertex 102.876136876239 83.41742612037866 2.794
    vertex 99.320136876239 83.41742612037866 2.2352000000000003
  endloop
endfacet
facet normal 0.0 1.0 0.0
  outer loop
    vertex 98.685136876239 83.41742612037866 2.2352000000000003
    vertex 102.876136876239 83.41742612037866 2.794
    vertex 98.862936876239 83.41742612037866 2.2352000000000003
  endloop
endfacet
facet normal 0.0 1.0 0.0
  outer loop
    vertex 98.227936876239 83.41742612037866 2.2352000000000003
    vertex 102.876136876239 83.41742612037866 2.794
    vertex 98.685136876239 83.41742612037866 2.2352000000000003
  endloop
endfacet
facet normal 0.0 1.0 0.0
  outer loop
    vertex 98.05013687623901 83.41742612037866 2.2352000000000003
    vertex 102.876136876239 83.41742612037866 2.794
    vertex 98.227936876239 83.41742612037866 2.2352000000000003
  endloop
endfacet
facet normal 0.0 1.0 0.0
  outer loop
    vertex 97.592936876239 83.41742612037866 2.2352000000000003
    vertex 102.876136876239 83.41742612037866 2.794
    vertex 98.05013687623901 83.41742612037866 2.2352000000000003
  endloop
endfacet
facet normal 0.0 1.0 0.0
  outer loop
    vertex 97.415136876239 83.41742612037866 2.2352000000000003
    vertex 102.876136876239 83.41742612037866 2.794
    vertex 97.592936876239 83.41742612037866 2.2352000000000003
  endloop
endfacet
facet normal 0.0 1.0 0.0
  outer loop
    vertex 96.957936876239 83.41742612037866 2.2352000000000003
    vertex 102.876136876239 83.41742612037866 2.794
    vertex 97.415136876239 83.41742612037866 2.2352000000000003
  endloop
endfacet
facet normal 0.0 1.0 0.0
  outer loop
    vertex 96.780136876239 83.41742612037866 2.794
    vertex 96.957936876239 83.41742612037866 1.5494000000000006
    vertex 96.780136876239 83.41742612037866 1.5494
  endloop
endfacet
facet normal 0.0 1.0 0.0
  outer loop
    vertex 102.495136876239 83.41742612037866 1.5494000000000006
    vertex 96.780136876239 83.41742612037866 1.5494
    vertex 96.957936876239 83.41742612037866 1.5494000000000006
  endloop
endfacet
facet normal 0.0 1.0 0.0
  outer loop
    vertex 102.03793687623902 83.41742612037866 1.5494000000000006
    vertex 102.495136876239 83.41742612037866 1.5494000000000006
    vertex 96.957936876239 83.41742612037866 1.5494000000000006
  endloop
endfacet
facet normal 0.0 1.0 0.0
  outer loop
    vertex 101.860136876239 83.41742612037866 1.5494000000000006
    vertex 102.03793687623902 83.41742612037866 1.5494000000000006
    vertex 96.957936876239 83.41742612037866 1.5494000000000006
  endloop
endfacet
facet normal 0.0 1.0 0.0
  outer loop
    vertex 101.40293687623901 83.41742612037866 1.5494000000000006
    vertex 101.860136876239 83.41742612037866 1.5494000000000006
    vertex 96.957936876239 83.41742612037866 1.5494000000000006
  endloop
endfacet
facet normal 0.0 1.0 0.0
  outer loop
    vertex 101.22513687623902 83.41742612037866 1.5494000000000006
    vertex 101.40293687623901 83.41742612037866 1.5494000000000006
    vertex 96.957936876239 83.41742612037866 1.5494000000000006
  endloop
endfacet
facet normal 0.0 1.0 0.0
  outer loop
    vertex 100.767936876239 83.41742612037866 1.5494000000000006
    vertex 101.22513687623902 83.41742612037866 1.5494000000000006
    vertex 96.957936876239 83.41742612037866 1.5494000000000006
  endloop
endfacet
facet normal 0.0 1.0 0.0
  outer loop
    vertex 100.590136876239 83.41742612037866 1.5494000000000006
    vertex 100.767936876239 83.41742612037866 1.5494000000000006
    vertex 96.957936876239 83.41742612037866 1.5494000000000006
  endloop
endfacet
facet normal 0.0 1.0 0.0
  outer loop
    vertex 100.13293716675433 83.41742612037866 1.5494000000000006
    vertex 100.590136876239 83.41742612037866 1.5494000000000006
    vertex 96.957936876239 83.41742612037866 1.5494000000000006
  endloop
endfacet
facet normal 0.0 1.0 0.0
  outer loop
    vertex 99.95513687623901 83.41742612037866 1.5494000000000006
    vertex 100.13293716675433 83.41742612037866 1.5494000000000006
    vertex 96.957936876239 83.41742612037866 1.5494000000000006
  endloop
endfacet
facet normal 0.0 1.0 0.0
  outer loop
    vertex 99.497936876239 83.41742612037866 1.5494000000000006
    vertex 99.95513687623901 83.41742612037866 1.5494000000000006
    vertex 96.957936876239 83.41742612037866 1.5494000000000006
  endloop
endfacet
facet normal 0.0 1.0 0.0
  outer loop
    vertex 99.320136876239 83.41742612037866 1.5494000000000006
    vertex 99.497936876239 83.41742612037866 1.5494000000000006
    vertex 96.957936876239 83.41742612037866 1.5494000000000006
  endloop
endfacet
facet normal 0.0 1.0 0.0
  outer loop
    vertex 98.862936876239 83.41742612037866 1.5494000000000006
    vertex 99.320136876239 83.41742612037866 1.5494000000000006
    vertex 96.957936876239 83.41742612037866 1.5494000000000006
  endloop
endfacet
facet normal 0.0 1.0 0.0
  outer loop
    vertex 98.685136876239 83.41742612037866 1.5494000000000006
    vertex 98.862936876239 83.41742612037866 1.5494000000000006
    vertex 96.957936876239 83.41742612037866 1.5494000000000006
  endloop
endfacet
facet normal 0.0 1.0 0.0
  outer loop
    vertex 98.227936876239 83.41742612037866 1.5494000000000006
    vertex 98.685136876239 83.41742612037866 1.5494000000000006
    vertex 96.957936876239 83.41742612037866 1.5494000000000006
  endloop
endfacet
facet normal 0.0 1.0 0.0
  outer loop
    vertex 98.05013687623901 83.41742612037866 1.5494000000000006
    vertex 98.227936876239 83.41742612037866 1.5494000000000006
    vertex 96.957936876239 83.41742612037866 1.5494000000000006
  endloop
endfacet
facet normal 0.0 1.0 0.0
  outer loop
    vertex 97.592936876239 83.41742612037866 1.5494000000000006
    vertex 98.05013687623901 83.41742612037866 1.5494000000000006
    vertex 96.957936876239 83.41742612037866 1.5494000000000006
  endloop
endfacet
facet normal 0.0 1.0 0.0
  outer loop
    vertex 97.415136876239 83.41742612037866 1.5494000000000006
    vertex 97.592936876239 83.41742612037866 1.5494000000000006
    vertex 96.957936876239 83.41742612037866 1.5494000000000006
  endloop
endfacet
facet normal 0.0 1.0 0.0
  outer loop
    vertex 96.957936876239 83.41742612037866 2.2352000000000003
    vertex 96.957936876239 83.41742612037866 1.5494000000000006
    vertex 96.780136876239 83.41742612037866 2.794
  endloop
endfacet
facet normal 0.0 1.0 0.0
  outer loop
    vertex 102.876136876239 83.41742612037866 2.794
    vertex 96.957936876239 83.41742612037866 2.2352000000000003
    vertex 96.780136876239 83.41742612037866 2.794
  endloop
endfacet
facet normal 0.0 1.0 0.0
  outer loop
    vertex 97.592936876239 83.41742612037866 1.5494000000000006
    vertex 97.415136876239 83.41742612037866 1.5494000000000006
    vertex 97.592936876239 83.41742612037866 2.2352000000000003
  endloop
endfacet
facet normal 0.0 1.0 0.0
  outer loop
    vertex 97.415136876239 83.41742612037866 2.2352000000000003
    vertex 97.592936876239 83.41742612037866 2.2352000000000003
    vertex 97.415136876239 83.41742612037866 1.5494000000000006
  endloop
endfacet
facet normal 0.0 1.0 0.0
  outer loop
    vertex 98.227936876239 83.41742612037866 1.5494000000000006
    vertex 98.05013687623901 83.41742612037866 1.5494000000000006
    vertex 98.227936876239 83.41742612037866 2.2352000000000003
  endloop
endfacet
facet normal 0.0 1.0 0.0
  outer loop
    vertex 98.05013687623901 83.41742612037866 2.2352000000000003
    vertex 98.227936876239 83.41742612037866 2.2352000000000003
    vertex 98.05013687623901 83.41742612037866 1.5494000000000006
  endloop
endfacet
facet normal 0.0 1.0 0.0
  outer loop
    vertex 98.862936876239 83.41742612037866 1.5494000000000006
    vertex 98.685136876239 83.41742612037866 1.5494000000000006
    vertex 98.862936876239 83.41742612037866 2.2352000000000003
  endloop
endfacet
facet normal 0.0 1.0 0.0
  outer loop
    vertex 98.685136876239 83.41742612037866 2.2352000000000003
    vertex 98.862936876239 83.41742612037866 2.2352000000000003
    vertex 98.685136876239 83.41742612037866 1.5494000000000006
  endloop
endfacet
facet normal 0.0 1.0 0.0
  outer loop
    vertex 99.497936876239 83.41742612037866 1.5494000000000006
    vertex 99.320136876239 83.41742612037866 1.5494000000000006
    vertex 99.497936876239 83.41742612037866 2.2352000000000003
  endloop
endfacet
facet normal 0.0 1.0 0.0
  outer loop
    vertex 99.320136876239 83.41742612037866 2.2352000000000003
    vertex 99.497936876239 83.41742612037866 2.2352000000000003
    vertex 99.320136876239 83.41742612037866 1.5494000000000006
  endloop
endfacet
facet normal 0.0 1.0 0.0
  outer loop
    vertex 100.13293716675433 83.41742612037866 1.5494000000000006
    vertex 99.95513687623901 83.41742612037866 1.5494000000000006
    vertex 100.13293716675433 83.41742612037866 2.2352000000000003
  endloop
endfacet
facet normal 0.0 1.0 0.0
  outer loop
    vertex 99.95513687623901 83.41742612037866 2.2352000000000003
    vertex 100.13293716675433 83.41742612037866 2.2352000000000003
    vertex 99.95513687623901 83.41742612037866 1.5494000000000006
  endloop
endfacet
facet normal 0.0 1.0 0.0
  outer loop
    vertex 100.767936876239 83.41742612037866 1.5494000000000006
    vertex 100.590136876239 83.41742612037866 1.5494000000000006
    vertex 100.767936876239 83.41742612037866 2.2352000000000003
  endloop
endfacet
facet normal 0.0 1.0 0.0
  outer loop
    vertex 100.590136876239 83.41742612037866 2.2352000000000003
    vertex 100.767936876239 83.41742612037866 2.2352000000000003
    vertex 100.590136876239 83.41742612037866 1.5494000000000006
  endloop
endfacet
facet normal 0.0 1.0 0.0
  outer loop
    vertex 101.40293687623901 83.41742612037866 1.5494000000000006
    vertex 101.22513687623902 83.41742612037866 1.5494000000000006
    vertex 101.40293687623901 83.41742612037866 2.2352000000000003
  endloop
endfacet
facet normal 0.0 1.0 0.0
  outer loop
    vertex 101.22513687623902 83.41742612037866 2.2352000000000003
    vertex 101.40293687623901 83.41742612037866 2.2352000000000003
    vertex 101.22513687623902 83.41742612037866 1.5494000000000006
  endloop
endfacet
facet normal 0.0 1.0 0.0
  outer loop
    vertex 102.03793687623902 83.41742612037866 1.5494000000000006
    vertex 101.860136876239 83.41742612037866 1.5494000000000006
    vertex 102.03793687623902 83.41742612037866 2.2352000000000003
  endloop
endfacet
facet normal 0.0 1.0 0.0
  outer loop
    vertex 101.860136876239 83.41742612037866 2.2352000000000003
    vertex 102.03793687623902 83.41742612037866 2.2352000000000003
    vertex 101.860136876239 83.41742612037866 1.5494000000000006
  endloop
endfacet
facet normal 0.0 1.0 0.0
  outer loop
    vertex 95.89113687623902 83.41742612037866 1.5494
    vertex 96.957936876239 83.41742612037866 0.5588
    vertex 95.89113687623902 83.41742612037866 0.0
  endloop
endfacet
facet normal 0.0 1.0 0.0
  outer loop
    vertex 101.860136876239 83.41742612037866 0.5588
    vertex 95.89113687623902 83.41742612037866 0.0
    vertex 96.957936876239 83.41742612037866 0.5588
  endloop
endfacet
facet normal 0.0 1.0 0.0
  outer loop
    vertex 101.40293687623901 83.41742612037866 0.5588
    vertex 101.860136876239 83.41742612037866 0.5588
    vertex 96.957936876239 83.41742612037866 0.5588
  endloop
endfacet
facet normal 0.0 1.0 0.0
  outer loop
    vertex 101.22513687623902 83.41742612037866 0.5588
    vertex 101.40293687623901 83.41742612037866 0.5588
    vertex 96.957936876239 83.41742612037866 0.5588
  endloop
endfacet
facet normal 0.0 1.0 0.0
  outer loop
    vertex 100.767936876239 83.41742612037866 0.5588
    vertex 101.22513687623902 83.41742612037866 0.5588
    vertex 96.957936876239 83.41742612037866 0.5588
  endloop
endfacet
facet normal 0.0 1.0 0.0
  outer loop
    vertex 100.590136876239 83.41742612037866 0.5588
    vertex 100.767936876239 83.41742612037866 0.5588
    vertex 96.957936876239 83.41742612037866 0.5588
  endloop
endfacet
facet normal 0.0 1.0 0.0
  outer loop
    vertex 100.13293687623901 83.41742612037866 0.5588
    vertex 100.590136876239 83.41742612037866 0.5588
    vertex 96.957936876239 83.41742612037866 0.5588
  endloop
endfacet
facet normal 0.0 1.0 0.0
  outer loop
    vertex 99.95513687623901 83.41742612037866 0.5588
    vertex 100.13293687623901 83.41742612037866 0.5588
    vertex 96.957936876239 83.41742612037866 0.5588
  endloop
endfacet
facet normal 0.0 1.0 0.0
  outer loop
    vertex 99.497936876239 83.41742612037866 0.5588
    vertex 99.95513687623901 83.41742612037866 0.5588
    vertex 96.957936876239 83.41742612037866 0.5588
  endloop
endfacet
facet normal 0.0 1.0 0.0
  outer loop
    vertex 99.320136876239 83.41742612037866 0.5588
    vertex 99.497936876239 83.41742612037866 0.5588
    vertex 96.957936876239 83.41742612037866 0.5588
  endloop
endfacet
facet normal 0.0 1.0 0.0
  outer loop
    vertex 98.862936876239 83.41742612037866 0.5588
    vertex 99.320136876239 83.41742612037866 0.5588
    vertex 96.957936876239 83.41742612037866 0.5588
  endloop
endfacet
facet normal 0.0 1.0 0.0
  outer loop
    vertex 98.685136876239 83.41742612037866 0.5588
    vertex 98.862936876239 83.41742612037866 0.5588
    vertex 96.957936876239 83.41742612037866 0.5588
  endloop
endfacet
facet normal 0.0 1.0 0.0
  outer loop
    vertex 98.227936876239 83.41742612037866 0.5588
    vertex 98.685136876239 83.41742612037866 0.5588
    vertex 96.957936876239 83.41742612037866 0.5588
  endloop
endfacet
facet normal 0.0 1.0 0.0
  outer loop
    vertex 98.05013687623901 83.41742612037866 0.5588
    vertex 98.227936876239 83.41742612037866 0.5588
    vertex 96.957936876239 83.41742612037866 0.5588
  endloop
endfacet
facet normal 0.0 1.0 0.0
  outer loop
    vertex 97.592936876239 83.41742612037866 0.5588
    vertex 98.05013687623901 83.41742612037866 0.5588
    vertex 96.957936876239 83.41742612037866 0.5588
  endloop
endfacet
facet normal 0.0 1.0 0.0
  outer loop
    vertex 97.415136876239 83.41742612037866 0.5588
    vertex 97.592936876239 83.41742612037866 0.5588
    vertex 96.957936876239 83.41742612037866 0.5588
  endloop
endfacet
facet normal 0.0 1.0 0.0
  outer loop
    vertex 96.957936876239 83.41742612037866 1.2446
    vertex 96.957936876239 83.41742612037866 0.5588
    vertex 95.89113687623902 83.41742612037866 1.5494
  endloop
endfacet
facet normal 0.0 1.0 0.0
  outer loop
    vertex 96.780136876239 83.41742612037866 1.5494
    vertex 96.957936876239 83.41742612037866 1.2446
    vertex 95.89113687623902 83.41742612037866 1.5494
  endloop
endfacet
facet normal 0.0 1.0 0.0
  outer loop
    vertex 97.592936876239 83.41742612037866 0.5588
    vertex 97.415136876239 83.41742612037866 0.5588
    vertex 97.592936876239 83.41742612037866 1.2446
  endloop
endfacet
facet normal 0.0 1.0 0.0
  outer loop
    vertex 97.415136876239 83.41742612037866 1.2446
    vertex 97.592936876239 83.41742612037866 1.2446
    vertex 97.415136876239 83.41742612037866 0.5588
  endloop
endfacet
facet normal 0.0 1.0 0.0
  outer loop
    vertex 98.227936876239 83.41742612037866 0.5588
    vertex 98.05013687623901 83.41742612037866 0.5588
    vertex 98.227936876239 83.41742612037866 1.2446
  endloop
endfacet
facet normal 0.0 1.0 0.0
  outer loop
    vertex 98.05013687623901 83.41742612037866 1.2446
    vertex 98.227936876239 83.41742612037866 1.2446
    vertex 98.05013687623901 83.41742612037866 0.5588
  endloop
endfacet
facet normal 0.0 1.0 0.0
  outer loop
    vertex 98.862936876239 83.41742612037866 0.5588
    vertex 98.685136876239 83.41742612037866 0.5588
    vertex 98.862936876239 83.41742612037866 1.2446
  endloop
endfacet
facet normal 0.0 1.0 0.0
  outer loop
    vertex 98.685136876239 83.41742612037866 1.2446
    vertex 98.862936876239 83.41742612037866 1.2446
    vertex 98.685136876239 83.41742612037866 0.5588
  endloop
endfacet
facet normal 0.0 1.0 0.0
  outer loop
    vertex 99.497936876239 83.41742612037866 0.5588
    vertex 99.320136876239 83.41742612037866 0.5588
    vertex 99.497936876239 83.41742612037866 1.2446
  endloop
endfacet
facet normal 0.0 1.0 0.0
  outer loop
    vertex 99.320136876239 83.41742612037866 1.2446
    vertex 99.497936876239 83.41742612037866 1.2446
    vertex 99.320136876239 83.41742612037866 0.5588
  endloop
endfacet
facet normal 0.0 1.0 0.0
  outer loop
    vertex 100.13293687623901 83.41742612037866 0.5588
    vertex 99.95513687623901 83.41742612037866 0.5588
    vertex 100.13293687623901 83.41742612037866 1.2446
  endloop
endfacet
facet normal 0.0 1.0 0.0
  outer loop
    vertex 99.95513687623901 83.41742612037866 1.2446
    vertex 100.13293687623901 83.41742612037866 1.2446
    vertex 99.95513687623901 83.41742612037866 0.5588
  endloop
endfacet
facet normal 0.0 1.0 0.0
  outer loop
    vertex 100.767936876239 83.41742612037866 0.5588
    vertex 100.590136876239 83.41742612037866 0.5588
    vertex 100.767936876239 83.41742612037866 1.2446
  endloop
endfacet
facet normal 0.0 1.0 0.0
  outer loop
    vertex 100.590136876239 83.41742612037866 1.2446
    vertex 100.767936876239 83.41742612037866 1.2446
    vertex 100.590136876239 83.41742612037866 0.5588
  endloop
endfacet
facet normal 0.0 1.0 0.0
  outer loop
    vertex 101.40293687623901 83.41742612037866 0.5588
    vertex 101.22513687623902 83.41742612037866 0.5588
    vertex 101.40293687623901 83.41742612037866 1.2446
  endloop
endfacet
facet normal 0.0 1.0 0.0
  outer loop
    vertex 101.22513687623902 83.41742612037866 1.2446
    vertex 101.40293687623901 83.41742612037866 1.2446
    vertex 101.22513687623902 83.41742612037866 0.5588
  endloop
endfacet
facet normal -0.0 -0.7795471620207528 -0.626343533682108
  outer loop
    vertex 95.89113687623902 80.36609447010774 0.0
    vertex 99.320136876239 80.36609447010774 0.0
    vertex 99.320136876239 79.917114878271 0.5588000000000001
  endloop
endfacet
facet normal -3.9219022952434927e-28 -0.779547162020752 0.6263435336821093
  outer loop
    vertex 99.320136876239 79.36609447010774 1.5494000000000006
    vertex 99.497936876239 79.36609447010774 1.5494000000000006
    vertex 99.320136876239 79.917114878271 2.2352000000000003
  endloop
endfacet
facet normal -3.9219022952434927e-28 -0.779547162020752 0.6263435336821093
  outer loop
    vertex 99.497936876239 79.917114878271 2.2352000000000003
    vertex 99.320136876239 79.917114878271 2.2352000000000003
    vertex 99.497936876239 79.36609447010774 1.5494000000000006
  endloop
endfacet
facet normal -3.9219022952434927e-28 -0.779547162020752 0.6263435336821093
  outer loop
    vertex 99.320136876239 80.36609447010774 2.794
    vertex 99.320136876239 79.917114878271 2.2352000000000003
    vertex 99.497936876239 79.917114878271 2.2352000000000003
  endloop
endfacet
facet normal -3.9219022952434927e-28 -0.779547162020752 0.6263435336821093
  outer loop
    vertex 99.497936876239 80.36609447010774 2.794
    vertex 99.320136876239 80.36609447010774 2.794
    vertex 99.497936876239 79.917114878271 2.2352000000000003
  endloop
endfacet
facet normal 0.2406307862379891 -0.8128989220691742 0.5303698400298246
  outer loop
    vertex 99.95513687623901 79.5014328159724 1.5494000000000006
    vertex 100.13293716675433 79.55406448091684 1.5494000000000006
    vertex 100.13293716675433 80.00150957700161 2.2352000000000003
  endloop
endfacet
facet normal -0.1298278436118491 -0.9915365505230239 0.0
  outer loop
    vertex 95.89113687623902 80.36609447010774 0.0
    vertex 96.957936876239 80.2264119304252 0.5588
    vertex 95.89113687623902 80.36609447010774 0.5588000000000001
  endloop
endfacet
facet normal -0.1298278436118491 -0.9915365505230239 0.0
  outer loop
    vertex 99.320136876239 79.917114878271 0.5588000000000001
    vertex 98.685136876239 80.00025924712966 0.5588
    vertex 95.89113687623902 80.36609447010774 0.0
  endloop
endfacet
facet normal -0.1298278436118491 -0.9915365505230239 0.0
  outer loop
    vertex 96.957936876239 80.2264119304252 0.5588
    vertex 95.89113687623902 80.36609447010774 0.0
    vertex 98.685136876239 80.00025924712966 0.5588
  endloop
endfacet
facet normal -0.1298278436118491 -0.9915365505230239 0.0
  outer loop
    vertex 97.415136876239 80.16654798484696 0.5588
    vertex 96.957936876239 80.2264119304252 0.5588
    vertex 98.685136876239 80.00025924712966 0.5588
  endloop
endfacet
facet normal -0.1298278436118491 -0.9915365505230239 0.0
  outer loop
    vertex 97.592936876239 80.14326756156655 0.5588
    vertex 97.415136876239 80.16654798484696 0.5588
    vertex 98.685136876239 80.00025924712966 0.5588
  endloop
endfacet
facet normal -0.1298278436118491 -0.9915365505230239 0.0
  outer loop
    vertex 98.05013687623901 80.08340361598832 0.5588
    vertex 97.592936876239 80.14326756156655 0.5588
    vertex 98.685136876239 80.00025924712966 0.5588
  endloop
endfacet
facet normal -0.1298278436118491 -0.9915365505230239 0.0
  outer loop
    vertex 98.227936876239 80.06012319270789 0.5588
    vertex 98.05013687623901 80.08340361598832 0.5588
    vertex 98.685136876239 80.00025924712966 0.5588
  endloop
endfacet
facet normal -0.1298278436118491 -0.9915365505230239 0.0
  outer loop
    vertex 98.862936876239 79.97697882384922 0.5588000000000001
    vertex 98.685136876239 80.00025924712966 0.5588
    vertex 99.320136876239 79.917114878271 0.5588000000000001
  endloop
endfacet
facet normal -0.10677211625030905 -0.8154526247496588 -0.5688907909083453
  outer loop
    vertex 98.685136876239 80.00025924712966 0.5588
    vertex 98.862936876239 79.97697882384922 0.5588000000000001
    vertex 98.8629439315768 79.49942368834174 1.2433300391963211
  endloop
endfacet
facet normal -0.23720703500369586 -0.8123533943838899 -0.5327427007268402
  outer loop
    vertex 98.685136876239 80.00025924712966 0.5588
    vertex 98.8629439315768 79.49942368834174 1.2433300391963211
    vertex 98.68514385733178 79.55127364904429 1.2434331600079822
  endloop
endfacet
facet normal -0.15529355722282948 -0.8785380059978776 0.45172434415509743
  outer loop
    vertex 97.415136876239 80.25384957214855 2.2352000000000003
    vertex 97.592936876239 79.86979817381145 1.5494000000000003
    vertex 97.592936876239 80.22242100071998 2.2352000000000003
  endloop
endfacet
facet normal 0.0 -0.7795471620207527 0.6263435336821083
  outer loop
    vertex 99.497936876239 80.36609447010774 2.794
    vertex 99.497936876239 79.917114878271 2.2352000000000003
    vertex 102.876136876239 80.36609447010774 2.794
  endloop
endfacet
facet normal -0.23267106682559086 -0.7978290881449587 0.5561770588329091
  outer loop
    vertex 98.685136876239 79.55127965529292 1.5494000000000006
    vertex 98.862936876239 79.49942780344107 1.5494000000000006
    vertex 98.685136876239 80.0293597762302 2.2352000000000003
  endloop
endfacet
facet normal -0.1740651693092129 -0.9847341351011222 6.462569137783704e-17
  outer loop
    vertex 96.780136876239 80.36609447010774 2.2352000000000003
    vertex 96.957936876239 80.33466589867916 2.2352000000000003
    vertex 96.780136876239 80.36609447010774 2.794
  endloop
endfacet
facet normal -0.1740651693092129 -0.9847341351011222 6.462569137783704e-17
  outer loop
    vertex 97.415136876239 80.25384957214855 2.2352000000000003
    vertex 96.780136876239 80.36609447010774 2.794
    vertex 96.957936876239 80.33466589867916 2.2352000000000003
  endloop
endfacet
facet normal -0.1740651693092129 -0.9847341351011222 6.462569137783704e-17
  outer loop
    vertex 97.592936876239 80.22242100071998 2.2352000000000003
    vertex 96.780136876239 80.36609447010774 2.794
    vertex 97.415136876239 80.25384957214855 2.2352000000000003
  endloop
endfacet
facet normal -0.1740651693092129 -0.9847341351011222 6.462569137783704e-17
  outer loop
    vertex 98.05013687623901 80.14160467418937 2.2352000000000003
    vertex 96.780136876239 80.36609447010774 2.794
    vertex 97.592936876239 80.22242100071998 2.2352000000000003
  endloop
endfacet
facet normal -0.1740651693092129 -0.9847341351011222 6.462569137783704e-17
  outer loop
    vertex 98.227936876239 80.1101761027608 2.2352000000000003
    vertex 96.780136876239 80.36609447010774 2.794
    vertex 98.05013687623901 80.14160467418937 2.2352000000000003
  endloop
endfacet
facet normal -0.1740651693092129 -0.9847341351011222 6.462569137783704e-17
  outer loop
    vertex 98.685136876239 80.0293597762302 2.2352000000000003
    vertex 96.780136876239 80.36609447010774 2.794
    vertex 98.227936876239 80.1101761027608 2.2352000000000003
  endloop
endfacet
facet normal -0.1740651693092129 -0.9847341351011222 6.462569137783704e-17
  outer loop
    vertex 98.862936876239 79.9979312048016 2.2352000000000003
    vertex 96.780136876239 80.36609447010774 2.794
    vertex 98.685136876239 80.0293597762302 2.2352000000000003
  endloop
endfacet
facet normal -0.1740651693092129 -0.9847341351011222 6.462569137783704e-17
  outer loop
    vertex 99.320136876239 79.917114878271 2.2352000000000003
    vertex 96.780136876239 80.36609447010774 2.794
    vertex 98.862936876239 79.9979312048016 2.2352000000000003
  endloop
endfacet
facet normal 0.12430763444499911 -0.9235121824483729 -0.3628675528180106
  outer loop
    vertex 101.22513640583634 80.14666697837599 0.5594373692248231
    vertex 101.40293480093196 80.17029720371345 0.560205960759517
    vertex 101.22513682856201 79.87737235510733 1.2448029134106093
  endloop
endfacet
facet normal 0.2690611493950183 -0.9089423748862508 0.3184805441818602
  outer loop
    vertex 101.22513687623902 79.87737266559645 1.5494000000000006
    vertex 101.40293687623901 79.93000424454384 1.5494000000000006
    vertex 101.40293687623901 80.17029885863006 2.2352000000000003
  endloop
endfacet
facet normal -0.00044950789897879384 0.000131456582478437 0.999999890330902
  outer loop
    vertex 101.22513687623902 83.41742612037866 0.5588
    vertex 100.767936876239 83.41742612037866 0.5588
    vertex 101.22513640583634 80.14666697837599 0.5594373692248231
  endloop
endfacet
facet normal -0.00044950789897879384 0.000131456582478437 0.999999890330902
  outer loop
    vertex 100.76793678976794 80.08590321015647 0.5590343269528003
    vertex 101.22513640583634 80.14666697837599 0.5594373692248231
    vertex 100.767936876239 83.41742612037866 0.5588
  endloop
endfacet
facet normal 0.0023306172410618746 0.0004537145467030332 -0.99999718117922
  outer loop
    vertex 98.05013687623901 83.41742612037866 1.2446
    vertex 98.05014902839119 79.73645115517839 1.2429299117265749
    vertex 97.5929584109094 79.86977761955127 1.241924864714319
  endloop
endfacet
facet normal 0.0 0.0007540585050943632 -0.9999997156978451
  outer loop
    vertex 98.05013687623901 83.41742612037866 1.2446
    vertex 97.5929584109094 79.86977761955127 1.241924864714319
    vertex 97.592936876239 83.41742612037866 1.2446
  endloop
endfacet
facet normal 0.003314668333248259 0.0006273006177999409 -0.9999943097176981
  outer loop
    vertex 97.415136876239 83.41742612037866 1.2446
    vertex 97.41515797586545 79.92162493611819 1.2424071392176743
    vertex 96.9579769682382 80.05494671872773 1.2409753604985019
  endloop
endfacet
facet normal -8.740866813736071e-19 0.0010779656802608923 -0.9999994189948272
  outer loop
    vertex 97.415136876239 83.41742612037866 1.2446
    vertex 96.9579769682382 80.05494671872773 1.2409753604985019
    vertex 96.957936876239 83.41742612037866 1.2446
  endloop
endfacet
facet normal -1.0 0.0 0.0
  outer loop
    vertex 100.590136876239 79.68940274078443 1.5494000000000006
    vertex 100.590136876239 80.06227369367687 2.2352000000000003
    vertex 100.590136876239 83.41742612037866 1.5494000000000006
  endloop
endfacet
facet normal -1.0 0.0 0.0
  outer loop
    vertex 100.590136876239 83.41742612037866 2.2352000000000003
    vertex 100.590136876239 83.41742612037866 1.5494000000000006
    vertex 100.590136876239 80.06227369367687 2.2352000000000003
  endloop
endfacet
facet normal 0.0 0.0 -1.0
  outer loop
    vertex 98.685136876239 83.41742612037866 2.2352000000000003
    vertex 98.685136876239 80.0293597762302 2.2352000000000003
    vertex 98.227936876239 83.41742612037866 2.2352000000000003
  endloop
endfacet
facet normal 0.0 0.0 -1.0
  outer loop
    vertex 98.227936876239 80.1101761027608 2.2352000000000003
    vertex 98.227936876239 83.41742612037866 2.2352000000000003
    vertex 98.685136876239 80.0293597762302 2.2352000000000003
  endloop
endfacet
facet normal 1.0 0.0 0.0
  outer loop
    vertex 96.957936876239 80.05498335899662 1.5494000000000003
    vertex 96.957936876239 83.41742612037866 1.5494000000000006
    vertex 96.957936876239 80.33466589867916 2.2352000000000003
  endloop
endfacet
facet normal 1.0 0.0 0.0
  outer loop
    vertex 96.957936876239 83.41742612037866 2.2352000000000003
    vertex 96.957936876239 80.33466589867916 2.2352000000000003
    vertex 96.957936876239 83.41742612037866 1.5494000000000006
  endloop
endfacet
facet normal -1.0 0.0 0.0
  outer loop
    vertex 99.320136876239 79.36609447010774 1.5494000000000006
    vertex 99.320136876239 79.917114878271 2.2352000000000003
    vertex 99.320136876239 83.41742612037866 1.5494000000000006
  endloop
endfacet
facet normal -1.0 0.0 0.0
  outer loop
    vertex 99.320136876239 83.41742612037866 2.2352000000000003
    vertex 99.320136876239 83.41742612037866 1.5494000000000006
    vertex 99.320136876239 79.917114878271 2.2352000000000003
  endloop
endfacet
facet normal 0.0 0.0 1.0
  outer loop
    vertex 99.95513687623901 79.5014328159724 1.5494000000000006
    vertex 99.95513687623901 83.41742612037866 1.5494000000000006
    vertex 99.497936876239 79.36609447010774 1.5494000000000006
  endloop
endfacet
facet normal 0.0 0.0 1.0
  outer loop
    vertex 99.497936876239 83.41742612037866 1.5494000000000006
    vertex 99.497936876239 79.36609447010774 1.5494000000000006
    vertex 99.95513687623901 83.41742612037866 1.5494000000000006
  endloop
endfacet
facet normal 0.0 0.0 1.0
  outer loop
    vertex 102.876136876239 80.36609447010774 2.794
    vertex 102.876136876239 83.41742612037866 2.794
    vertex 99.497936876239 80.36609447010774 2.794
  endloop
endfacet
facet normal 0.0 0.0 1.0
  outer loop
    vertex 96.780136876239 83.41742612037866 2.794
    vertex 99.497936876239 80.36609447010774 2.794
    vertex 102.876136876239 83.41742612037866 2.794
  endloop
endfacet
facet normal 0.0 0.0 1.0
  outer loop
    vertex 99.320136876239 80.36609447010774 2.794
    vertex 99.497936876239 80.36609447010774 2.794
    vertex 96.780136876239 83.41742612037866 2.794
  endloop
endfacet
facet normal 0.0 0.0 1.0
  outer loop
    vertex 96.780136876239 80.36609447010774 2.794
    vertex 99.320136876239 80.36609447010774 2.794
    vertex 96.780136876239 83.41742612037866 2.794
  endloop
endfacet
facet normal 0.0 0.0 1.0
  outer loop
    vertex 98.685136876239 80.00025924712966 0.5588
    vertex 98.685136876239 83.41742612037866 0.5588
    vertex 98.227936876239 80.06012319270789 0.5588
  endloop
endfacet
facet normal 0.0 0.0 1.0
  outer loop
    vertex 98.227936876239 83.41742612037866 0.5588
    vertex 98.227936876239 80.06012319270789 0.5588
    vertex 98.685136876239 83.41742612037866 0.5588
  endloop
endfacet
facet normal 1.0 0.0 0.0
  outer loop
    vertex 100.767936876239 79.74203431973179 1.5494000000000006
    vertex 100.767936876239 83.41742612037866 1.5494000000000006
    vertex 100.767936876239 80.08590419851038 2.2352000000000003
  endloop
endfacet
facet normal 1.0 0.0 0.0
  outer loop
    vertex 100.767936876239 83.41742612037866 2.2352000000000003
    vertex 100.767936876239 80.08590419851038 2.2352000000000003
    vertex 100.767936876239 83.41742612037866 1.5494000000000006
  endloop
endfacet
facet normal -0.0 -0.0003311537839424753 -0.9999999451685843
  outer loop
    vertex 101.860136876239 83.41742612037866 1.2446
    vertex 101.86013583295384 80.06534197275107 1.2457100554104463
    vertex 101.40293687623901 83.41742612037866 1.2446
  endloop
endfacet
facet normal 0.0014869273164603409 -0.0001283477792974186 -0.9999988862863816
  outer loop
    vertex 101.40293687623901 83.41742612037866 1.2446
    vertex 101.86013583295384 80.06534197275107 1.2457100554104463
    vertex 101.4029366658993 79.93000387096068 1.245047603086927
  endloop
endfacet
facet normal 0.0 0.0 -1.0
  outer loop
    vertex 99.320136876239 83.41742612037866 1.2446
    vertex 99.320136876239 79.36609447010774 1.2446
    vertex 98.862936876239 83.41742612037866 1.2446
  endloop
endfacet
facet normal 0.0028722504533511026 0.0003241385847007426 -0.99999582254703
  outer loop
    vertex 99.320136876239 79.36609447010774 1.2446
    vertex 98.8629439315768 79.49942368834174 1.2433300391963211
    vertex 98.862936876239 83.41742612037866 1.2446
  endloop
endfacet
facet normal 0.002012102131424663 0.0003018121070461042 -0.9999979301750903
  outer loop
    vertex 98.685136876239 83.41742612037866 1.2446
    vertex 98.68514385733178 79.55127364904429 1.2434331600079822
    vertex 98.2279499750928 79.68460202789704 1.2425534775212168
  endloop
endfacet
facet normal 0.0 0.0005482503650077953 -0.9999998497107575
  outer loop
    vertex 98.685136876239 83.41742612037866 1.2446
    vertex 98.2279499750928 79.68460202789704 1.2425534775212168
    vertex 98.227936876239 83.41742612037866 1.2446
  endloop
endfacet
facet normal -1.962355608576367e-16 -2.3924187667362955e-17 1.0
  outer loop
    vertex 98.05013687623901 79.7364648404781 1.5494000000000006
    vertex 98.05013687623901 83.41742612037866 1.5494000000000006
    vertex 97.592936876239 79.86979817381145 1.5494000000000003
  endloop
endfacet
facet normal -1.962355608576367e-16 -2.3924187667362955e-17 1.0
  outer loop
    vertex 97.592936876239 83.41742612037866 1.5494000000000006
    vertex 97.592936876239 79.86979817381145 1.5494000000000003
    vertex 98.05013687623901 83.41742612037866 1.5494000000000006
  endloop
endfacet
facet normal -1.0 0.0 0.0
  outer loop
    vertex 98.685136876239 79.55127965529292 1.5494000000000006
    vertex 98.685136876239 80.0293597762302 2.2352000000000003
    vertex 98.685136876239 83.41742612037866 1.5494000000000006
  endloop
endfacet
facet normal -1.0 0.0 0.0
  outer loop
    vertex 98.685136876239 83.41742612037866 2.2352000000000003
    vertex 98.685136876239 83.41742612037866 1.5494000000000006
    vertex 98.685136876239 80.0293597762302 2.2352000000000003
  endloop
endfacet
facet normal 0.0 0.0 -1.0
  outer loop
    vertex 102.876136876239 83.41742612037866 0.0
    vertex 102.876136876239 80.36609447010774 0.0
    vertex 95.89113687623902 83.41742612037866 0.0
  endloop
endfacet
facet normal 0.0 0.0 -1.0
  outer loop
    vertex 99.497936876239 80.36609447010774 0.0
    vertex 95.89113687623902 83.41742612037866 0.0
    vertex 102.876136876239 80.36609447010774 0.0
  endloop
endfacet
facet normal 0.0 0.0 -1.0
  outer loop
    vertex 99.320136876239 80.36609447010774 0.0
    vertex 95.89113687623902 83.41742612037866 0.0
    vertex 99.497936876239 80.36609447010774 0.0
  endloop
endfacet
facet normal 0.0 0.0 -1.0
  outer loop
    vertex 95.89113687623902 80.36609447010774 0.0
    vertex 95.89113687623902 83.41742612037866 0.0
    vertex 99.320136876239 80.36609447010774 0.0
  endloop
endfacet
facet normal 5.1364451763645195e-05 -1.0797665960671207e-05 -0.9999999986225518
  outer loop
    vertex 100.590136876239 83.41742612037866 1.2446
    vertex 100.590136876239 79.68940255113908 1.2446641564473295
    vertex 100.13293687623901 83.41742612037866 1.2446
  endloop
endfacet
facet normal 5.1364451763645195e-05 -1.0797665960671207e-05 -0.9999999986225518
  outer loop
    vertex 100.13293687514349 79.55406428401226 1.2446186501299732
    vertex 100.13293687623901 83.41742612037866 1.2446
    vertex 100.590136876239 79.68940255113908 1.2446641564473295
  endloop
endfacet
facet normal -0.9999999998851494 -3.2418259642701906e-06 1.4805125711924189e-05
  outer loop
    vertex 97.41515797586545 79.92162493611819 1.2424071392176743
    vertex 97.415136876239 83.41742612037866 1.2446
    vertex 97.415136876239 80.16654798484696 0.5588
  endloop
endfacet
facet normal -0.9999999998851494 -3.2418259642701906e-06 1.4805125711924189e-05
  outer loop
    vertex 97.415136876239 83.41742612037866 0.5588
    vertex 97.415136876239 80.16654798484696 0.5588
    vertex 97.415136876239 83.41742612037866 1.2446
  endloop
endfacet
facet normal 1.0 0.0 0.0
  outer loop
    vertex 102.876136876239 80.36609447010774 2.794
    vertex 102.876136876239 80.36609447010774 2.2352000000000003
    vertex 102.876136876239 83.41742612037866 2.794
  endloop
endfacet
facet normal 1.0 0.0 0.0
  outer loop
    vertex 102.876136876239 80.36609447010774 1.5494000000000006
    vertex 102.876136876239 83.41742612037866 2.794
    vertex 102.876136876239 80.36609447010774 2.2352000000000003
  endloop
endfacet
facet normal 1.0 0.0 0.0
  outer loop
    vertex 102.876136876239 80.36609447010774 1.2477750000000003
    vertex 102.876136876239 83.41742612037866 2.794
    vertex 102.876136876239 80.36609447010774 1.5494000000000006
  endloop
endfacet
facet normal 1.0 0.0 0.0
  outer loop
    vertex 102.876136876239 80.36609447010774 0.5687730135086377
    vertex 102.876136876239 83.41742612037866 2.794
    vertex 102.876136876239 80.36609447010774 1.2477750000000003
  endloop
endfacet
facet normal 1.0 0.0 0.0
  outer loop
    vertex 102.876136876239 80.36609447010774 0.0
    vertex 102.876136876239 83.41742612037866 2.794
    vertex 102.876136876239 80.36609447010774 0.5687730135086377
  endloop
endfacet
facet normal 1.0 0.0 0.0
  outer loop
    vertex 102.876136876239 83.41742612037866 0.0
    vertex 102.876136876239 83.41742612037866 2.794
    vertex 102.876136876239 80.36609447010774 0.0
  endloop
endfacet
facet normal 1.0 0.0 0.0
  outer loop
    vertex 99.497936876239 79.36609447010774 1.5494000000000006
    vertex 99.497936876239 83.41742612037866 1.5494000000000006
    vertex 99.497936876239 79.917114878271 2.2352000000000003
  endloop
endfacet
facet normal 1.0 0.0 0.0
  outer loop
    vertex 99.497936876239 83.41742612037866 2.2352000000000003
    vertex 99.497936876239 79.917114878271 2.2352000000000003
    vertex 99.497936876239 83.41742612037866 1.5494000000000006
  endloop
endfacet
facet normal -9.733801479521621e-19 0.0010942789281545597 0.9999994012766346
  outer loop
    vertex 101.86012658269361 80.23106027778941 0.5622867750865506
    vertex 101.860136876239 83.41742612037866 0.5588
    vertex 101.40293687623901 83.41742612037866 0.5588
  endloop
endfacet
facet normal -0.004608791240143283 0.0004329841211755914 0.9999892857266302
  outer loop
    vertex 101.86012658269361 80.23106027778941 0.5622867750865506
    vertex 101.40293687623901 83.41742612037866 0.5588
    vertex 101.40293480093196 80.17029720371345 0.560205960759517
  endloop
endfacet
facet normal 1.0 0.0 0.0
  outer loop
    vertex 98.227936876239 79.68461298862626 1.5494000000000006
    vertex 98.227936876239 83.41742612037866 1.5494000000000006
    vertex 98.227936876239 80.1101761027608 2.2352000000000003
  endloop
endfacet
facet normal 1.0 0.0 0.0
  outer loop
    vertex 98.227936876239 83.41742612037866 2.2352000000000003
    vertex 98.227936876239 80.1101761027608 2.2352000000000003
    vertex 98.227936876239 83.41742612037866 1.5494000000000006
  endloop
endfacet
facet normal -1.0 0.0 0.0
  outer loop
    vertex 95.89113687623902 80.36609447010774 0.0
    vertex 95.89113687623902 80.36609447010774 0.5588000000000001
    vertex 95.89113687623902 83.41742612037866 0.0
  endloop
endfacet
facet normal -1.0 0.0 0.0
  outer loop
    vertex 95.89113687623902 80.36609447010774 1.22555
    vertex 95.89113687623902 83.41742612037866 0.0
    vertex 95.89113687623902 80.36609447010774 0.5588000000000001
  endloop
endfacet
facet normal -1.0 0.0 0.0
  outer loop
    vertex 95.89113687623902 80.36609447010774 1.5494
    vertex 95.89113687623902 83.41742612037866 0.0
    vertex 95.89113687623902 80.36609447010774 1.22555
  endloop
endfacet
facet normal -1.0 0.0 0.0
  outer loop
    vertex 95.89113687623902 83.41742612037866 1.5494
    vertex 95.89113687623902 83.41742612037866 0.0
    vertex 95.89113687623902 80.36609447010774 1.5494
  endloop
endfacet
facet normal 0.9999999995756488 6.289956288728966e-06 -2.8445369370955442e-05
  outer loop
    vertex 96.9579769682382 80.05494671872773 1.2409753604985019
    vertex 96.957936876239 80.2264119304252 0.5588
    vertex 96.957936876239 83.41742612037866 1.2446
  endloop
endfacet
facet normal 0.9999999995756488 6.289956288728966e-06 -2.8445369370955442e-05
  outer loop
    vertex 96.957936876239 83.41742612037866 0.5588
    vertex 96.957936876239 83.41742612037866 1.2446
    vertex 96.957936876239 80.2264119304252 0.5588
  endloop
endfacet
facet normal 1.0 0.0 0.0
  outer loop
    vertex 100.13293716675433 79.55406448091684 1.5494000000000006
    vertex 100.13293716675433 83.41742612037866 1.5494000000000006
    vertex 100.13293716675433 80.00150957700161 2.2352000000000003
  endloop
endfacet
facet normal 1.0 0.0 0.0
  outer loop
    vertex 100.13293716675433 83.41742612037866 2.2352000000000003
    vertex 100.13293716675433 80.00150957700161 2.2352000000000003
    vertex 100.13293716675433 83.41742612037866 1.5494000000000006
  endloop
endfacet
facet normal -0.9999999999744071 1.7016751799018432e-06 6.949100405007445e-06
  outer loop
    vertex 101.86013583295384 80.06534197275107 1.2457100554104463
    vertex 101.860136876239 83.41742612037866 1.2446
    vertex 101.86012658269361 80.23106027778941 0.5622867750865506
  endloop
endfacet
facet normal -0.9999999999744071 1.7016751799018432e-06 6.949100405007445e-06
  outer loop
    vertex 101.860136876239 83.41742612037866 0.5588
    vertex 101.86012658269361 80.23106027778941 0.5622867750865506
    vertex 101.860136876239 83.41742612037866 1.2446
  endloop
endfacet
facet normal 0.9999999999989413 -3.2946597479255126e-07 -1.4173519360887158e-06
  outer loop
    vertex 101.4029366658993 79.93000387096068 1.245047603086927
    vertex 101.40293480093196 80.17029720371345 0.560205960759517
    vertex 101.40293687623901 83.41742612037866 1.2446
  endloop
endfacet
facet normal 0.9999999999989413 -3.2946597479255126e-07 -1.4173519360887158e-06
  outer loop
    vertex 101.40293687623901 83.41742612037866 0.5588
    vertex 101.40293687623901 83.41742612037866 1.2446
    vertex 101.40293480093196 80.17029720371345 0.560205960759517
  endloop
endfacet
facet normal 0.0 0.0 1.0
  outer loop
    vertex 98.05013687623901 80.08340361598832 0.5588
    vertex 98.05013687623901 83.41742612037866 0.5588
    vertex 97.592936876239 80.14326756156655 0.5588
  endloop
endfacet
facet normal 0.0 0.0 1.0
  outer loop
    vertex 97.592936876239 83.41742612037866 0.5588
    vertex 97.592936876239 80.14326756156655 0.5588
    vertex 98.05013687623901 83.41742612037866 0.5588
  endloop
endfacet
facet normal -1.0 0.0 0.0
  outer loop
    vertex 101.860136876239 80.06534259040848 1.5494000000000006
    vertex 101.860136876239 80.23106301391623 2.2352000000000003
    vertex 101.860136876239 83.41742612037866 1.5494000000000006
  endloop
endfacet
facet normal -1.0 0.0 0.0
  outer loop
    vertex 101.860136876239 83.41742612037866 2.2352000000000003
    vertex 101.860136876239 83.41742612037866 1.5494000000000006
    vertex 101.860136876239 80.23106301391623 2.2352000000000003
  endloop
endfacet
facet normal 0.9999999998814066 3.2843813779305563e-06 -1.504658328127078e-05
  outer loop
    vertex 97.5929584109094 79.86977761955127 1.241924864714319
    vertex 97.592936876239 80.14326756156655 0.5588
    vertex 97.592936876239 83.41742612037866 1.2446
  endloop
endfacet
facet normal 0.9999999998814066 3.2843813779305563e-06 -1.504658328127078e-05
  outer loop
    vertex 97.592936876239 83.41742612037866 0.5588
    vertex 97.592936876239 83.41742612037866 1.2446
    vertex 97.592936876239 80.14326756156655 0.5588
  endloop
endfacet
facet normal -1.0 0.0 0.0
  outer loop
    vertex 96.780136876239 80.10683521084847 1.5494000000000003
    vertex 96.780136876239 80.36609447010774 2.2352000000000003
    vertex 96.780136876239 83.41742612037866 1.5494
  endloop
endfacet
facet normal -1.0 0.0 0.0
  outer loop
    vertex 96.780136876239 80.36609447010774 2.794
    vertex 96.780136876239 83.41742612037866 1.5494
    vertex 96.780136876239 80.36609447010774 2.2352000000000003
  endloop
endfacet
facet normal -1.0 0.0 0.0
  outer loop
    vertex 96.780136876239 83.41742612037866 2.794
    vertex 96.780136876239 83.41742612037866 1.5494
    vertex 96.780136876239 80.36609447010774 2.794
  endloop
endfacet
facet normal 0.0001459658678408264 -3.811413160293888e-05 -0.9999999886206393
  outer loop
    vertex 101.22513687623902 83.41742612037866 1.2446
    vertex 101.22513682856201 79.87737235510733 1.2448029134106093
    vertex 100.767936876239 83.41742612037866 1.2446
  endloop
endfacet
facet normal 0.0001459658678408264 -3.811413160293888e-05 -0.9999999886206393
  outer loop
    vertex 100.76793686747486 79.74203409661962 1.2446746005196359
    vertex 100.767936876239 83.41742612037866 1.2446
    vertex 101.22513682856201 79.87737235510733 1.2448029134106093
  endloop
endfacet
facet normal 0.0 0.0 -1.0
  outer loop
    vertex 99.320136876239 83.41742612037866 2.2352000000000003
    vertex 99.320136876239 79.917114878271 2.2352000000000003
    vertex 98.862936876239 83.41742612037866 2.2352000000000003
  endloop
endfacet
facet normal 0.0 0.0 -1.0
  outer loop
    vertex 98.862936876239 79.9979312048016 2.2352000000000003
    vertex 98.862936876239 83.41742612037866 2.2352000000000003
    vertex 99.320136876239 79.917114878271 2.2352000000000003
  endloop
endfacet
facet normal 0.0 0.0 -1.0
  outer loop
    vertex 99.95513687623901 83.41742612037866 2.2352000000000003
    vertex 99.95513687623901 79.97787903355717 2.2352000000000003
    vertex 99.497936876239 83.41742612037866 2.2352000000000003
  endloop
endfacet
facet normal 0.0 0.0 -1.0
  outer loop
    vertex 99.497936876239 79.917114878271 2.2352000000000003
    vertex 99.497936876239 83.41742612037866 2.2352000000000003
    vertex 99.95513687623901 79.97787903355717 2.2352000000000003
  endloop
endfacet
facet normal 7.465142596731237e-06 -8.28144158749643e-07 -0.999999999971793
  outer loop
    vertex 99.95513687623901 83.41742612037866 1.2446
    vertex 99.9551368760418 79.50143273623574 1.244606714046796
    vertex 99.497936876239 83.41742612037866 1.2446
  endloop
endfacet
facet normal 7.465142596731237e-06 -8.28144158749643e-07 -0.999999999971793
  outer loop
    vertex 99.497936876239 79.36609447010774 1.2446
    vertex 99.497936876239 83.41742612037866 1.2446
    vertex 99.9551368760418 79.50143273623574 1.244606714046796
  endloop
endfacet
facet normal 0.0 0.0 1.0
  outer loop
    vertex 100.590136876239 79.68940274078443 1.5494000000000006
    vertex 100.590136876239 83.41742612037866 1.5494000000000006
    vertex 100.13293716675433 79.55406448091684 1.5494000000000006
  endloop
endfacet
facet normal 0.0 0.0 1.0
  outer loop
    vertex 100.13293716675433 83.41742612037866 1.5494000000000006
    vertex 100.13293716675433 79.55406448091684 1.5494000000000006
    vertex 100.590136876239 83.41742612037866 1.5494000000000006
  endloop
endfacet
facet normal 0.9999999999999982 -1.3018501287202838e-08 -5.991737158173766e-08
  outer loop
    vertex 100.76793686747486 79.74203409661962 1.2446746005196359
    vertex 100.76793678976794 80.08590321015647 0.5590343269528003
    vertex 100.767936876239 83.41742612037866 1.2446
  endloop
endfacet
facet normal 0.9999999999999982 -1.3018501287202838e-08 -5.991737158173766e-08
  outer loop
    vertex 100.767936876239 83.41742612037866 0.5588
    vertex 100.767936876239 83.41742612037866 1.2446
    vertex 100.76793678976794 80.08590321015647 0.5590343269528003
  endloop
endfacet
facet normal 0.0 0.0 -1.0
  outer loop
    vertex 102.495136876239 83.41742612037866 2.2352000000000003
    vertex 102.495136876239 80.31545767403593 2.2352000000000003
    vertex 102.03793687623902 83.41742612037866 2.2352000000000003
  endloop
endfacet
facet normal 0.0 0.0 -1.0
  outer loop
    vertex 102.03793687623902 80.25469351874976 2.2352000000000003
    vertex 102.03793687623902 83.41742612037866 2.2352000000000003
    vertex 102.495136876239 80.31545767403593 2.2352000000000003
  endloop
endfacet
facet normal -7.491711080347037e-18 -5.137815458901798e-17 1.0
  outer loop
    vertex 97.415136876239 79.92165002566328 1.5494000000000003
    vertex 97.415136876239 83.41742612037866 1.5494000000000006
    vertex 96.957936876239 80.05498335899662 1.5494000000000003
  endloop
endfacet
facet normal -7.491711080347037e-18 -5.137815458901798e-17 1.0
  outer loop
    vertex 96.957936876239 83.41742612037866 1.5494000000000006
    vertex 96.957936876239 80.05498335899662 1.5494000000000003
    vertex 97.415136876239 83.41742612037866 1.5494000000000006
  endloop
endfacet
facet normal -0.9999999999881668 -1.014589741974777e-06 4.757867093453936e-06
  outer loop
    vertex 98.68514385733178 79.55127364904429 1.2434331600079822
    vertex 98.685136876239 83.41742612037866 1.2446
    vertex 98.685136876239 80.00025924712966 0.5588
  endloop
endfacet
facet normal -0.9999999999881668 -1.014589741974777e-06 4.757867093453936e-06
  outer loop
    vertex 98.685136876239 83.41742612037866 0.5588
    vertex 98.685136876239 80.00025924712966 0.5588
    vertex 98.685136876239 83.41742612037866 1.2446
  endloop
endfacet
facet normal 1.0 -5.062489667751129e-10 -1.3365548362991563e-09
  outer loop
    vertex 100.13293687514349 79.55406428401226 1.2446186501299732
    vertex 100.13293687353678 80.0015090478051 0.5588292908703464
    vertex 100.13293687623901 83.41742612037866 1.2446
  endloop
endfacet
facet normal 1.0 -5.062489667751129e-10 -1.3365548362991563e-09
  outer loop
    vertex 100.13293687623901 83.41742612037866 0.5588
    vertex 100.13293687623901 83.41742612037866 1.2446
    vertex 100.13293687353678 80.0015090478051 0.5588292908703464
  endloop
endfacet
facet normal 0.0 0.0 -1.0
  outer loop
    vertex 101.860136876239 83.41742612037866 2.2352000000000003
    vertex 101.860136876239 80.23106301391623 2.2352000000000003
    vertex 101.40293687623901 83.41742612037866 2.2352000000000003
  endloop
endfacet
facet normal 0.0 0.0 -1.0
  outer loop
    vertex 101.40293687623901 80.17029885863006 2.2352000000000003
    vertex 101.40293687623901 83.41742612037866 2.2352000000000003
    vertex 101.860136876239 80.23106301391623 2.2352000000000003
  endloop
endfacet
facet normal 0.0 0.0 1.0
  outer loop
    vertex 101.860136876239 80.06534259040848 1.5494000000000006
    vertex 101.860136876239 83.41742612037866 1.5494000000000006
    vertex 101.40293687623901 79.93000424454384 1.5494000000000006
  endloop
endfacet
facet normal 0.0 0.0 1.0
  outer loop
    vertex 101.40293687623901 83.41742612037866 1.5494000000000006
    vertex 101.40293687623901 79.93000424454384 1.5494000000000006
    vertex 101.860136876239 83.41742612037866 1.5494000000000006
  endloop
endfacet
facet normal -0.9999999999999454 7.353630263318492e-08 3.2262889837615044e-07
  outer loop
    vertex 101.22513682856201 79.87737235510733 1.2448029134106093
    vertex 101.22513687623902 83.41742612037866 1.2446
    vertex 101.22513640583634 80.14666697837599 0.5594373692248231
  endloop
endfacet
facet normal -0.9999999999999454 7.353630263318492e-08 3.2262889837615044e-07
  outer loop
    vertex 101.22513687623902 83.41742612037866 0.5588
    vertex 101.22513640583634 80.14666697837599 0.5594373692248231
    vertex 101.22513687623902 83.41742612037866 1.2446
  endloop
endfacet
facet normal -0.9999999999630631 -1.8157396804864377e-06 8.401020574486183e-06
  outer loop
    vertex 98.05014902839119 79.73645115517839 1.2429299117265749
    vertex 98.05013687623901 83.41742612037866 1.2446
    vertex 98.05013687623901 80.08340361598832 0.5588
  endloop
endfacet
facet normal -0.9999999999630631 -1.8157396804864377e-06 8.401020574486183e-06
  outer loop
    vertex 98.05013687623901 83.41742612037866 0.5588
    vertex 98.05013687623901 80.08340361598832 0.5588
    vertex 98.05013687623901 83.41742612037866 1.2446
  endloop
endfacet
facet normal 0.0 0.0 -1.0
  outer loop
    vertex 100.590136876239 83.41742612037866 2.2352000000000003
    vertex 100.590136876239 80.06227369367687 2.2352000000000003
    vertex 100.13293716675433 83.41742612037866 2.2352000000000003
  endloop
endfacet
facet normal 0.0 0.0 -1.0
  outer loop
    vertex 100.13293716675433 80.00150957700161 2.2352000000000003
    vertex 100.13293716675433 83.41742612037866 2.2352000000000003
    vertex 100.590136876239 80.06227369367687 2.2352000000000003
  endloop
endfacet
facet normal 1.0 0.0 0.0
  outer loop
    vertex 99.497936876239 79.36609447010774 1.2446
    vertex 99.497936876239 79.917114878271 0.5588000000000001
    vertex 99.497936876239 83.41742612037866 1.2446
  endloop
endfacet
facet normal 1.0 0.0 0.0
  outer loop
    vertex 99.497936876239 83.41742612037866 0.5588
    vertex 99.497936876239 83.41742612037866 1.2446
    vertex 99.497936876239 79.917114878271 0.5588000000000001
  endloop
endfacet
facet normal -1.0 0.0 0.0
  outer loop
    vertex 99.320136876239 79.36609447010774 1.2446
    vertex 99.320136876239 83.41742612037866 1.2446
    vertex 99.320136876239 79.917114878271 0.5588000000000001
  endloop
endfacet
facet normal -1.0 0.0 0.0
  outer loop
    vertex 99.320136876239 83.41742612037866 0.5588
    vertex 99.320136876239 79.917114878271 0.5588000000000001
    vertex 99.320136876239 83.41742612037866 1.2446
  endloop
endfacet
facet normal 0.0 0.0 -1.0
  outer loop
    vertex 98.05013687623901 83.41742612037866 2.2352000000000003
    vertex 98.05013687623901 80.14160467418937 2.2352000000000003
    vertex 97.592936876239 83.41742612037866 2.2352000000000003
  endloop
endfacet
facet normal 0.0 0.0 -1.0
  outer loop
    vertex 97.592936876239 80.22242100071998 2.2352000000000003
    vertex 97.592936876239 83.41742612037866 2.2352000000000003
    vertex 98.05013687623901 80.14160467418937 2.2352000000000003
  endloop
endfacet
facet normal 1.0 0.0 0.0
  outer loop
    vertex 102.03793687623902 80.11797416935586 1.5494000000000006
    vertex 102.03793687623902 83.41742612037866 1.5494000000000006
    vertex 102.03793687623902 80.25469351874976 2.2352000000000003
  endloop
endfacet
facet normal 1.0 0.0 0.0
  outer loop
    vertex 102.03793687623902 83.41742612037866 2.2352000000000003
    vertex 102.03793687623902 80.25469351874976 2.2352000000000003
    vertex 102.03793687623902 83.41742612037866 1.5494000000000006
  endloop
endfacet
facet normal -7.943018297442094e-05 1.9110667234868876e-05 0.9999999966628144
  outer loop
    vertex 100.590136876239 83.41742612037866 0.5588
    vertex 100.13293687623901 83.41742612037866 0.5588
    vertex 100.59013685764774 80.06227284863424 0.5589007605931343
  endloop
endfacet
facet normal -7.943018297442094e-05 1.9110667234868876e-05 0.9999999966628144
  outer loop
    vertex 100.13293687353678 80.0015090478051 0.5588292908703464
    vertex 100.59013685764774 80.06227284863424 0.5589007605931343
    vertex 100.13293687623901 83.41742612037866 0.5588
  endloop
endfacet
facet normal 0.0 0.0 1.0
  outer loop
    vertex 102.495136876239 80.25331251522053 1.5494000000000006
    vertex 102.495136876239 83.41742612037866 1.5494000000000006
    vertex 102.03793687623902 80.11797416935586 1.5494000000000006
  endloop
endfacet
facet normal 0.0 0.0 1.0
  outer loop
    vertex 102.03793687623902 83.41742612037866 1.5494000000000006
    vertex 102.03793687623902 80.11797416935586 1.5494000000000006
    vertex 102.495136876239 83.41742612037866 1.5494000000000006
  endloop
endfacet
facet normal 0.0 0.0 1.0
  outer loop
    vertex 97.415136876239 80.16654798484696 0.5588
    vertex 97.415136876239 83.41742612037866 0.5588
    vertex 96.957936876239 80.2264119304252 0.5588
  endloop
endfacet
facet normal 0.0 0.0 1.0
  outer loop
    vertex 96.957936876239 83.41742612037866 0.5588
    vertex 96.957936876239 80.2264119304252 0.5588
    vertex 97.415136876239 83.41742612037866 0.5588
  endloop
endfacet
facet normal -9.387288223962499e-17 3.819643088375274e-17 1.0
  outer loop
    vertex 99.320136876239 79.917114878271 0.5588000000000001
    vertex 99.320136876239 83.41742612037866 0.5588
    vertex 98.862936876239 79.97697882384922 0.5588000000000001
  endloop
endfacet
facet normal -9.387288223962499e-17 3.819643088375274e-17 1.0
  outer loop
    vertex 98.862936876239 83.41742612037866 0.5588
    vertex 98.862936876239 79.97697882384922 0.5588000000000001
    vertex 99.320136876239 83.41742612037866 0.5588
  endloop
endfacet
facet normal 0.0 0.0 1.0
  outer loop
    vertex 99.320136876239 79.36609447010774 1.5494000000000006
    vertex 99.320136876239 83.41742612037866 1.5494000000000006
    vertex 98.862936876239 79.49942780344107 1.5494000000000006
  endloop
endfacet
facet normal 0.0 0.0 1.0
  outer loop
    vertex 98.862936876239 83.41742612037866 1.5494000000000006
    vertex 98.862936876239 79.49942780344107 1.5494000000000006
    vertex 99.320136876239 83.41742612037866 1.5494000000000006
  endloop
endfacet
facet normal -1.0 2.479989325433526e-09 1.4228538041977952e-08
  outer loop
    vertex 100.590136876239 79.68940255113908 1.2446641564473295
    vertex 100.590136876239 83.41742612037866 1.2446
    vertex 100.59013685764774 80.06227284863424 0.5589007605931343
  endloop
endfacet
facet normal -1.0 2.479989325433526e-09 1.4228538041977952e-08
  outer loop
    vertex 100.590136876239 83.41742612037866 0.5588
    vertex 100.59013685764774 80.06227284863424 0.5589007605931343
    vertex 100.590136876239 83.41742612037866 1.2446
  endloop
endfacet
facet normal 1.0 0.0 0.0
  outer loop
    vertex 101.40293687623901 79.93000424454384 1.5494000000000006
    vertex 101.40293687623901 83.41742612037866 1.5494000000000006
    vertex 101.40293687623901 80.17029885863006 2.2352000000000003
  endloop
endfacet
facet normal 1.0 0.0 0.0
  outer loop
    vertex 101.40293687623901 83.41742612037866 2.2352000000000003
    vertex 101.40293687623901 80.17029885863006 2.2352000000000003
    vertex 101.40293687623901 83.41742612037866 1.5494000000000006
  endloop
endfacet
facet normal -1.0 0.0 0.0
  outer loop
    vertex 99.95513687623901 79.5014328159724 1.5494000000000006
    vertex 99.95513687623901 79.97787903355717 2.2352000000000003
    vertex 99.95513687623901 83.41742612037866 1.5494000000000006
  endloop
endfacet
facet normal -1.0 0.0 0.0
  outer loop
    vertex 99.95513687623901 83.41742612037866 2.2352000000000003
    vertex 99.95513687623901 83.41742612037866 1.5494000000000006
    vertex 99.95513687623901 79.97787903355717 2.2352000000000003
  endloop
endfacet
facet normal -1.0 0.0 0.0
  outer loop
    vertex 102.495136876239 80.25331251522053 1.5494000000000006
    vertex 102.495136876239 80.31545767403593 2.2352000000000003
    vertex 102.495136876239 83.41742612037866 1.5494000000000006
  endloop
endfacet
facet normal -1.0 0.0 0.0
  outer loop
    vertex 102.495136876239 83.41742612037866 2.2352000000000003
    vertex 102.495136876239 83.41742612037866 1.5494000000000006
    vertex 102.495136876239 80.31545767403593 2.2352000000000003
  endloop
endfacet
facet normal -1.0 0.0 0.0
  outer loop
    vertex 97.415136876239 79.92165002566328 1.5494000000000003
    vertex 97.415136876239 80.25384957214855 2.2352000000000003
    vertex 97.415136876239 83.41742612037866 1.5494000000000006
  endloop
endfacet
facet normal -1.0 0.0 0.0
  outer loop
    vertex 97.415136876239 83.41742612037866 2.2352000000000003
    vertex 97.415136876239 83.41742612037866 1.5494000000000006
    vertex 97.415136876239 80.25384957214855 2.2352000000000003
  endloop
endfacet
facet normal 0.0 0.0 -1.0
  outer loop
    vertex 101.22513687623902 83.41742612037866 2.2352000000000003
    vertex 101.22513687623902 80.14666835379656 2.2352000000000003
    vertex 100.767936876239 83.41742612037866 2.2352000000000003
  endloop
endfacet
facet normal 0.0 0.0 -1.0
  outer loop
    vertex 100.767936876239 80.08590419851038 2.2352000000000003
    vertex 100.767936876239 83.41742612037866 2.2352000000000003
    vertex 101.22513687623902 80.14666835379656 2.2352000000000003
  endloop
endfacet
facet normal -1.0 0.0 0.0
  outer loop
    vertex 98.05013687623901 79.7364648404781 1.5494000000000006
    vertex 98.05013687623901 80.14160467418937 2.2352000000000003
    vertex 98.05013687623901 83.41742612037866 1.5494000000000006
  endloop
endfacet
facet normal -1.0 0.0 0.0
  outer loop
    vertex 98.05013687623901 83.41742612037866 2.2352000000000003
    vertex 98.05013687623901 83.41742612037866 1.5494000000000006
    vertex 98.05013687623901 80.14160467418937 2.2352000000000003
  endloop
endfacet
facet normal 1.0 0.0 0.0
  outer loop
    vertex 98.862936876239 79.49942780344107 1.5494000000000006
    vertex 98.862936876239 83.41742612037866 1.5494000000000006
    vertex 98.862936876239 79.9979312048016 2.2352000000000003
  endloop
endfacet
facet normal 1.0 0.0 0.0
  outer loop
    vertex 98.862936876239 83.41742612037866 2.2352000000000003
    vertex 98.862936876239 79.9979312048016 2.2352000000000003
    vertex 98.862936876239 83.41742612037866 1.5494000000000006
  endloop
endfacet
facet normal -1.0 9.001201080204487e-11 2.4211874408428493e-10
  outer loop
    vertex 99.9551368760418 79.50143273623574 1.244606714046796
    vertex 99.95513687623901 83.41742612037866 1.2446
    vertex 99.9551368757526 79.97787868046484 0.558810544713347
  endloop
endfacet
facet normal -1.0 9.001201080204487e-11 2.4211874408428493e-10
  outer loop
    vertex 99.95513687623901 83.41742612037866 0.5588
    vertex 99.9551368757526 79.97787868046484 0.558810544713347
    vertex 99.95513687623901 83.41742612037866 1.2446
  endloop
endfacet
facet normal 0.9999999999880111 1.0176774149543004e-06 -4.78982620676928e-06
  outer loop
    vertex 98.8629439315768 79.49942368834174 1.2433300391963211
    vertex 98.862936876239 79.97697882384922 0.5588000000000001
    vertex 98.862936876239 83.41742612037866 1.2446
  endloop
endfacet
facet normal 0.9999999999880111 1.0176774149543004e-06 -4.78982620676928e-06
  outer loop
    vertex 98.862936876239 83.41742612037866 0.5588
    vertex 98.862936876239 83.41742612037866 1.2446
    vertex 98.862936876239 79.97697882384922 0.5588000000000001
  endloop
endfacet
facet normal 0.0 0.0 1.0
  outer loop
    vertex 98.685136876239 79.55127965529292 1.5494000000000006
    vertex 98.685136876239 83.41742612037866 1.5494000000000006
    vertex 98.227936876239 79.68461298862626 1.5494000000000006
  endloop
endfacet
facet normal 0.0 0.0 1.0
  outer loop
    vertex 98.227936876239 83.41742612037866 1.5494000000000006
    vertex 98.227936876239 79.68461298862626 1.5494000000000006
    vertex 98.685136876239 83.41742612037866 1.5494000000000006
  endloop
endfacet
facet normal -9.492980802498657e-17 2.878472503602462e-17 1.0
  outer loop
    vertex 96.780136876239 80.10683521084847 1.5494000000000003
    vertex 96.780136876239 83.41742612037866 1.5494
    vertex 95.89113687623902 80.36609447010774 1.5494
  endloop
endfacet
facet normal -9.492980802498657e-17 2.878472503602462e-17 1.0
  outer loop
    vertex 95.89113687623902 83.41742612037866 1.5494
    vertex 95.89113687623902 80.36609447010774 1.5494
    vertex 96.780136876239 83.41742612037866 1.5494
  endloop
endfacet
facet normal 0.0 0.0 1.0
  outer loop
    vertex 101.22513687623902 79.87737266559645 1.5494000000000006
    vertex 101.22513687623902 83.41742612037866 1.5494000000000006
    vertex 100.767936876239 79.74203431973179 1.5494000000000006
  endloop
endfacet
facet normal 0.0 0.0 1.0
  outer loop
    vertex 100.767936876239 83.41742612037866 1.5494000000000006
    vertex 100.767936876239 79.74203431973179 1.5494000000000006
    vertex 101.22513687623902 83.41742612037866 1.5494000000000006
  endloop
endfacet
facet normal 1.0 0.0 0.0
  outer loop
    vertex 97.592936876239 79.86979817381145 1.5494000000000003
    vertex 97.592936876239 83.41742612037866 1.5494000000000006
    vertex 97.592936876239 80.22242100071998 2.2352000000000003
  endloop
endfacet
facet normal 1.0 0.0 0.0
  outer loop
    vertex 97.592936876239 83.41742612037866 2.2352000000000003
    vertex 97.592936876239 80.22242100071998 2.2352000000000003
    vertex 97.592936876239 83.41742612037866 1.5494000000000006
  endloop
endfacet
facet normal 0.0 0.0 -1.0
  outer loop
    vertex 97.415136876239 83.41742612037866 2.2352000000000003
    vertex 97.415136876239 80.25384957214855 2.2352000000000003
    vertex 96.957936876239 83.41742612037866 2.2352000000000003
  endloop
endfacet
facet normal 0.0 0.0 -1.0
  outer loop
    vertex 96.957936876239 80.33466589867916 2.2352000000000003
    vertex 96.957936876239 83.41742612037866 2.2352000000000003
    vertex 97.415136876239 80.25384957214855 2.2352000000000003
  endloop
endfacet
facet normal 0.9999999999574432 1.9427500478388726e-06 -9.01883789911552e-06
  outer loop
    vertex 98.2279499750928 79.68460202789704 1.2425534775212168
    vertex 98.227936876239 80.06012319270789 0.5588
    vertex 98.227936876239 83.41742612037866 1.2446
  endloop
endfacet
facet normal 0.9999999999574432 1.9427500478388726e-06 -9.01883789911552e-06
  outer loop
    vertex 98.227936876239 83.41742612037866 0.5588
    vertex 98.227936876239 83.41742612037866 1.2446
    vertex 98.227936876239 80.06012319270789 0.5588
  endloop
endfacet
facet normal -1.163191711985522e-05 1.5060227444893288e-06 0.9999999999312152
  outer loop
    vertex 99.95513687623901 83.41742612037866 0.5588
    vertex 99.497936876239 83.41742612037866 0.5588
    vertex 99.9551368757526 79.97787868046484 0.558810544713347
  endloop
endfacet
facet normal -1.163191711985522e-05 1.5060227444893288e-06 0.9999999999312152
  outer loop
    vertex 99.497936876239 79.917114878271 0.5588000000000001
    vertex 99.9551368757526 79.97787868046484 0.558810544713347
    vertex 99.497936876239 83.41742612037866 0.5588
  endloop
endfacet
facet normal -1.0 0.0 0.0
  outer loop
    vertex 101.22513687623902 79.87737266559645 1.5494000000000006
    vertex 101.22513687623902 80.14666835379656 2.2352000000000003
    vertex 101.22513687623902 83.41742612037866 1.5494000000000006
  endloop
endfacet
facet normal -1.0 0.0 0.0
  outer loop
    vertex 101.22513687623902 83.41742612037866 2.2352000000000003
    vertex 101.22513687623902 83.41742612037866 1.5494000000000006
    vertex 101.22513687623902 80.14666835379656 2.2352000000000003
  endloop
endfacet
endsolid Bottom v11
