solid Untitled-5be4997d
facet normal 0.0 -1.0 0.0
  outer loop
    vertex 13.631788580873696 18.449019027820356 9.999999999999998
    vertex 11.42259858087371 18.449019027820356 6.500000000000001
    vertex 13.631788580873696 18.449019027820356 6.500000000000001
  endloop
endfacet
facet normal 0.0 -1.0 0.0
  outer loop
    vertex 11.42259858087371 18.449019027820356 6.500000000000001
    vertex 13.631788580873696 18.449019027820356 9.999999999999998
    vertex 11.42259858087371 18.449019027820356 9.999999999999998
  endloop
endfacet
facet normal 3.5143559773320366e-33 -0.06549902711775071 0.9978526331310794
  outer loop
    vertex 19.448335824743083 12.601421157614894 1.3036291529791098
    vertex 2.6483358247430253 13.044257233252953 1.3326969042320398
    vertex 2.6483358247430253 12.601421157614894 1.3036291529791098
  endloop
endfacet
facet normal 3.5143559773320366e-33 -0.06549902711775071 0.9978526331310794
  outer loop
    vertex 2.6483358247430253 13.044257233252953 1.3326969042320398
    vertex 19.448335824743083 12.601421157614894 1.3036291529791098
    vertex 19.448335824743083 13.044257233252953 1.3326969042320398
  endloop
endfacet
facet normal 1.0 -0.0 -0.0
  outer loop
    vertex 19.448335824743083 9.140537516390035 6.500000000000001
    vertex 19.448335824743083 11.960406151840075 4.524611393887088
    vertex 19.448335824743083 16.345173859489638 6.500000000000001
  endloop
endfacet
facet normal 1.0 -0.0 -0.0
  outer loop
    vertex 19.448335824743083 11.960406151840075 4.524611393887088
    vertex 19.448335824743083 9.140537516390035 6.500000000000001
    vertex 19.448335824743083 11.591432736251026 4.278019945052266
  endloop
endfacet
facet normal 1.0 -0.0 -0.0
  outer loop
    vertex 19.448335824743083 11.591432736251026 4.278019945052266
    vertex 19.448335824743083 9.140537516390035 6.500000000000001
    vertex 19.448335824743083 11.298854348238335 3.944333548989952
  endloop
endfacet
facet normal 1.0 -0.0 -0.0
  outer loop
    vertex 19.448335824743083 11.298854348238335 3.944333548989952
    vertex 19.448335824743083 9.140537516390035 6.500000000000001
    vertex 19.448335824743083 11.10260972143565 3.5462923821489483
  endloop
endfacet
facet normal 1.0 -0.0 -0.0
  outer loop
    vertex 19.448335824743083 11.10260972143565 3.5462923821489483
    vertex 19.448335824743083 9.140537516390035 6.500000000000001
    vertex 19.448335824743083 11.016072602849752 3.111022292255341
  endloop
endfacet
facet normal 1.0 -0.0 -0.0
  outer loop
    vertex 19.448335824743083 16.345173859489638 6.500000000000001
    vertex 19.448335824743083 11.960406151840075 4.524611393887088
    vertex 19.448335824743083 12.380629666488032 4.667303095767961
  endloop
endfacet
facet normal 1.0 -0.0 -0.0
  outer loop
    vertex 19.448335824743083 16.345173859489638 6.500000000000001
    vertex 19.448335824743083 12.380629666488032 4.667303095767961
    vertex 19.448335824743083 12.82346574212609 4.696370847020892
  endloop
endfacet
facet normal 1.0 -0.0 -0.0
  outer loop
    vertex 19.448335824743083 16.345173859489638 6.500000000000001
    vertex 19.448335824743083 12.82346574212609 4.696370847020892
    vertex 19.448335824743083 13.25873583202022 4.6098337284347215
  endloop
endfacet
facet normal 1.0 -0.0 -0.0
  outer loop
    vertex 19.448335824743083 16.345173859489638 6.500000000000001
    vertex 19.448335824743083 13.25873583202022 4.6098337284347215
    vertex 19.448335824743083 13.656776998860815 4.4135891016317474
  endloop
endfacet
facet normal 1.0 -0.0 -0.0
  outer loop
    vertex 19.448335824743083 16.345173859489638 6.500000000000001
    vertex 19.448335824743083 13.656776998860815 4.4135891016317474
    vertex 19.448335824743083 13.990463394922873 4.121010713619014
  endloop
endfacet
facet normal 1.0 -0.0 -0.0
  outer loop
    vertex 19.448335824743083 16.345173859489638 6.500000000000001
    vertex 19.448335824743083 13.990463394922873 4.121010713619014
    vertex 19.448335824743083 14.237054843758248 3.7520372980309413
  endloop
endfacet
facet normal 1.0 -0.0 -0.0
  outer loop
    vertex 19.448335824743083 16.345173859489638 6.500000000000001
    vertex 19.448335824743083 14.237054843758248 3.7520372980309413
    vertex 19.448335824743083 14.379746545638241 3.3318137833824553
  endloop
endfacet
facet normal 1.0 -0.0 -0.0
  outer loop
    vertex 19.448335824743083 16.345173859489638 6.500000000000001
    vertex 19.448335824743083 14.379746545638241 3.3318137833824553
    vertex 19.448335824743083 14.408814296891231 2.8889777077446603
  endloop
endfacet
facet normal 1.0 -0.0 -0.0
  outer loop
    vertex 19.448335824743083 17.012443449870958 0.23849000000000053
    vertex 19.448335824743083 8.412443449870025 0.5000000000000004
    vertex 19.448335824743083 8.412443449870025 0.23849000000000053
  endloop
endfacet
facet normal 1.0 -0.0 -0.0
  outer loop
    vertex 19.448335824743083 8.412443449870025 0.5000000000000004
    vertex 19.448335824743083 17.012443449870958 0.23849000000000053
    vertex 19.448335824743083 12.16615106772221 1.3901662715652807
  endloop
endfacet
facet normal 1.0 -0.0 -0.0
  outer loop
    vertex 19.448335824743083 8.412443449870025 0.5000000000000004
    vertex 19.448335824743083 12.16615106772221 1.3901662715652807
    vertex 19.448335824743083 11.768109900880168 1.5864108983682539
  endloop
endfacet
facet normal 1.0 -0.0 -0.0
  outer loop
    vertex 19.448335824743083 8.412443449870025 0.5000000000000004
    vertex 19.448335824743083 11.768109900880168 1.5864108983682539
    vertex 19.448335824743083 11.434423504818112 1.8789892863809876
  endloop
endfacet
facet normal 1.0 -0.0 -0.0
  outer loop
    vertex 19.448335824743083 8.412443449870025 0.5000000000000004
    vertex 19.448335824743083 11.434423504818112 1.8789892863809876
    vertex 19.448335824743083 8.47046045819367 4.501684405237856
  endloop
endfacet
facet normal 1.0 -0.0 -0.0
  outer loop
    vertex 19.448335824743083 8.47046045819367 4.501684405237856
    vertex 19.448335824743083 11.434423504818112 1.8789892863809876
    vertex 19.448335824743083 11.18783205598418 2.247962701969061
  endloop
endfacet
facet normal 1.0 -0.0 -0.0
  outer loop
    vertex 19.448335824743083 8.47046045819367 4.501684405237856
    vertex 19.448335824743083 11.18783205598418 2.247962701969061
    vertex 19.448335824743083 9.140537516390035 6.500000000000001
  endloop
endfacet
facet normal 1.0 -0.0 -0.0
  outer loop
    vertex 19.448335824743083 9.140537516390035 6.500000000000001
    vertex 19.448335824743083 11.18783205598418 2.247962701969061
    vertex 19.448335824743083 11.045140354102742 2.668186216617546
  endloop
endfacet
facet normal 1.0 -0.0 -0.0
  outer loop
    vertex 19.448335824743083 9.140537516390035 6.500000000000001
    vertex 19.448335824743083 11.045140354102742 2.668186216617546
    vertex 19.448335824743083 11.016072602849752 3.111022292255341
  endloop
endfacet
facet normal 1.0 -0.0 -0.0
  outer loop
    vertex 19.448335824743083 12.16615106772221 1.3901662715652807
    vertex 19.448335824743083 17.012443449870958 0.23849000000000053
    vertex 19.448335824743083 12.601421157614894 1.3036291529791098
  endloop
endfacet
facet normal 1.0 -0.0 -0.0
  outer loop
    vertex 19.448335824743083 12.601421157614894 1.3036291529791098
    vertex 19.448335824743083 17.012443449870958 0.23849000000000053
    vertex 19.448335824743083 13.044257233252953 1.3326969042320398
  endloop
endfacet
facet normal 1.0 -0.0 -0.0
  outer loop
    vertex 19.448335824743083 13.044257233252953 1.3326969042320398
    vertex 19.448335824743083 17.012443449870958 0.23849000000000053
    vertex 19.448335824743083 13.464480747900907 1.4753886061129127
  endloop
endfacet
facet normal 1.0 -0.0 -0.0
  outer loop
    vertex 19.448335824743083 13.464480747900907 1.4753886061129127
    vertex 19.448335824743083 17.012443449870958 0.23849000000000053
    vertex 19.448335824743083 13.833454163489959 1.7219800549477349
  endloop
endfacet
facet normal 1.0 -0.0 -0.0
  outer loop
    vertex 19.448335824743083 13.833454163489959 1.7219800549477349
    vertex 19.448335824743083 17.012443449870958 0.23849000000000053
    vertex 19.448335824743083 14.12603255150265 2.0556664510100493
  endloop
endfacet
facet normal 1.0 -0.0 -0.0
  outer loop
    vertex 19.448335824743083 14.12603255150265 2.0556664510100493
    vertex 19.448335824743083 17.012443449870958 0.23849000000000053
    vertex 19.448335824743083 14.322277178305333 2.4537076178510535
  endloop
endfacet
facet normal 1.0 -0.0 -0.0
  outer loop
    vertex 19.448335824743083 14.322277178305333 2.4537076178510535
    vertex 19.448335824743083 17.012443449870958 0.23849000000000053
    vertex 19.448335824743083 14.408814296891231 2.8889777077446603
  endloop
endfacet
facet normal 1.0 -0.0 -0.0
  outer loop
    vertex 19.448335824743083 14.408814296891231 2.8889777077446603
    vertex 19.448335824743083 17.012443449870958 0.23849000000000053
    vertex 19.448335824743083 16.345173859489638 6.500000000000001
  endloop
endfacet
facet normal 1.0 -0.0 -0.0
  outer loop
    vertex 19.448335824743083 16.345173859489638 6.500000000000001
    vertex 19.448335824743083 17.012443449870958 0.23849000000000053
    vertex 19.448335824743083 16.345173859489638 9.999999999999998
  endloop
endfacet
facet normal 1.0 -0.0 -0.0
  outer loop
    vertex 19.448335824743083 16.345173859489638 9.999999999999998
    vertex 19.448335824743083 17.012443449870958 0.23849000000000053
    vertex 19.448335824743083 16.98115692372982 4.500489543185246
  endloop
endfacet
facet normal 1.0 -0.0 -0.0
  outer loop
    vertex 19.448335824743083 16.98115692372982 4.500489543185246
    vertex 19.448335824743083 17.012443449870958 0.23849000000000053
    vertex 19.448335824743083 17.012443449870958 0.5000000000000004
  endloop
endfacet
facet normal 1.0 -0.0 -0.0
  outer loop
    vertex 19.448335824743083 16.98115692372982 4.500489543185246
    vertex 19.448335824743083 21.562443449871367 9.999999999999998
    vertex 19.448335824743083 16.345173859489638 9.999999999999998
  endloop
endfacet
facet normal 1.0 -0.0 -0.0
  outer loop
    vertex 19.448335824743083 21.562443449871367 9.999999999999998
    vertex 19.448335824743083 16.98115692372982 4.500489543185246
    vertex 19.448335824743083 21.53115692373023 4.500489543185246
  endloop
endfacet
facet normal 1.0 -0.0 -0.0
  outer loop
    vertex 19.448335824743083 3.9204604581932623 4.501684405237856
    vertex 19.448335824743083 9.140537516390035 9.999999999999998
    vertex 19.448335824743083 3.8624434498710607 9.999999999999998
  endloop
endfacet
facet normal 1.0 -0.0 -0.0
  outer loop
    vertex 19.448335824743083 9.140537516390035 9.999999999999998
    vertex 19.448335824743083 3.9204604581932623 4.501684405237856
    vertex 19.448335824743083 8.47046045819367 4.501684405237856
  endloop
endfacet
facet normal 1.0 -0.0 -0.0
  outer loop
    vertex 19.448335824743083 9.140537516390035 9.999999999999998
    vertex 19.448335824743083 8.47046045819367 4.501684405237856
    vertex 19.448335824743083 9.140537516390035 6.500000000000001
  endloop
endfacet
facet normal -0.999944284451762 0.010555945824688514 0.0
  outer loop
    vertex 13.57040730257559 9.140537516390035 9.999999999999998
    vertex 13.549219002047773 7.133410882556341 6.500000000000001
    vertex 13.549219002047773 7.133410882556341 9.999999999999998
  endloop
endfacet
facet normal -0.999944284451762 0.010555945824688514 0.0
  outer loop
    vertex 13.549219002047773 7.133410882556341 6.500000000000001
    vertex 13.57040730257559 9.140537516390035 9.999999999999998
    vertex 13.57040730257559 9.140537516390035 6.500000000000001
  endloop
endfacet
facet normal -0.0 0.89691524308386 -0.4422024951578414
  outer loop
    vertex 2.6483358247430253 11.298854348238335 3.944333548989952
    vertex 19.448335824743083 11.10260972143565 3.5462923821489483
    vertex 2.6483358247430253 11.10260972143565 3.5462923821489483
  endloop
endfacet
facet normal -0.0 0.89691524308386 -0.4422024951578414
  outer loop
    vertex 19.448335824743083 11.10260972143565 3.5462923821489483
    vertex 2.6483358247430253 11.298854348238335 3.944333548989952
    vertex 19.448335824743083 11.298854348238335 3.944333548989952
  endloop
endfacet
facet normal -1.5794313413805527e-33 0.4422024951574399 0.8969152430840577
  outer loop
    vertex 19.448335824743083 11.768109900880168 1.5864108983682539
    vertex 2.6483358247430253 12.16615106772221 1.3901662715652807
    vertex 2.6483358247430253 11.768109900880168 1.5864108983682539
  endloop
endfacet
facet normal -1.5794313413805527e-33 0.4422024951574399 0.8969152430840577
  outer loop
    vertex 2.6483358247430253 12.16615106772221 1.3901662715652807
    vertex 19.448335824743083 11.768109900880168 1.5864108983682539
    vertex 19.448335824743083 12.16615106772221 1.3901662715652807
  endloop
endfacet
facet normal -0.0 -0.0 1.0
  outer loop
    vertex 19.448335824743083 16.345173859489638 9.999999999999998
    vertex 13.631788580873696 18.449019027820356 9.999999999999998
    vertex 13.63040830257559 16.345173859489638 9.999999999999998
  endloop
endfacet
facet normal -0.0 -0.0 1.0
  outer loop
    vertex 2.8959933025756612 13.99848640636681 9.999999999999998
    vertex 2.648335824743113 21.562443449871367 9.999999999999998
    vertex 2.648335824743113 13.99848640636681 9.999999999999998
  endloop
endfacet
facet normal -0.0 -0.0 1.0
  outer loop
    vertex 2.648335824743113 21.562443449871367 9.999999999999998
    vertex 2.8959933025756612 13.99848640636681 9.999999999999998
    vertex 8.384800010174773 18.32801025911966 9.999999999999998
  endloop
endfacet
facet normal -0.0 -0.0 1.0
  outer loop
    vertex 2.648335824743113 21.562443449871367 9.999999999999998
    vertex 8.384800010174773 18.32801025911966 9.999999999999998
    vertex 19.448335824743083 21.562443449871367 9.999999999999998
  endloop
endfacet
facet normal -0.0 -0.0 1.0
  outer loop
    vertex 19.448335824743083 21.562443449871367 9.999999999999998
    vertex 8.384800010174773 18.32801025911966 9.999999999999998
    vertex 11.42259858087371 18.449019027820356 9.999999999999998
  endloop
endfacet
facet normal -0.0 -0.0 1.0
  outer loop
    vertex 11.42259858087371 18.449019027820356 9.999999999999998
    vertex 8.384800010174773 18.32801025911966 9.999999999999998
    vertex 11.415313464023924 18.33439210186954 9.999999999999998
  endloop
endfacet
facet normal -0.0 -0.0 1.0
  outer loop
    vertex 19.448335824743083 21.562443449871367 9.999999999999998
    vertex 11.42259858087371 18.449019027820356 9.999999999999998
    vertex 13.631788580873696 18.449019027820356 9.999999999999998
  endloop
endfacet
facet normal -0.0 -0.0 1.0
  outer loop
    vertex 19.448335824743083 21.562443449871367 9.999999999999998
    vertex 13.631788580873696 18.449019027820356 9.999999999999998
    vertex 19.448335824743083 16.345173859489638 9.999999999999998
  endloop
endfacet
facet normal -0.0 0.9999838182276372 -0.005688873603454392
  outer loop
    vertex 2.648335824743113 21.562443449871367 9.999999999999998
    vertex 19.448335824743083 21.53115692373023 4.500489543185246
    vertex 2.648335824743113 21.53115692373023 4.500489543185246
  endloop
endfacet
facet normal -0.0 0.9999838182276372 -0.005688873603454392
  outer loop
    vertex 19.448335824743083 21.53115692373023 4.500489543185246
    vertex 2.648335824743113 21.562443449871367 9.999999999999998
    vertex 19.448335824743083 21.562443449871367 9.999999999999998
  endloop
endfacet
facet normal 0.6193142550243121 -0.7851432057425458 1.87054552910006e-17
  outer loop
    vertex 8.384800010174773 18.32801025911966 9.999999999999998
    vertex 2.8959933025756612 13.99848640636681 6.500000000000002
    vertex 8.384800010174773 18.32801025911966 6.500000000000001
  endloop
endfacet
facet normal 0.6193142550243121 -0.7851432057425458 1.87054552910006e-17
  outer loop
    vertex 2.8959933025756612 13.99848640636681 6.500000000000002
    vertex 8.384800010174773 18.32801025911966 9.999999999999998
    vertex 2.8959933025756612 13.99848640636681 9.999999999999998
  endloop
endfacet
facet normal 6.908624325461161e-33 -0.19499606376991546 -0.9808040248256729
  outer loop
    vertex 19.448335824743083 13.25873583202022 4.6098337284347215
    vertex 2.6483358247430253 12.82346574212609 4.696370847020892
    vertex 2.6483358247430253 13.25873583202022 4.6098337284347215
  endloop
endfacet
facet normal 6.908624325461161e-33 -0.19499606376991546 -0.9808040248256729
  outer loop
    vertex 2.6483358247430253 12.82346574212609 4.696370847020892
    vertex 19.448335824743083 13.25873583202022 4.6098337284347215
    vertex 19.448335824743083 12.82346574212609 4.696370847020892
  endloop
endfacet
facet normal -4.1210475858752224e-19 -0.5556501379716923 0.8314162159664913
  outer loop
    vertex 19.448335824743083 13.464480747900907 1.4753886061129127
    vertex 2.6483358247430253 13.833454163489959 1.7219800549477349
    vertex 2.6483358247430253 13.464480747900907 1.4753886061129127
  endloop
endfacet
facet normal -4.1210475858752224e-19 -0.5556501379716923 0.8314162159664913
  outer loop
    vertex 2.6483358247430253 13.833454163489959 1.7219800549477349
    vertex 19.448335824743083 13.464480747900907 1.4753886061129127
    vertex 19.448335824743083 13.833454163489959 1.7219800549477349
  endloop
endfacet
facet normal 1.9330584186851113e-19 -0.9808040248257457 0.19499606376954937
  outer loop
    vertex 19.448335824743083 14.408814296891231 2.8889777077446603
    vertex 2.6483358247430253 14.322277178305333 2.4537076178510535
    vertex 19.448335824743083 14.322277178305333 2.4537076178510535
  endloop
endfacet
facet normal 1.9330584186851113e-19 -0.9808040248257457 0.19499606376954937
  outer loop
    vertex 2.6483358247430253 14.322277178305333 2.4537076178510535
    vertex 19.448335824743083 14.408814296891231 2.8889777077446603
    vertex 2.6483358247430253 14.408814296891231 2.8889777077446603
  endloop
endfacet
facet normal -0.0019145625626656678 0.9999981672234173 7.045563857088835e-21
  outer loop
    vertex 8.28758428793905 7.25710954124687 6.500000000000002
    vertex 11.382704813542368 7.263035353992819 9.999999999999998
    vertex 11.382704813542368 7.263035353992819 6.500000000000001
  endloop
endfacet
facet normal -0.0019145625626656678 0.9999981672234173 7.045563857088835e-21
  outer loop
    vertex 11.382704813542368 7.263035353992819 9.999999999999998
    vertex 8.28758428793905 7.25710954124687 6.500000000000002
    vertex 8.28758428793905 7.25710954124687 9.999999999999998
  endloop
endfacet
facet normal -0.0 1.0 -0.0
  outer loop
    vertex 2.648335824743113 11.689376516390498 9.999999999999998
    vertex 2.8959933025756612 11.689376516390498 6.500000000000002
    vertex 2.648335824743113 11.689376516390498 6.500000000000002
  endloop
endfacet
facet normal -0.0 1.0 -0.0
  outer loop
    vertex 2.8959933025756612 11.689376516390498 6.500000000000002
    vertex 2.648335824743113 11.689376516390498 9.999999999999998
    vertex 2.8959933025756612 11.689376516390498 9.999999999999998
  endloop
endfacet
facet normal -0.0 1.0 -0.0
  outer loop
    vertex 11.394771002047781 7.133410882556341 9.999999999999998
    vertex 13.549219002047773 7.133410882556341 6.500000000000001
    vertex 11.394771002047781 7.133410882556341 6.500000000000001
  endloop
endfacet
facet normal -0.0 1.0 -0.0
  outer loop
    vertex 13.549219002047773 7.133410882556341 6.500000000000001
    vertex 11.394771002047781 7.133410882556341 9.999999999999998
    vertex 13.549219002047773 7.133410882556341 9.999999999999998
  endloop
endfacet
facet normal 0.00210585720752553 -0.9999977826802526 3.417596075826896e-34
  outer loop
    vertex 11.415313464023924 18.33439210186954 9.999999999999998
    vertex 8.384800010174773 18.32801025911966 6.500000000000001
    vertex 11.415313464023924 18.33439210186954 6.500000000000001
  endloop
endfacet
facet normal 0.00210585720752553 -0.9999977826802526 3.417596075826896e-34
  outer loop
    vertex 8.384800010174773 18.32801025911966 6.500000000000001
    vertex 11.415313464023924 18.33439210186954 9.999999999999998
    vertex 8.384800010174773 18.32801025911966 9.999999999999998
  endloop
endfacet
facet normal -0.0 -0.0 1.0
  outer loop
    vertex 2.8959933025756612 11.689376516390498 6.500000000000002
    vertex 2.648335824743113 13.99848640636681 6.500000000000002
    vertex 2.648335824743113 11.689376516390498 6.500000000000002
  endloop
endfacet
facet normal -0.0 -0.0 1.0
  outer loop
    vertex 2.648335824743113 13.99848640636681 6.500000000000002
    vertex 2.8959933025756612 11.689376516390498 6.500000000000002
    vertex 2.8959933025756612 13.99848640636681 6.500000000000002
  endloop
endfacet
facet normal 0.0 0.5556501379716919 -0.8314162159664916
  outer loop
    vertex 19.448335824743083 11.960406151840075 4.524611393887088
    vertex 2.6483358247430253 11.591432736251026 4.278019945052266
    vertex 2.6483358247430253 11.960406151840075 4.524611393887088
  endloop
endfacet
facet normal 0.0 0.5556501379716919 -0.8314162159664916
  outer loop
    vertex 2.6483358247430253 11.591432736251026 4.278019945052266
    vertex 19.448335824743083 11.960406151840075 4.524611393887088
    vertex 19.448335824743083 11.591432736251026 4.278019945052266
  endloop
endfacet
facet normal 0.9956954772204464 0.09268504001589405 -1.7767166564600247e-19
  outer loop
    vertex 11.382704813542368 7.263035353992819 6.500000000000001
    vertex 11.394771002047781 7.133410882556341 9.999999999999998
    vertex 11.394771002047781 7.133410882556341 6.500000000000001
  endloop
endfacet
facet normal 0.9956954772204464 0.09268504001589405 -1.7767166564600247e-19
  outer loop
    vertex 11.394771002047781 7.133410882556341 9.999999999999998
    vertex 11.382704813542368 7.263035353992819 6.500000000000001
    vertex 11.382704813542368 7.263035353992819 9.999999999999998
  endloop
endfacet
facet normal 1.6674511199129362e-33 -0.32153046755026465 0.9468992335179642
  outer loop
    vertex 19.448335824743083 13.044257233252953 1.3326969042320398
    vertex 2.6483358247430253 13.464480747900907 1.4753886061129127
    vertex 2.6483358247430253 13.044257233252953 1.3326969042320398
  endloop
endfacet
facet normal 1.6674511199129362e-33 -0.32153046755026465 0.9468992335179642
  outer loop
    vertex 2.6483358247430253 13.464480747900907 1.4753886061129127
    vertex 19.448335824743083 13.044257233252953 1.3326969042320398
    vertex 19.448335824743083 13.464480747900907 1.4753886061129127
  endloop
endfacet
facet normal 0.0 -1.0 0.0
  outer loop
    vertex 2.8959933025756612 13.99848640636681 9.999999999999998
    vertex 2.648335824743113 13.99848640636681 6.500000000000002
    vertex 2.8959933025756612 13.99848640636681 6.500000000000002
  endloop
endfacet
facet normal 0.0 -1.0 0.0
  outer loop
    vertex 2.648335824743113 13.99848640636681 6.500000000000002
    vertex 2.8959933025756612 13.99848640636681 9.999999999999998
    vertex 2.648335824743113 13.99848640636681 9.999999999999998
  endloop
endfacet
facet normal 1.9330584186851221e-19 0.9808040248257457 -0.19499606376954903
  outer loop
    vertex 2.6483358247430253 11.10260972143565 3.5462923821489483
    vertex 19.448335824743083 11.016072602849752 3.111022292255341
    vertex 2.6483358247430253 11.016072602849752 3.111022292255341
  endloop
endfacet
facet normal 1.9330584186851221e-19 0.9808040248257457 -0.19499606376954903
  outer loop
    vertex 19.448335824743083 11.016072602849752 3.111022292255341
    vertex 2.6483358247430253 11.10260972143565 3.5462923821489483
    vertex 19.448335824743083 11.10260972143565 3.5462923821489483
  endloop
endfacet
facet normal 6.669804479651745e-33 0.32153046755026504 -0.9468992335179642
  outer loop
    vertex 19.448335824743083 12.380629666488032 4.667303095767961
    vertex 2.6483358247430253 11.960406151840075 4.524611393887088
    vertex 2.6483358247430253 12.380629666488032 4.667303095767961
  endloop
endfacet
facet normal 6.669804479651745e-33 0.32153046755026504 -0.9468992335179642
  outer loop
    vertex 2.6483358247430253 11.960406151840075 4.524611393887088
    vertex 19.448335824743083 12.380629666488032 4.667303095767961
    vertex 19.448335824743083 11.960406151840075 4.524611393887088
  endloop
endfacet
facet normal -5.508337739180041e-19 -0.8314162159652361 -0.5556501379735709
  outer loop
    vertex 19.448335824743083 13.990463394922873 4.121010713619014
    vertex 2.6483358247430253 14.237054843758248 3.7520372980309413
    vertex 19.448335824743083 14.237054843758248 3.7520372980309413
  endloop
endfacet
facet normal -5.508337739180041e-19 -0.8314162159652361 -0.5556501379735709
  outer loop
    vertex 2.6483358247430253 14.237054843758248 3.7520372980309413
    vertex 19.448335824743083 13.990463394922873 4.121010713619014
    vertex 2.6483358247430253 13.990463394922873 4.121010713619014
  endloop
endfacet
facet normal -1.0 0.0 0.0
  outer loop
    vertex 2.648335824743113 21.562443449871367 9.999999999999998
    vertex 2.648335824743113 13.99848640636681 6.500000000000002
    vertex 2.648335824743113 13.99848640636681 9.999999999999998
  endloop
endfacet
facet normal -1.0 0.0 0.0
  outer loop
    vertex 2.648335824743113 13.99848640636681 6.500000000000002
    vertex 2.648335824743113 21.562443449871367 9.999999999999998
    vertex 2.6483358247430253 14.237054843758248 3.7520372980309413
  endloop
endfacet
facet normal -1.0 0.0 0.0
  outer loop
    vertex 2.6483358247430253 14.237054843758248 3.7520372980309413
    vertex 2.648335824743113 21.562443449871367 9.999999999999998
    vertex 2.6483358247430253 14.379746545638241 3.3318137833824553
  endloop
endfacet
facet normal -1.0 0.0 0.0
  outer loop
    vertex 2.6483358247430253 14.379746545638241 3.3318137833824553
    vertex 2.648335824743113 21.562443449871367 9.999999999999998
    vertex 2.6483358247430253 14.408814296891231 2.8889777077446603
  endloop
endfacet
facet normal -1.0 0.0 0.0
  outer loop
    vertex 2.6483358247430253 14.408814296891231 2.8889777077446603
    vertex 2.648335824743113 21.562443449871367 9.999999999999998
    vertex 2.648335824743113 16.98115692372982 4.500489543185246
  endloop
endfacet
facet normal -1.0 0.0 0.0
  outer loop
    vertex 2.648335824743113 16.98115692372982 4.500489543185246
    vertex 2.648335824743113 21.562443449871367 9.999999999999998
    vertex 2.648335824743113 21.53115692373023 4.500489543185246
  endloop
endfacet
facet normal -1.0 0.0 0.0
  outer loop
    vertex 2.648335824743113 8.47046045819367 4.501684405237856
    vertex 2.648335824743113 8.412443449870025 0.23849000000000053
    vertex 2.648335824743113 8.412443449870025 0.5000000000000004
  endloop
endfacet
facet normal -1.0 0.0 0.0
  outer loop
    vertex 2.648335824743113 8.412443449870025 0.23849000000000053
    vertex 2.648335824743113 8.47046045819367 4.501684405237856
    vertex 2.6483358247430253 11.434423504818112 1.8789892863809876
  endloop
endfacet
facet normal -1.0 0.0 0.0
  outer loop
    vertex 2.648335824743113 8.412443449870025 0.23849000000000053
    vertex 2.6483358247430253 11.434423504818112 1.8789892863809876
    vertex 2.6483358247430253 11.768109900880168 1.5864108983682539
  endloop
endfacet
facet normal -1.0 0.0 0.0
  outer loop
    vertex 2.648335824743113 8.412443449870025 0.23849000000000053
    vertex 2.6483358247430253 11.768109900880168 1.5864108983682539
    vertex 2.6483358247430253 12.16615106772221 1.3901662715652807
  endloop
endfacet
facet normal -1.0 0.0 0.0
  outer loop
    vertex 2.648335824743113 8.412443449870025 0.23849000000000053
    vertex 2.6483358247430253 12.16615106772221 1.3901662715652807
    vertex 2.648335824743113 17.012443449870958 0.23849000000000053
  endloop
endfacet
facet normal -1.0 0.0 0.0
  outer loop
    vertex 2.6483358247430253 11.434423504818112 1.8789892863809876
    vertex 2.648335824743113 8.47046045819367 4.501684405237856
    vertex 2.6483358247430253 11.18783205598418 2.247962701969061
  endloop
endfacet
facet normal -1.0 0.0 0.0
  outer loop
    vertex 2.6483358247430253 11.18783205598418 2.247962701969061
    vertex 2.648335824743113 8.47046045819367 4.501684405237856
    vertex 2.6483358247430253 11.045140354102742 2.668186216617546
  endloop
endfacet
facet normal -1.0 0.0 0.0
  outer loop
    vertex 2.6483358247430253 11.045140354102742 2.668186216617546
    vertex 2.648335824743113 8.47046045819367 4.501684405237856
    vertex 2.6483358247430253 11.016072602849752 3.111022292255341
  endloop
endfacet
facet normal -1.0 0.0 0.0
  outer loop
    vertex 2.648335824743113 17.012443449870958 0.23849000000000053
    vertex 2.6483358247430253 12.16615106772221 1.3901662715652807
    vertex 2.6483358247430253 12.601421157614894 1.3036291529791098
  endloop
endfacet
facet normal -1.0 0.0 0.0
  outer loop
    vertex 2.648335824743113 17.012443449870958 0.23849000000000053
    vertex 2.6483358247430253 12.601421157614894 1.3036291529791098
    vertex 2.6483358247430253 13.044257233252953 1.3326969042320398
  endloop
endfacet
facet normal -1.0 0.0 0.0
  outer loop
    vertex 2.648335824743113 17.012443449870958 0.23849000000000053
    vertex 2.6483358247430253 13.044257233252953 1.3326969042320398
    vertex 2.6483358247430253 13.464480747900907 1.4753886061129127
  endloop
endfacet
facet normal -1.0 0.0 0.0
  outer loop
    vertex 2.648335824743113 17.012443449870958 0.23849000000000053
    vertex 2.6483358247430253 13.464480747900907 1.4753886061129127
    vertex 2.6483358247430253 13.833454163489959 1.7219800549477349
  endloop
endfacet
facet normal -1.0 0.0 0.0
  outer loop
    vertex 2.648335824743113 17.012443449870958 0.23849000000000053
    vertex 2.6483358247430253 13.833454163489959 1.7219800549477349
    vertex 2.6483358247430253 14.12603255150265 2.0556664510100493
  endloop
endfacet
facet normal -1.0 0.0 0.0
  outer loop
    vertex 2.648335824743113 17.012443449870958 0.23849000000000053
    vertex 2.6483358247430253 14.12603255150265 2.0556664510100493
    vertex 2.6483358247430253 14.322277178305333 2.4537076178510535
  endloop
endfacet
facet normal -1.0 0.0 0.0
  outer loop
    vertex 2.648335824743113 17.012443449870958 0.23849000000000053
    vertex 2.6483358247430253 14.322277178305333 2.4537076178510535
    vertex 2.6483358247430253 14.408814296891231 2.8889777077446603
  endloop
endfacet
facet normal -1.0 0.0 0.0
  outer loop
    vertex 2.648335824743113 17.012443449870958 0.23849000000000053
    vertex 2.6483358247430253 14.408814296891231 2.8889777077446603
    vertex 2.648335824743113 16.98115692372982 4.500489543185246
  endloop
endfacet
facet normal -1.0 0.0 0.0
  outer loop
    vertex 2.648335824743113 17.012443449870958 0.23849000000000053
    vertex 2.648335824743113 16.98115692372982 4.500489543185246
    vertex 2.648335824743113 17.012443449870958 0.5000000000000004
  endloop
endfacet
facet normal -1.0 0.0 0.0
  outer loop
    vertex 2.648335824743113 11.689376516390498 9.999999999999998
    vertex 2.648335824743113 3.9204604581932623 4.501684405237856
    vertex 2.648335824743113 3.8624434498710607 9.999999999999998
  endloop
endfacet
facet normal -1.0 0.0 0.0
  outer loop
    vertex 2.648335824743113 3.9204604581932623 4.501684405237856
    vertex 2.648335824743113 11.689376516390498 9.999999999999998
    vertex 2.648335824743113 8.47046045819367 4.501684405237856
  endloop
endfacet
facet normal -1.0 0.0 0.0
  outer loop
    vertex 2.648335824743113 8.47046045819367 4.501684405237856
    vertex 2.648335824743113 11.689376516390498 9.999999999999998
    vertex 2.6483358247430253 11.016072602849752 3.111022292255341
  endloop
endfacet
facet normal -1.0 0.0 0.0
  outer loop
    vertex 2.6483358247430253 11.016072602849752 3.111022292255341
    vertex 2.648335824743113 11.689376516390498 9.999999999999998
    vertex 2.6483358247430253 11.10260972143565 3.5462923821489483
  endloop
endfacet
facet normal -1.0 0.0 0.0
  outer loop
    vertex 2.6483358247430253 11.10260972143565 3.5462923821489483
    vertex 2.648335824743113 11.689376516390498 9.999999999999998
    vertex 2.6483358247430253 11.298854348238335 3.944333548989952
  endloop
endfacet
facet normal -1.0 0.0 0.0
  outer loop
    vertex 2.6483358247430253 11.298854348238335 3.944333548989952
    vertex 2.648335824743113 11.689376516390498 9.999999999999998
    vertex 2.6483358247430253 11.591432736251026 4.278019945052266
  endloop
endfacet
facet normal -1.0 0.0 0.0
  outer loop
    vertex 2.6483358247430253 11.591432736251026 4.278019945052266
    vertex 2.648335824743113 11.689376516390498 9.999999999999998
    vertex 2.648335824743113 11.689376516390498 6.500000000000002
  endloop
endfacet
facet normal -1.0 0.0 0.0
  outer loop
    vertex 2.6483358247430253 11.591432736251026 4.278019945052266
    vertex 2.648335824743113 11.689376516390498 6.500000000000002
    vertex 2.6483358247430253 11.960406151840075 4.524611393887088
  endloop
endfacet
facet normal -1.0 0.0 0.0
  outer loop
    vertex 2.6483358247430253 11.960406151840075 4.524611393887088
    vertex 2.648335824743113 11.689376516390498 6.500000000000002
    vertex 2.648335824743113 13.99848640636681 6.500000000000002
  endloop
endfacet
facet normal -1.0 0.0 0.0
  outer loop
    vertex 2.6483358247430253 11.960406151840075 4.524611393887088
    vertex 2.648335824743113 13.99848640636681 6.500000000000002
    vertex 2.6483358247430253 12.380629666488032 4.667303095767961
  endloop
endfacet
facet normal -1.0 0.0 0.0
  outer loop
    vertex 2.6483358247430253 12.380629666488032 4.667303095767961
    vertex 2.648335824743113 13.99848640636681 6.500000000000002
    vertex 2.6483358247430253 12.82346574212609 4.696370847020892
  endloop
endfacet
facet normal -1.0 0.0 0.0
  outer loop
    vertex 2.6483358247430253 12.82346574212609 4.696370847020892
    vertex 2.648335824743113 13.99848640636681 6.500000000000002
    vertex 2.6483358247430253 13.25873583202022 4.6098337284347215
  endloop
endfacet
facet normal -1.0 0.0 0.0
  outer loop
    vertex 2.6483358247430253 13.25873583202022 4.6098337284347215
    vertex 2.648335824743113 13.99848640636681 6.500000000000002
    vertex 2.6483358247430253 13.656776998860815 4.4135891016317474
  endloop
endfacet
facet normal -1.0 0.0 0.0
  outer loop
    vertex 2.6483358247430253 13.656776998860815 4.4135891016317474
    vertex 2.648335824743113 13.99848640636681 6.500000000000002
    vertex 2.6483358247430253 13.990463394922873 4.121010713619014
  endloop
endfacet
facet normal -1.0 0.0 0.0
  outer loop
    vertex 2.6483358247430253 13.990463394922873 4.121010713619014
    vertex 2.648335824743113 13.99848640636681 6.500000000000002
    vertex 2.6483358247430253 14.237054843758248 3.7520372980309413
  endloop
endfacet
facet normal -0.0 0.6592735572760137 0.751903169747695
  outer loop
    vertex 19.448335824743083 11.434423504818112 1.8789892863809876
    vertex 2.6483358247430253 11.768109900880168 1.5864108983682539
    vertex 2.6483358247430253 11.434423504818112 1.8789892863809876
  endloop
endfacet
facet normal -0.0 0.6592735572760137 0.751903169747695
  outer loop
    vertex 2.6483358247430253 11.768109900880168 1.5864108983682539
    vertex 19.448335824743083 11.434423504818112 1.8789892863809876
    vertex 19.448335824743083 11.768109900880168 1.5864108983682539
  endloop
endfacet
facet normal 0.0 -1.0 0.0
  outer loop
    vertex 19.448335824743083 16.345173859489638 9.999999999999998
    vertex 13.63040830257559 16.345173859489638 6.500000000000001
    vertex 19.448335824743083 16.345173859489638 6.500000000000001
  endloop
endfacet
facet normal 0.0 -1.0 0.0
  outer loop
    vertex 13.63040830257559 16.345173859489638 6.500000000000001
    vertex 19.448335824743083 16.345173859489638 9.999999999999998
    vertex 13.63040830257559 16.345173859489638 9.999999999999998
  endloop
endfacet
facet normal -0.9999997847834657 0.0006560739458511063 -3.2457996943862403e-31
  outer loop
    vertex 13.631788580873696 18.449019027820356 9.999999999999998
    vertex 13.63040830257559 16.345173859489638 6.500000000000001
    vertex 13.63040830257559 16.345173859489638 9.999999999999998
  endloop
endfacet
facet normal -0.9999997847834657 0.0006560739458511063 -3.2457996943862403e-31
  outer loop
    vertex 13.63040830257559 16.345173859489638 6.500000000000001
    vertex 13.631788580873696 18.449019027820356 9.999999999999998
    vertex 13.631788580873696 18.449019027820356 6.500000000000001
  endloop
endfacet
facet normal 0.0 0.0 -1.0
  outer loop
    vertex 19.448335824743083 8.47046045819367 4.501684405237856
    vertex 2.648335824743113 3.9204604581932623 4.501684405237856
    vertex 2.648335824743113 8.47046045819367 4.501684405237856
  endloop
endfacet
facet normal 0.0 0.0 -1.0
  outer loop
    vertex 2.648335824743113 3.9204604581932623 4.501684405237856
    vertex 19.448335824743083 8.47046045819367 4.501684405237856
    vertex 19.448335824743083 3.9204604581932623 4.501684405237856
  endloop
endfacet
facet normal -0.0 -0.0 1.0
  outer loop
    vertex 2.648335824743113 3.8624434498710607 9.999999999999998
    vertex 8.28758428793905 7.25710954124687 9.999999999999998
    vertex 2.648335824743113 11.689376516390498 9.999999999999998
  endloop
endfacet
facet normal -0.0 -0.0 1.0
  outer loop
    vertex 8.28758428793905 7.25710954124687 9.999999999999998
    vertex 2.648335824743113 3.8624434498710607 9.999999999999998
    vertex 19.448335824743083 3.8624434498710607 9.999999999999998
  endloop
endfacet
facet normal -0.0 -0.0 1.0
  outer loop
    vertex 2.648335824743113 11.689376516390498 9.999999999999998
    vertex 8.28758428793905 7.25710954124687 9.999999999999998
    vertex 2.8959933025756612 11.689376516390498 9.999999999999998
  endloop
endfacet
facet normal -0.0 -0.0 1.0
  outer loop
    vertex 8.28758428793905 7.25710954124687 9.999999999999998
    vertex 19.448335824743083 3.8624434498710607 9.999999999999998
    vertex 11.394771002047781 7.133410882556341 9.999999999999998
  endloop
endfacet
facet normal -0.0 -0.0 1.0
  outer loop
    vertex 8.28758428793905 7.25710954124687 9.999999999999998
    vertex 11.394771002047781 7.133410882556341 9.999999999999998
    vertex 11.382704813542368 7.263035353992819 9.999999999999998
  endloop
endfacet
facet normal -0.0 -0.0 1.0
  outer loop
    vertex 11.394771002047781 7.133410882556341 9.999999999999998
    vertex 19.448335824743083 3.8624434498710607 9.999999999999998
    vertex 13.549219002047773 7.133410882556341 9.999999999999998
  endloop
endfacet
facet normal -0.0 -0.0 1.0
  outer loop
    vertex 13.549219002047773 7.133410882556341 9.999999999999998
    vertex 19.448335824743083 3.8624434498710607 9.999999999999998
    vertex 13.57040730257559 9.140537516390035 9.999999999999998
  endloop
endfacet
facet normal -0.0 -0.0 1.0
  outer loop
    vertex 13.57040730257559 9.140537516390035 9.999999999999998
    vertex 19.448335824743083 3.8624434498710607 9.999999999999998
    vertex 19.448335824743083 9.140537516390035 9.999999999999998
  endloop
endfacet
facet normal 0.0 -0.44220249515873195 -0.8969152430834207
  outer loop
    vertex 19.448335824743083 13.656776998860815 4.4135891016317474
    vertex 2.6483358247430253 13.25873583202022 4.6098337284347215
    vertex 2.6483358247430253 13.656776998860815 4.4135891016317474
  endloop
endfacet
facet normal 0.0 -0.44220249515873195 -0.8969152430834207
  outer loop
    vertex 2.6483358247430253 13.25873583202022 4.6098337284347215
    vertex 19.448335824743083 13.656776998860815 4.4135891016317474
    vertex 19.448335824743083 13.25873583202022 4.6098337284347215
  endloop
endfacet
facet normal 0.9979864773402042 -0.06342705295132585 -9.05432667132518e-20
  outer loop
    vertex 11.42259858087371 18.449019027820356 6.500000000000001
    vertex 11.415313464023924 18.33439210186954 9.999999999999998
    vertex 11.415313464023924 18.33439210186954 6.500000000000001
  endloop
endfacet
facet normal 0.9979864773402042 -0.06342705295132585 -9.05432667132518e-20
  outer loop
    vertex 11.415313464023924 18.33439210186954 9.999999999999998
    vertex 11.42259858087371 18.449019027820356 6.500000000000001
    vertex 11.42259858087371 18.449019027820356 9.999999999999998
  endloop
endfacet
facet normal -0.0 1.0 -0.0
  outer loop
    vertex 13.57040730257559 9.140537516390035 9.999999999999998
    vertex 19.448335824743083 9.140537516390035 6.500000000000001
    vertex 13.57040730257559 9.140537516390035 6.500000000000001
  endloop
endfacet
facet normal -0.0 1.0 -0.0
  outer loop
    vertex 19.448335824743083 9.140537516390035 6.500000000000001
    vertex 13.57040730257559 9.140537516390035 9.999999999999998
    vertex 19.448335824743083 9.140537516390035 9.999999999999998
  endloop
endfacet
facet normal -1.7271560813650717e-33 0.19499606377053888 0.980804024825549
  outer loop
    vertex 19.448335824743083 12.16615106772221 1.3901662715652807
    vertex 2.6483358247430253 12.601421157614894 1.3036291529791098
    vertex 2.6483358247430253 12.16615106772221 1.3901662715652807
  endloop
endfacet
facet normal -1.7271560813650717e-33 0.19499606377053888 0.980804024825549
  outer loop
    vertex 2.6483358247430253 12.601421157614894 1.3036291529791098
    vertex 19.448335824743083 12.16615106772221 1.3901662715652807
    vertex 19.448335824743083 12.601421157614894 1.3036291529791098
  endloop
endfacet
facet normal -6.493128288764905e-20 -0.9978526331310679 -0.06549902711792316
  outer loop
    vertex 19.448335824743083 14.379746545638241 3.3318137833824553
    vertex 2.6483358247430253 14.408814296891231 2.8889777077446603
    vertex 19.448335824743083 14.408814296891231 2.8889777077446603
  endloop
endfacet
facet normal -6.493128288764905e-20 -0.9978526331310679 -0.06549902711792316
  outer loop
    vertex 2.6483358247430253 14.408814296891231 2.8889777077446603
    vertex 19.448335824743083 14.379746545638241 3.3318137833824553
    vertex 2.6483358247430253 14.379746545638241 3.3318137833824553
  endloop
endfacet
facet normal -0.0 -0.0 1.0
  outer loop
    vertex 19.448335824743083 9.140537516390035 6.500000000000001
    vertex 14.89599330257564 9.189839516389695 6.500000000000001
    vertex 13.57040730257559 9.140537516390035 6.500000000000001
  endloop
endfacet
facet normal -0.0 -0.0 1.0
  outer loop
    vertex 14.89599330257564 9.189839516389695 6.500000000000001
    vertex 19.448335824743083 9.140537516390035 6.500000000000001
    vertex 14.89599330257564 16.274839516389093 6.500000000000001
  endloop
endfacet
facet normal -0.0 -0.0 1.0
  outer loop
    vertex 14.89599330257564 16.274839516389093 6.500000000000001
    vertex 19.448335824743083 16.345173859489638 6.500000000000001
    vertex 13.63040830257559 16.345173859489638 6.500000000000001
  endloop
endfacet
facet normal -0.0 -0.0 1.0
  outer loop
    vertex 19.448335824743083 16.345173859489638 6.500000000000001
    vertex 14.89599330257564 16.274839516389093 6.500000000000001
    vertex 19.448335824743083 9.140537516390035 6.500000000000001
  endloop
endfacet
facet normal -0.0 -0.0 1.0
  outer loop
    vertex 14.89599330257564 9.189839516389695 6.500000000000001
    vertex 9.895993302575603 16.274839516389093 6.500000000000001
    vertex 9.895993302575603 9.189839516389695 6.500000000000001
  endloop
endfacet
facet normal -0.0 -0.0 1.0
  outer loop
    vertex 9.895993302575603 16.274839516389093 6.500000000000001
    vertex 14.89599330257564 9.189839516389695 6.500000000000001
    vertex 14.89599330257564 16.274839516389093 6.500000000000001
  endloop
endfacet
facet normal 0.0 -0.9998949184338694 0.014496623404288762
  outer loop
    vertex 19.448335824743083 8.47046045819367 4.501684405237856
    vertex 2.648335824743113 8.412443449870025 0.5000000000000004
    vertex 19.448335824743083 8.412443449870025 0.5000000000000004
  endloop
endfacet
facet normal 0.0 -0.9998949184338694 0.014496623404288762
  outer loop
    vertex 2.648335824743113 8.412443449870025 0.5000000000000004
    vertex 19.448335824743083 8.47046045819367 4.501684405237856
    vertex 2.648335824743113 8.47046045819367 4.501684405237856
  endloop
endfacet
facet normal -0.0 0.9468992335177004 0.32153046755104225
  outer loop
    vertex 2.6483358247430253 11.045140354102742 2.668186216617546
    vertex 19.448335824743083 11.18783205598418 2.247962701969061
    vertex 2.6483358247430253 11.18783205598418 2.247962701969061
  endloop
endfacet
facet normal -0.0 0.9468992335177004 0.32153046755104225
  outer loop
    vertex 19.448335824743083 11.18783205598418 2.247962701969061
    vertex 2.6483358247430253 11.045140354102742 2.668186216617546
    vertex 19.448335824743083 11.045140354102742 2.668186216617546
  endloop
endfacet
facet normal 1.250455583400974e-16 2.3038554892259913e-17 1.0
  outer loop
    vertex 8.28758428793905 7.25710954124687 6.500000000000002
    vertex 2.8959933025756612 13.99848640636681 6.500000000000002
    vertex 2.8959933025756612 11.689376516390498 6.500000000000002
  endloop
endfacet
facet normal 1.250455583400974e-16 2.3038554892259913e-17 1.0
  outer loop
    vertex 2.8959933025756612 13.99848640636681 6.500000000000002
    vertex 8.28758428793905 7.25710954124687 6.500000000000002
    vertex 8.384800010174773 18.32801025911966 6.500000000000001
  endloop
endfacet
facet normal 1.250455583400974e-16 2.3038554892259913e-17 1.0
  outer loop
    vertex 8.384800010174773 18.32801025911966 6.500000000000001
    vertex 8.28758428793905 7.25710954124687 6.500000000000002
    vertex 9.895993302575603 9.189839516389695 6.500000000000001
  endloop
endfacet
facet normal 1.250455583400974e-16 2.3038554892259913e-17 1.0
  outer loop
    vertex 9.895993302575603 9.189839516389695 6.500000000000001
    vertex 8.28758428793905 7.25710954124687 6.500000000000002
    vertex 11.382704813542368 7.263035353992819 6.500000000000001
  endloop
endfacet
facet normal 1.250455583400974e-16 2.3038554892259913e-17 1.0
  outer loop
    vertex 9.895993302575603 9.189839516389695 6.500000000000001
    vertex 11.382704813542368 7.263035353992819 6.500000000000001
    vertex 13.57040730257559 9.140537516390035 6.500000000000001
  endloop
endfacet
facet normal 1.250455583400974e-16 2.3038554892259913e-17 1.0
  outer loop
    vertex 9.895993302575603 9.189839516389695 6.500000000000001
    vertex 13.57040730257559 9.140537516390035 6.500000000000001
    vertex 14.89599330257564 9.189839516389695 6.500000000000001
  endloop
endfacet
facet normal 1.250455583400974e-16 2.3038554892259913e-17 1.0
  outer loop
    vertex 13.57040730257559 9.140537516390035 6.500000000000001
    vertex 11.382704813542368 7.263035353992819 6.500000000000001
    vertex 11.394771002047781 7.133410882556341 6.500000000000001
  endloop
endfacet
facet normal 1.250455583400974e-16 2.3038554892259913e-17 1.0
  outer loop
    vertex 13.57040730257559 9.140537516390035 6.500000000000001
    vertex 11.394771002047781 7.133410882556341 6.500000000000001
    vertex 13.549219002047773 7.133410882556341 6.500000000000001
  endloop
endfacet
facet normal 1.250455583400974e-16 2.3038554892259913e-17 1.0
  outer loop
    vertex 8.384800010174773 18.32801025911966 6.500000000000001
    vertex 9.895993302575603 16.274839516389093 6.500000000000001
    vertex 11.415313464023924 18.33439210186954 6.500000000000001
  endloop
endfacet
facet normal 1.250455583400974e-16 2.3038554892259913e-17 1.0
  outer loop
    vertex 9.895993302575603 16.274839516389093 6.500000000000001
    vertex 8.384800010174773 18.32801025911966 6.500000000000001
    vertex 9.895993302575603 9.189839516389695 6.500000000000001
  endloop
endfacet
facet normal 1.250455583400974e-16 2.3038554892259913e-17 1.0
  outer loop
    vertex 11.415313464023924 18.33439210186954 6.500000000000001
    vertex 9.895993302575603 16.274839516389093 6.500000000000001
    vertex 13.63040830257559 16.345173859489638 6.500000000000001
  endloop
endfacet
facet normal 1.250455583400974e-16 2.3038554892259913e-17 1.0
  outer loop
    vertex 13.63040830257559 16.345173859489638 6.500000000000001
    vertex 9.895993302575603 16.274839516389093 6.500000000000001
    vertex 14.89599330257564 16.274839516389093 6.500000000000001
  endloop
endfacet
facet normal 1.250455583400974e-16 2.3038554892259913e-17 1.0
  outer loop
    vertex 11.415313464023924 18.33439210186954 6.500000000000001
    vertex 13.63040830257559 16.345173859489638 6.500000000000001
    vertex 11.42259858087371 18.449019027820356 6.500000000000001
  endloop
endfacet
facet normal 1.250455583400974e-16 2.3038554892259913e-17 1.0
  outer loop
    vertex 13.631788580873696 18.449019027820356 6.500000000000001
    vertex 11.42259858087371 18.449019027820356 6.500000000000001
    vertex 13.63040830257559 16.345173859489638 6.500000000000001
  endloop
endfacet
facet normal 0.0 -0.9999443346334552 -0.010551191139234174
  outer loop
    vertex 19.448335824743083 3.8624434498710607 9.999999999999998
    vertex 2.648335824743113 3.9204604581932623 4.501684405237856
    vertex 19.448335824743083 3.9204604581932623 4.501684405237856
  endloop
endfacet
facet normal 0.0 -0.9999443346334552 -0.010551191139234174
  outer loop
    vertex 2.648335824743113 3.9204604581932623 4.501684405237856
    vertex 19.448335824743083 3.8624434498710607 9.999999999999998
    vertex 2.648335824743113 3.8624434498710607 9.999999999999998
  endloop
endfacet
facet normal 0.0 0.0654990271177515 -0.9978526331310792
  outer loop
    vertex 19.448335824743083 12.82346574212609 4.696370847020892
    vertex 2.6483358247430253 12.380629666488032 4.667303095767961
    vertex 2.6483358247430253 12.82346574212609 4.696370847020892
  endloop
endfacet
facet normal 0.0 0.0654990271177515 -0.9978526331310792
  outer loop
    vertex 2.6483358247430253 12.380629666488032 4.667303095767961
    vertex 19.448335824743083 12.82346574212609 4.696370847020892
    vertex 19.448335824743083 12.380629666488032 4.667303095767961
  endloop
endfacet
facet normal -2.321907954923802e-33 -0.7519031697479939 0.6592735572756726
  outer loop
    vertex 19.448335824743083 14.12603255150265 2.0556664510100493
    vertex 2.6483358247430253 13.833454163489959 1.7219800549477349
    vertex 19.448335824743083 13.833454163489959 1.7219800549477349
  endloop
endfacet
facet normal -2.321907954923802e-33 -0.7519031697479939 0.6592735572756726
  outer loop
    vertex 2.6483358247430253 13.833454163489959 1.7219800549477349
    vertex 19.448335824743083 14.12603255150265 2.0556664510100493
    vertex 2.6483358247430253 14.12603255150265 2.0556664510100493
  endloop
endfacet
facet normal 5.50833773915772e-19 0.8314162159667392 0.5556501379713215
  outer loop
    vertex 2.6483358247430253 11.18783205598418 2.247962701969061
    vertex 19.448335824743083 11.434423504818112 1.8789892863809876
    vertex 2.6483358247430253 11.434423504818112 1.8789892863809876
  endloop
endfacet
facet normal 5.50833773915772e-19 0.8314162159667392 0.5556501379713215
  outer loop
    vertex 19.448335824743083 11.434423504818112 1.8789892863809876
    vertex 2.6483358247430253 11.18783205598418 2.247962701969061
    vertex 19.448335824743083 11.18783205598418 2.247962701969061
  endloop
endfacet
facet normal -0.0 0.9978526331310679 0.0654990271179232
  outer loop
    vertex 2.6483358247430253 11.016072602849752 3.111022292255341
    vertex 19.448335824743083 11.045140354102742 2.668186216617546
    vertex 2.6483358247430253 11.045140354102742 2.668186216617546
  endloop
endfacet
facet normal -0.0 0.9978526331310679 0.0654990271179232
  outer loop
    vertex 19.448335824743083 11.045140354102742 2.668186216617546
    vertex 2.6483358247430253 11.016072602849752 3.111022292255341
    vertex 19.448335824743083 11.016072602849752 3.111022292255341
  endloop
endfacet
facet normal -0.0 0.9999694199287658 0.007820435239040972
  outer loop
    vertex 2.648335824743113 16.98115692372982 4.500489543185246
    vertex 19.448335824743083 17.012443449870958 0.5000000000000004
    vertex 2.648335824743113 17.012443449870958 0.5000000000000004
  endloop
endfacet
facet normal -0.0 0.9999694199287658 0.007820435239040972
  outer loop
    vertex 19.448335824743083 17.012443449870958 0.5000000000000004
    vertex 2.648335824743113 16.98115692372982 4.500489543185246
    vertex 19.448335824743083 16.98115692372982 4.500489543185246
  endloop
endfacet
facet normal 0.6350353901311987 0.77248304400868 -0.0
  outer loop
    vertex 2.8959933025756612 11.689376516390498 9.999999999999998
    vertex 8.28758428793905 7.25710954124687 6.500000000000002
    vertex 2.8959933025756612 11.689376516390498 6.500000000000002
  endloop
endfacet
facet normal 0.6350353901311987 0.77248304400868 -0.0
  outer loop
    vertex 8.28758428793905 7.25710954124687 6.500000000000002
    vertex 2.8959933025756612 11.689376516390498 9.999999999999998
    vertex 8.28758428793905 7.25710954124687 9.999999999999998
  endloop
endfacet
facet normal 0.0 0.0 -1.0
  outer loop
    vertex 19.448335824743083 17.012443449870958 0.23849000000000053
    vertex 2.648335824743113 8.412443449870025 0.23849000000000053
    vertex 2.648335824743113 17.012443449870958 0.23849000000000053
  endloop
endfacet
facet normal 0.0 0.0 -1.0
  outer loop
    vertex 2.648335824743113 8.412443449870025 0.23849000000000053
    vertex 19.448335824743083 17.012443449870958 0.23849000000000053
    vertex 19.448335824743083 8.412443449870025 0.23849000000000053
  endloop
endfacet
facet normal 0.0 -1.0 0.0
  outer loop
    vertex 19.448335824743083 8.412443449870025 0.5000000000000004
    vertex 2.648335824743113 8.412443449870025 0.23849000000000053
    vertex 19.448335824743083 8.412443449870025 0.23849000000000053
  endloop
endfacet
facet normal 0.0 -1.0 0.0
  outer loop
    vertex 2.648335824743113 8.412443449870025 0.23849000000000053
    vertex 19.448335824743083 8.412443449870025 0.5000000000000004
    vertex 2.648335824743113 8.412443449870025 0.5000000000000004
  endloop
endfacet
facet normal -0.0 1.0 -0.0
  outer loop
    vertex 2.648335824743113 17.012443449870958 0.5000000000000004
    vertex 19.448335824743083 17.012443449870958 0.23849000000000053
    vertex 2.648335824743113 17.012443449870958 0.23849000000000053
  endloop
endfacet
facet normal -0.0 1.0 -0.0
  outer loop
    vertex 19.448335824743083 17.012443449870958 0.23849000000000053
    vertex 2.648335824743113 17.012443449870958 0.5000000000000004
    vertex 19.448335824743083 17.012443449870958 0.5000000000000004
  endloop
endfacet
facet normal 0.0 0.0 -1.0
  outer loop
    vertex 19.448335824743083 21.53115692373023 4.500489543185246
    vertex 2.648335824743113 16.98115692372982 4.500489543185246
    vertex 2.648335824743113 21.53115692373023 4.500489543185246
  endloop
endfacet
facet normal 0.0 0.0 -1.0
  outer loop
    vertex 2.648335824743113 16.98115692372982 4.500489543185246
    vertex 19.448335824743083 21.53115692373023 4.500489543185246
    vertex 19.448335824743083 16.98115692372982 4.500489543185246
  endloop
endfacet
facet normal -5.2962838624500646e-33 -0.6592735572760127 -0.7519031697476959
  outer loop
    vertex 19.448335824743083 13.990463394922873 4.121010713619014
    vertex 2.6483358247430253 13.656776998860815 4.4135891016317474
    vertex 2.6483358247430253 13.990463394922873 4.121010713619014
  endloop
endfacet
facet normal -5.2962838624500646e-33 -0.6592735572760127 -0.7519031697476959
  outer loop
    vertex 2.6483358247430253 13.656776998860815 4.4135891016317474
    vertex 19.448335824743083 13.990463394922873 4.121010713619014
    vertex 19.448335824743083 13.656776998860815 4.4135891016317474
  endloop
endfacet
facet normal 1.5574012939894263e-33 -0.89691524308386 0.44220249515784094
  outer loop
    vertex 19.448335824743083 14.322277178305333 2.4537076178510535
    vertex 2.6483358247430253 14.12603255150265 2.0556664510100493
    vertex 19.448335824743083 14.12603255150265 2.0556664510100493
  endloop
endfacet
facet normal 1.5574012939894263e-33 -0.89691524308386 0.44220249515784094
  outer loop
    vertex 2.6483358247430253 14.12603255150265 2.0556664510100493
    vertex 19.448335824743083 14.322277178305333 2.4537076178510535
    vertex 2.6483358247430253 14.322277178305333 2.4537076178510535
  endloop
endfacet
facet normal 2.2648084156003455e-33 -0.9468992335186909 -0.3215304675481247
  outer loop
    vertex 19.448335824743083 14.237054843758248 3.7520372980309413
    vertex 2.6483358247430253 14.379746545638241 3.3318137833824553
    vertex 19.448335824743083 14.379746545638241 3.3318137833824553
  endloop
endfacet
facet normal 2.2648084156003455e-33 -0.9468992335186909 -0.3215304675481247
  outer loop
    vertex 2.6483358247430253 14.379746545638241 3.3318137833824553
    vertex 19.448335824743083 14.237054843758248 3.7520372980309413
    vertex 2.6483358247430253 14.237054843758248 3.7520372980309413
  endloop
endfacet
facet normal -0.0 0.7519031697479936 -0.659273557275673
  outer loop
    vertex 2.6483358247430253 11.591432736251026 4.278019945052266
    vertex 19.448335824743083 11.298854348238335 3.944333548989952
    vertex 2.6483358247430253 11.298854348238335 3.944333548989952
  endloop
endfacet
facet normal -0.0 0.7519031697479936 -0.659273557275673
  outer loop
    vertex 19.448335824743083 11.298854348238335 3.944333548989952
    vertex 2.6483358247430253 11.591432736251026 4.278019945052266
    vertex 19.448335824743083 11.591432736251026 4.278019945052266
  endloop
endfacet
endsolid Untitled-5be4997d
