solid mark8_all
facet normal 0.0 1.0 0.0
  outer loop
    vertex -8.869527849930781 2.999999999999989 4.458608152298745
    vertex -5.327027849930801 2.999999999999989 4.358608152298745
    vertex -8.869527849930781 2.999999999999989 4.358608152298745
  endloop
endfacet
facet normal 0.0 1.0 0.0
  outer loop
    vertex -5.327027849930801 2.999999999999989 4.358608152298745
    vertex -8.869527849930781 2.999999999999989 4.458608152298745
    vertex -5.327027849930801 2.999999999999989 4.458608152298745
  endloop
endfacet
facet normal 0.0 1.0 0.0
  outer loop
    vertex -12.512027849930764 2.999999999999989 1.4646081522987442
    vertex -8.869527849930781 2.999999999999989 1.3646081522987443
    vertex -12.512027849930764 2.999999999999989 1.3646081522987443
  endloop
endfacet
facet normal 0.0 1.0 0.0
  outer loop
    vertex -8.869527849930781 2.999999999999989 1.3646081522987443
    vertex -12.512027849930764 2.999999999999989 1.4646081522987442
    vertex -8.869527849930781 2.999999999999989 1.4646081522987442
  endloop
endfacet
facet normal 0.0 1.0 0.0
  outer loop
    vertex -8.869527849930781 2.999999999999989 1.4646081522987442
    vertex -12.512027849930764 2.999999999999989 1.4646081522987442
    vertex -12.412027849930764 2.999999999999989 1.4646081522987442
  endloop
endfacet
facet normal 0.0 1.0 0.0
  outer loop
    vertex -5.327027849930801 2.999999999999989 1.4646081522987442
    vertex -5.227027849930801 2.999999999999989 1.3646081522987443
    vertex -5.327027849930801 2.999999999999989 1.3646081522987443
  endloop
endfacet
facet normal 0.0 1.0 0.0
  outer loop
    vertex -5.227027849930801 2.999999999999989 1.3646081522987443
    vertex -5.327027849930801 2.999999999999989 1.4646081522987442
    vertex -5.227027849930801 2.999999999999989 4.458608152298745
  endloop
endfacet
facet normal 0.0 1.0 0.0
  outer loop
    vertex -5.227027849930801 2.999999999999989 4.458608152298745
    vertex -5.327027849930801 2.999999999999989 1.4646081522987442
    vertex -5.327027849930801 2.999999999999989 4.358608152298745
  endloop
endfacet
facet normal 0.0 1.0 0.0
  outer loop
    vertex -5.227027849930801 2.999999999999989 4.458608152298745
    vertex -5.327027849930801 2.999999999999989 4.358608152298745
    vertex -5.327027849930801 2.999999999999989 4.458608152298745
  endloop
endfacet
facet normal 0.0 1.0 0.0
  outer loop
    vertex -11.523027849930806 2.999999999999989 4.458608152298745
    vertex -8.869527849930781 2.999999999999989 4.358608152298745
    vertex -11.523027849930806 2.999999999999989 4.358608152298745
  endloop
endfacet
facet normal 0.0 1.0 0.0
  outer loop
    vertex -8.869527849930781 2.999999999999989 4.358608152298745
    vertex -11.523027849930806 2.999999999999989 4.458608152298745
    vertex -8.869527849930781 2.999999999999989 4.458608152298745
  endloop
endfacet
facet normal 0.0 0.415012446845785 -0.9098157335213954
  outer loop
    vertex -11.623027849930805 2.999999999999989 3.064008152298745
    vertex -9.395638282729838 1.9999999999999907 2.607858152298745
    vertex -12.412027849930764 2.999999999999989 3.064008152298745
  endloop
endfacet
facet normal 0.0 0.415012446845785 -0.9098157335213954
  outer loop
    vertex -9.395638282729838 1.9999999999999907 2.607858152298745
    vertex -11.623027849930805 2.999999999999989 3.064008152298745
    vertex -11.523027849930806 2.999999999999989 3.064008152298745
  endloop
endfacet
facet normal 0.0 0.0 -1.0
  outer loop
    vertex -5.227027849930801 4.249999999999987 4.458608152298745
    vertex -11.623027849930805 2.999999999999989 4.458608152298745
    vertex -11.623027849930805 4.249999999999987 4.458608152298745
  endloop
endfacet
facet normal 0.0 0.0 -1.0
  outer loop
    vertex -11.623027849930805 2.999999999999989 4.458608152298745
    vertex -5.227027849930801 4.249999999999987 4.458608152298745
    vertex -11.523027849930806 2.999999999999989 4.458608152298745
  endloop
endfacet
facet normal 0.0 0.0 -1.0
  outer loop
    vertex -11.523027849930806 2.999999999999989 4.458608152298745
    vertex -5.227027849930801 4.249999999999987 4.458608152298745
    vertex -8.869527849930781 2.999999999999989 4.458608152298745
  endloop
endfacet
facet normal 0.0 0.0 -1.0
  outer loop
    vertex -8.869527849930781 2.999999999999989 4.458608152298745
    vertex -5.227027849930801 4.249999999999987 4.458608152298745
    vertex -5.327027849930801 2.999999999999989 4.458608152298745
  endloop
endfacet
facet normal 0.0 0.0 -1.0
  outer loop
    vertex -5.327027849930801 2.999999999999989 4.458608152298745
    vertex -5.227027849930801 4.249999999999987 4.458608152298745
    vertex -5.227027849930801 2.999999999999989 4.458608152298745
  endloop
endfacet
facet normal 0.0 1.0 0.0
  outer loop
    vertex -11.623027849930805 2.999999999999989 3.164008152298745
    vertex -11.523027849930806 2.999999999999989 3.064008152298745
    vertex -11.623027849930805 2.999999999999989 3.064008152298745
  endloop
endfacet
facet normal 0.0 1.0 0.0
  outer loop
    vertex -11.523027849930806 2.999999999999989 3.064008152298745
    vertex -11.623027849930805 2.999999999999989 3.164008152298745
    vertex -11.523027849930806 2.999999999999989 4.358608152298745
  endloop
endfacet
facet normal 0.0 1.0 0.0
  outer loop
    vertex -11.523027849930806 2.999999999999989 4.358608152298745
    vertex -11.623027849930805 2.999999999999989 3.164008152298745
    vertex -11.623027849930805 2.999999999999989 4.458608152298745
  endloop
endfacet
facet normal 0.0 1.0 0.0
  outer loop
    vertex -11.523027849930806 2.999999999999989 4.358608152298745
    vertex -11.623027849930805 2.999999999999989 4.458608152298745
    vertex -11.523027849930806 2.999999999999989 4.458608152298745
  endloop
endfacet
facet normal 0.0 0.0 1.0
  outer loop
    vertex -8.869527849930781 2.999999999999989 1.3646081522987443
    vertex -12.512027849930764 4.249999999999987 1.3646081522987443
    vertex -12.512027849930764 2.999999999999989 1.3646081522987443
  endloop
endfacet
facet normal 0.0 0.0 1.0
  outer loop
    vertex -12.512027849930764 4.249999999999987 1.3646081522987443
    vertex -8.869527849930781 2.999999999999989 1.3646081522987443
    vertex -5.227027849930801 4.249999999999987 1.3646081522987443
  endloop
endfacet
facet normal 0.0 0.0 1.0
  outer loop
    vertex -5.227027849930801 4.249999999999987 1.3646081522987443
    vertex -8.869527849930781 2.999999999999989 1.3646081522987443
    vertex -5.327027849930801 2.999999999999989 1.3646081522987443
  endloop
endfacet
facet normal 0.0 0.0 1.0
  outer loop
    vertex -5.227027849930801 4.249999999999987 1.3646081522987443
    vertex -5.327027849930801 2.999999999999989 1.3646081522987443
    vertex -5.227027849930801 2.999999999999989 1.3646081522987443
  endloop
endfacet
facet normal 1.0 0.0 0.0
  outer loop
    vertex -11.623027849930805 4.249999999999987 3.164008152298745
    vertex -11.623027849930805 2.999999999999989 4.458608152298745
    vertex -11.623027849930805 2.999999999999989 3.164008152298745
  endloop
endfacet
facet normal 1.0 0.0 0.0
  outer loop
    vertex -11.623027849930805 2.999999999999989 4.458608152298745
    vertex -11.623027849930805 4.249999999999987 3.164008152298745
    vertex -11.623027849930805 4.249999999999987 4.458608152298745
  endloop
endfacet
facet normal 1.0 0.0 0.0
  outer loop
    vertex -12.512027849930764 4.249999999999987 1.3646081522987443
    vertex -12.512027849930764 2.999999999999989 1.4646081522987442
    vertex -12.512027849930764 2.999999999999989 1.3646081522987443
  endloop
endfacet
facet normal 1.0 0.0 0.0
  outer loop
    vertex -12.512027849930764 2.999999999999989 1.4646081522987442
    vertex -12.512027849930764 4.249999999999987 1.3646081522987443
    vertex -12.512027849930764 2.999999999999989 3.164008152298745
  endloop
endfacet
facet normal 1.0 0.0 0.0
  outer loop
    vertex -12.512027849930764 2.999999999999989 3.164008152298745
    vertex -12.512027849930764 4.249999999999987 1.3646081522987443
    vertex -12.512027849930764 4.249999999999987 3.164008152298745
  endloop
endfacet
facet normal 0.0 1.0 0.0
  outer loop
    vertex -12.512027849930764 2.999999999999989 3.164008152298745
    vertex -12.412027849930764 2.999999999999989 1.4646081522987442
    vertex -12.512027849930764 2.999999999999989 1.4646081522987442
  endloop
endfacet
facet normal 0.0 1.0 0.0
  outer loop
    vertex -12.412027849930764 2.999999999999989 1.4646081522987442
    vertex -12.512027849930764 2.999999999999989 3.164008152298745
    vertex -12.412027849930764 2.999999999999989 3.064008152298745
  endloop
endfacet
facet normal 0.0 1.0 0.0
  outer loop
    vertex -12.412027849930764 2.999999999999989 3.064008152298745
    vertex -12.512027849930764 2.999999999999989 3.164008152298745
    vertex -12.412027849930764 2.999999999999989 3.164008152298745
  endloop
endfacet
facet normal 0.0 1.0 0.0
  outer loop
    vertex -8.869527849930781 2.999999999999989 1.4646081522987442
    vertex -5.327027849930801 2.999999999999989 1.3646081522987443
    vertex -8.869527849930781 2.999999999999989 1.3646081522987443
  endloop
endfacet
facet normal 0.0 1.0 0.0
  outer loop
    vertex -5.327027849930801 2.999999999999989 1.3646081522987443
    vertex -8.869527849930781 2.999999999999989 1.4646081522987442
    vertex -5.327027849930801 2.999999999999989 1.4646081522987442
  endloop
endfacet
facet normal -1.0 0.0 0.0
  outer loop
    vertex -5.227027849930801 4.249999999999987 4.458608152298745
    vertex -5.227027849930801 2.999999999999989 1.3646081522987443
    vertex -5.227027849930801 2.999999999999989 4.458608152298745
  endloop
endfacet
facet normal -1.0 0.0 0.0
  outer loop
    vertex -5.227027849930801 2.999999999999989 1.3646081522987443
    vertex -5.227027849930801 4.249999999999987 4.458608152298745
    vertex -5.227027849930801 4.249999999999987 1.3646081522987443
  endloop
endfacet
facet normal -0.39493271628946597 -0.6132801956829389 0.6840435301845347
  outer loop
    vertex -8.525027849930803 2.999999999999989 5.308608152298745
    vertex -9.22026813846349 0.9999999999999926 3.114108152298744
    vertex -8.869527849930794 0.9999999999999926 3.3166081522987456
  endloop
endfacet
facet normal -3.4526090164450146e-17 -0.7391013160477239 -0.6735942729986076
  outer loop
    vertex -8.518787561398097 0.9999999999999923 2.7091081522987457
    vertex -8.713643277249592 2.999999999999989 0.5146081522987447
    vertex -4.377027849930802 2.999999999999989 0.5146081522987447
  endloop
endfacet
facet normal 0.0 1.0 0.0
  outer loop
    vertex -13.36202784993076 4.249999999999987 0.5146081522987447
    vertex -12.512027849930764 4.249999999999987 1.3646081522987443
    vertex -4.377027849930802 4.249999999999987 0.5146081522987447
  endloop
endfacet
facet normal 0.0 1.0 0.0
  outer loop
    vertex -12.512027849930764 4.249999999999987 1.3646081522987443
    vertex -13.36202784993076 4.249999999999987 0.5146081522987447
    vertex -13.36202784993076 4.249999999999987 4.0640081522987455
  endloop
endfacet
facet normal 0.0 1.0 0.0
  outer loop
    vertex -12.512027849930764 4.249999999999987 1.3646081522987443
    vertex -13.36202784993076 4.249999999999987 4.0640081522987455
    vertex -12.512027849930764 4.249999999999987 3.164008152298745
  endloop
endfacet
facet normal 0.0 1.0 0.0
  outer loop
    vertex -12.512027849930764 4.249999999999987 3.164008152298745
    vertex -13.36202784993076 4.249999999999987 4.0640081522987455
    vertex -11.623027849930805 4.249999999999987 3.164008152298745
  endloop
endfacet
facet normal 0.0 1.0 0.0
  outer loop
    vertex -11.623027849930805 4.249999999999987 3.164008152298745
    vertex -13.36202784993076 4.249999999999987 4.0640081522987455
    vertex -12.473027849930803 4.249999999999987 4.0640081522987455
  endloop
endfacet
facet normal 0.0 1.0 0.0
  outer loop
    vertex -11.623027849930805 4.249999999999987 3.164008152298745
    vertex -12.473027849930803 4.249999999999987 4.0640081522987455
    vertex -11.623027849930805 4.249999999999987 4.458608152298745
  endloop
endfacet
facet normal 0.0 1.0 0.0
  outer loop
    vertex -11.623027849930805 4.249999999999987 4.458608152298745
    vertex -12.473027849930803 4.249999999999987 4.0640081522987455
    vertex -12.473027849930803 4.249999999999987 5.308608152298745
  endloop
endfacet
facet normal 0.0 1.0 0.0
  outer loop
    vertex -11.623027849930805 4.249999999999987 4.458608152298745
    vertex -12.473027849930803 4.249999999999987 5.308608152298745
    vertex -5.227027849930801 4.249999999999987 4.458608152298745
  endloop
endfacet
facet normal 0.0 1.0 0.0
  outer loop
    vertex -4.377027849930802 4.249999999999987 0.5146081522987447
    vertex -5.227027849930801 4.249999999999987 1.3646081522987443
    vertex -4.377027849930802 4.249999999999987 5.308608152298745
  endloop
endfacet
facet normal 0.0 1.0 0.0
  outer loop
    vertex -5.227027849930801 4.249999999999987 1.3646081522987443
    vertex -4.377027849930802 4.249999999999987 0.5146081522987447
    vertex -12.512027849930764 4.249999999999987 1.3646081522987443
  endloop
endfacet
facet normal 0.0 1.0 0.0
  outer loop
    vertex -4.377027849930802 4.249999999999987 5.308608152298745
    vertex -5.227027849930801 4.249999999999987 1.3646081522987443
    vertex -5.227027849930801 4.249999999999987 4.458608152298745
  endloop
endfacet
facet normal 0.0 1.0 0.0
  outer loop
    vertex -4.377027849930802 4.249999999999987 5.308608152298745
    vertex -5.227027849930801 4.249999999999987 4.458608152298745
    vertex -12.473027849930803 4.249999999999987 5.308608152298745
  endloop
endfacet
facet normal 0.0 0.0 -1.0
  outer loop
    vertex -11.623027849930805 4.249999999999987 3.164008152298745
    vertex -12.512027849930764 2.999999999999989 3.164008152298745
    vertex -12.512027849930764 4.249999999999987 3.164008152298745
  endloop
endfacet
facet normal 0.0 0.0 -1.0
  outer loop
    vertex -12.512027849930764 2.999999999999989 3.164008152298745
    vertex -11.623027849930805 4.249999999999987 3.164008152298745
    vertex -12.412027849930764 2.999999999999989 3.164008152298745
  endloop
endfacet
facet normal 0.0 0.0 -1.0
  outer loop
    vertex -12.412027849930764 2.999999999999989 3.164008152298745
    vertex -11.623027849930805 4.249999999999987 3.164008152298745
    vertex -11.623027849930805 2.999999999999989 3.164008152298745
  endloop
endfacet
facet normal 0.0 1.0 0.0
  outer loop
    vertex -12.412027849930764 2.999999999999989 3.164008152298745
    vertex -11.623027849930805 2.999999999999989 3.064008152298745
    vertex -12.412027849930764 2.999999999999989 3.064008152298745
  endloop
endfacet
facet normal 0.0 1.0 0.0
  outer loop
    vertex -11.623027849930805 2.999999999999989 3.064008152298745
    vertex -12.412027849930764 2.999999999999989 3.164008152298745
    vertex -11.623027849930805 2.999999999999989 3.164008152298745
  endloop
endfacet
facet normal 0.4924842489607815 0.17273406757831306 -0.8530077411274681
  outer loop
    vertex -8.869527849930794 1.9999999999999907 3.5191081522987457
    vertex -9.22026813846349 0.9999999999999926 3.114108152298744
    vertex -9.395638282729838 1.9999999999999907 3.215358152298745
  endloop
endfacet
facet normal 0.4924842489607815 0.17273406757831306 -0.8530077411274681
  outer loop
    vertex -9.22026813846349 0.9999999999999926 3.114108152298744
    vertex -8.869527849930794 1.9999999999999907 3.5191081522987457
    vertex -8.869527849930794 0.9999999999999926 3.3166081522987456
  endloop
endfacet
facet normal -0.49248424896078086 0.17273406757831247 -0.8530077411274688
  outer loop
    vertex -8.343417417131748 1.9999999999999907 3.215358152298745
    vertex -8.869527849930794 0.9999999999999926 3.3166081522987456
    vertex -8.869527849930794 1.9999999999999907 3.5191081522987457
  endloop
endfacet
facet normal -0.49248424896078086 0.17273406757831247 -0.8530077411274688
  outer loop
    vertex -8.869527849930794 0.9999999999999926 3.3166081522987456
    vertex -8.343417417131748 1.9999999999999907 3.215358152298745
    vertex -8.518787561398097 0.9999999999999926 3.114108152298746
  endloop
endfacet
facet normal -0.43484248064440745 -0.9005065335837483 0.0
  outer loop
    vertex -9.22026813846349 0.9999999999999923 2.7091081522987444
    vertex -13.36202784993076 2.999999999999989 4.0640081522987455
    vertex -13.36202784993076 2.999999999999989 0.5146081522987447
  endloop
endfacet
facet normal -0.43484248064440745 -0.9005065335837483 0.0
  outer loop
    vertex -13.36202784993076 2.999999999999989 4.0640081522987455
    vertex -9.22026813846349 0.9999999999999923 2.7091081522987444
    vertex -9.22026813846349 0.9999999999999923 2.771312036885666
  endloop
endfacet
facet normal -0.43484248064440745 -0.9005065335837483 0.0
  outer loop
    vertex -13.36202784993076 2.999999999999989 4.0640081522987455
    vertex -9.22026813846349 0.9999999999999923 2.771312036885666
    vertex -9.22026813846349 0.9999999999999926 3.114108152298744
  endloop
endfacet
facet normal 0.4924842489607807 0.1727340675783126 0.8530077411274688
  outer loop
    vertex -9.22026813846349 0.9999999999999923 2.7091081522987444
    vertex -8.869527849930794 1.9999999999999907 2.3041081522987445
    vertex -9.395638282729838 1.9999999999999907 2.607858152298745
  endloop
endfacet
facet normal 0.4924842489607807 0.1727340675783126 0.8530077411274688
  outer loop
    vertex -8.869527849930794 1.9999999999999907 2.3041081522987445
    vertex -9.22026813846349 0.9999999999999923 2.7091081522987444
    vertex -8.869527849930794 0.9999999999999923 2.506608152298745
  endloop
endfacet
facet normal -0.492484248960782 0.1727340675783129 0.853007741127468
  outer loop
    vertex -8.518787561398097 0.9999999999999923 2.7091081522987457
    vertex -8.869527849930794 1.9999999999999907 2.3041081522987445
    vertex -8.869527849930794 0.9999999999999923 2.506608152298745
  endloop
endfacet
facet normal -0.492484248960782 0.1727340675783129 0.853007741127468
  outer loop
    vertex -8.869527849930794 1.9999999999999907 2.3041081522987445
    vertex -8.518787561398097 0.9999999999999923 2.7091081522987457
    vertex -8.343417417131748 1.9999999999999907 2.607858152298746
  endloop
endfacet
facet normal 0.43484248064440556 -0.9005065335837492 4.287683651013767e-17
  outer loop
    vertex -4.377027849930802 2.999999999999989 5.308608152298745
    vertex -8.518787561398097 0.9999999999999923 2.7091081522987457
    vertex -4.377027849930802 2.999999999999989 0.5146081522987447
  endloop
endfacet
facet normal 0.43484248064440556 -0.9005065335837492 4.287683651013767e-17
  outer loop
    vertex -8.518787561398097 0.9999999999999923 2.7091081522987457
    vertex -4.377027849930802 2.999999999999989 5.308608152298745
    vertex -8.518787561398097 0.9999999999999923 2.771312036885666
  endloop
endfacet
facet normal 0.43484248064440556 -0.9005065335837492 4.287683651013767e-17
  outer loop
    vertex -8.518787561398097 0.9999999999999923 2.771312036885666
    vertex -4.377027849930802 2.999999999999989 5.308608152298745
    vertex -8.518787561398097 0.9999999999999926 3.0519042677118238
  endloop
endfacet
facet normal 0.43484248064440556 -0.9005065335837492 4.287683651013767e-17
  outer loop
    vertex -8.518787561398097 0.9999999999999926 3.0519042677118238
    vertex -4.377027849930802 2.999999999999989 5.308608152298745
    vertex -8.518787561398097 0.9999999999999926 3.114108152298746
  endloop
endfacet
facet normal 0.3627375809563308 -0.6882483486705947 0.6282799200309915
  outer loop
    vertex -8.525027849930803 2.999999999999989 5.308608152298745
    vertex -8.869527849930794 0.9999999999999926 3.3166081522987456
    vertex -8.518787561398097 0.9999999999999926 3.114108152298746
  endloop
endfacet
facet normal -1.2134161552909606e-17 0.7526888408358635 0.6583764188374036
  outer loop
    vertex -9.395638282729838 1.9999999999999907 2.607858152298745
    vertex -8.869527849930781 2.999999999999989 1.4646081522987442
    vertex -12.412027849930764 2.999999999999989 1.4646081522987442
  endloop
endfacet
facet normal -0.4044150524637397 0.5880423975896724 0.7004674182128248
  outer loop
    vertex -8.343417417131748 1.9999999999999907 2.607858152298746
    vertex -8.869527849930781 2.999999999999989 1.4646081522987442
    vertex -8.869527849930794 1.9999999999999907 2.3041081522987445
  endloop
endfacet
facet normal 0.4254053570170769 0.9050029183495343 6.309735483315981e-17
  outer loop
    vertex -11.523027849930806 2.999999999999989 4.358608152298745
    vertex -9.395638282729838 1.9999999999999907 3.215358152298745
    vertex -11.523027849930806 2.999999999999989 3.064008152298745
  endloop
endfacet
facet normal 0.3713639647206169 -0.6695933264511706 -0.6432212549963195
  outer loop
    vertex -8.518787561398097 0.9999999999999923 2.7091081522987457
    vertex -8.869527849930794 0.9999999999999923 2.506608152298745
    vertex -8.713643277249592 2.999999999999989 0.5146081522987447
  endloop
endfacet
facet normal 0.0 0.0 1.0
  outer loop
    vertex -8.525027849930803 2.999999999999989 5.308608152298745
    vertex -12.473027849930803 4.249999999999987 5.308608152298745
    vertex -12.473027849930803 2.999999999999989 5.308608152298745
  endloop
endfacet
facet normal 0.0 0.0 1.0
  outer loop
    vertex -12.473027849930803 4.249999999999987 5.308608152298745
    vertex -8.525027849930803 2.999999999999989 5.308608152298745
    vertex -4.377027849930802 4.249999999999987 5.308608152298745
  endloop
endfacet
facet normal 0.0 0.0 1.0
  outer loop
    vertex -4.377027849930802 4.249999999999987 5.308608152298745
    vertex -8.525027849930803 2.999999999999989 5.308608152298745
    vertex -4.377027849930802 2.999999999999989 5.308608152298745
  endloop
endfacet
facet normal -1.0 0.0 0.0
  outer loop
    vertex -12.473027849930803 4.249999999999987 5.308608152298745
    vertex -12.473027849930803 2.999999999999989 4.0640081522987455
    vertex -12.473027849930803 2.999999999999989 5.308608152298745
  endloop
endfacet
facet normal -1.0 0.0 0.0
  outer loop
    vertex -12.473027849930803 2.999999999999989 4.0640081522987455
    vertex -12.473027849930803 4.249999999999987 5.308608152298745
    vertex -12.473027849930803 4.249999999999987 4.0640081522987455
  endloop
endfacet
facet normal 0.0 0.0 1.0
  outer loop
    vertex -12.473027849930803 2.999999999999989 4.0640081522987455
    vertex -13.36202784993076 4.249999999999987 4.0640081522987455
    vertex -13.36202784993076 2.999999999999989 4.0640081522987455
  endloop
endfacet
facet normal 0.0 0.0 1.0
  outer loop
    vertex -13.36202784993076 4.249999999999987 4.0640081522987455
    vertex -12.473027849930803 2.999999999999989 4.0640081522987455
    vertex -12.473027849930803 4.249999999999987 4.0640081522987455
  endloop
endfacet
facet normal -2.4268323105819224e-17 0.7526888408358634 -0.6583764188374036
  outer loop
    vertex -5.327027849930801 2.999999999999989 4.358608152298745
    vertex -8.343417417131748 1.9999999999999907 3.215358152298745
    vertex -8.869527849930781 2.999999999999989 4.358608152298745
  endloop
endfacet
facet normal 0.4254053570170768 0.9050029183495341 -4.2981449057582444e-16
  outer loop
    vertex -9.395638282729838 1.9999999999999907 3.215358152298745
    vertex -9.395638282729838 1.9999999999999907 2.607858152298745
    vertex -11.523027849930806 2.999999999999989 3.064008152298745
  endloop
endfacet
facet normal -0.31468010422695963 0.9491977833959107 -5.97964926327254e-16
  outer loop
    vertex -5.327027849930801 2.999999999999989 4.358608152298745
    vertex -8.343417417131748 1.9999999999999907 2.607858152298746
    vertex -8.343417417131748 1.9999999999999907 3.215358152298745
  endloop
endfacet
facet normal -0.31468010422695974 0.9491977833959104 6.5873574589976425e-18
  outer loop
    vertex -5.327027849930801 2.999999999999989 4.358608152298745
    vertex -5.327027849930801 2.999999999999989 1.4646081522987442
    vertex -8.343417417131748 1.9999999999999907 2.607858152298746
  endloop
endfacet
facet normal -0.4044150524637391 0.5880423975896722 -0.7004674182128252
  outer loop
    vertex -8.343417417131748 1.9999999999999907 3.215358152298745
    vertex -8.869527849930794 1.9999999999999907 3.5191081522987457
    vertex -8.869527849930781 2.999999999999989 4.358608152298745
  endloop
endfacet
facet normal 1.0 0.0 0.0
  outer loop
    vertex -4.377027849930802 4.249999999999987 0.5146081522987447
    vertex -4.377027849930802 2.999999999999989 5.308608152298745
    vertex -4.377027849930802 2.999999999999989 0.5146081522987447
  endloop
endfacet
facet normal 1.0 0.0 0.0
  outer loop
    vertex -4.377027849930802 2.999999999999989 5.308608152298745
    vertex -4.377027849930802 4.249999999999987 0.5146081522987447
    vertex -4.377027849930802 4.249999999999987 5.308608152298745
  endloop
endfacet
facet normal 0.0 0.0 -1.0
  outer loop
    vertex -4.377027849930802 4.249999999999987 0.5146081522987447
    vertex -13.36202784993076 2.999999999999989 0.5146081522987447
    vertex -13.36202784993076 4.249999999999987 0.5146081522987447
  endloop
endfacet
facet normal 0.0 0.0 -1.0
  outer loop
    vertex -13.36202784993076 2.999999999999989 0.5146081522987447
    vertex -4.377027849930802 4.249999999999987 0.5146081522987447
    vertex -8.713643277249592 2.999999999999989 0.5146081522987447
  endloop
endfacet
facet normal 0.0 0.0 -1.0
  outer loop
    vertex -8.713643277249592 2.999999999999989 0.5146081522987447
    vertex -4.377027849930802 4.249999999999987 0.5146081522987447
    vertex -4.377027849930802 2.999999999999989 0.5146081522987447
  endloop
endfacet
facet normal -1.0 0.0 0.0
  outer loop
    vertex -13.36202784993076 4.249999999999987 4.0640081522987455
    vertex -13.36202784993076 2.999999999999989 0.5146081522987447
    vertex -13.36202784993076 2.999999999999989 4.0640081522987455
  endloop
endfacet
facet normal -1.0 0.0 0.0
  outer loop
    vertex -13.36202784993076 2.999999999999989 0.5146081522987447
    vertex -13.36202784993076 4.249999999999987 4.0640081522987455
    vertex -13.36202784993076 4.249999999999987 0.5146081522987447
  endloop
endfacet
facet normal 2.162675232908701e-17 0.7526888408358634 -0.6583764188374037
  outer loop
    vertex -8.869527849930781 2.999999999999989 4.358608152298745
    vertex -9.395638282729838 1.9999999999999907 3.215358152298745
    vertex -11.523027849930806 2.999999999999989 4.358608152298745
  endloop
endfacet
facet normal 0.0 -0.7391013160477236 -0.6735942729986079
  outer loop
    vertex -9.22026813846349 0.9999999999999923 2.7091081522987444
    vertex -13.36202784993076 2.999999999999989 0.5146081522987447
    vertex -8.713643277249592 2.999999999999989 0.5146081522987447
  endloop
endfacet
facet normal 0.4044150524637411 0.5880423975896665 -0.700467418212829
  outer loop
    vertex -8.869527849930781 2.999999999999989 4.358608152298745
    vertex -8.869527849930794 1.9999999999999907 3.5191081522987457
    vertex -9.395638282729838 1.9999999999999907 3.215358152298745
  endloop
endfacet
facet normal 0.31468010422696197 0.9491977833959099 2.156721665126516e-17
  outer loop
    vertex -12.412027849930764 2.999999999999989 3.064008152298745
    vertex -9.395638282729838 1.9999999999999907 2.607858152298745
    vertex -12.412027849930764 2.999999999999989 1.4646081522987442
  endloop
endfacet
facet normal -0.3859536122850528 -0.635735193816168 -0.668491265842448
  outer loop
    vertex -8.713643277249592 2.999999999999989 0.5146081522987447
    vertex -8.869527849930794 0.9999999999999923 2.506608152298745
    vertex -9.22026813846349 0.9999999999999923 2.7091081522987444
  endloop
endfacet
facet normal 2.0828832984671202e-17 -0.7391013160477237 0.6735942729986077
  outer loop
    vertex -12.473027849930803 2.999999999999989 5.308608152298745
    vertex -9.22026813846349 0.9999999999999926 3.114108152298744
    vertex -8.525027849930803 2.999999999999989 5.308608152298745
  endloop
endfacet
facet normal -0.523774794504508 -0.8518567747231692 0.0
  outer loop
    vertex -12.473027849930803 2.999999999999989 5.308608152298745
    vertex -12.473027849930803 2.999999999999989 4.0640081522987455
    vertex -9.22026813846349 0.9999999999999926 3.114108152298744
  endloop
endfacet
facet normal -3.773737833217097e-17 -0.7391013160477234 0.673594272998608
  outer loop
    vertex -8.525027849930803 2.999999999999989 5.308608152298745
    vertex -8.518787561398097 0.9999999999999926 3.114108152298746
    vertex -4.377027849930802 2.999999999999989 5.308608152298745
  endloop
endfacet
facet normal 0.4044150524637411 0.5880423975896665 0.7004674182128291
  outer loop
    vertex -8.869527849930781 2.999999999999989 1.4646081522987442
    vertex -9.395638282729838 1.9999999999999907 2.607858152298745
    vertex -8.869527849930794 1.9999999999999907 2.3041081522987445
  endloop
endfacet
facet normal -2.4268323105819184e-17 0.7526888408358638 0.6583764188374033
  outer loop
    vertex -8.343417417131748 1.9999999999999907 2.607858152298746
    vertex -5.327027849930801 2.999999999999989 1.4646081522987442
    vertex -8.869527849930781 2.999999999999989 1.4646081522987442
  endloop
endfacet
facet normal -1.208878107540427e-15 -0.42901996382847707 0.9032950075344224
  outer loop
    vertex -9.22026813846349 0.9999999999999926 3.114108152298744
    vertex -12.473027849930803 2.999999999999989 4.0640081522987455
    vertex -13.36202784993076 2.999999999999989 4.0640081522987455
  endloop
endfacet
facet normal -0.9849684979215584 0.17273406757831222 -3.4560090961066945e-17
  outer loop
    vertex -8.343417417131748 1.9999999999999907 3.215358152298745
    vertex -8.518787561398097 0.9999999999999926 3.0519042677118238
    vertex -8.518787561398097 0.9999999999999926 3.114108152298746
  endloop
endfacet
facet normal -0.9849684979215584 0.17273406757831222 -3.4560090961066945e-17
  outer loop
    vertex -8.518787561398097 0.9999999999999926 3.0519042677118238
    vertex -8.518787561398097 0.9999999999999923 2.7091081522987457
    vertex -8.518787561398097 0.9999999999999923 2.771312036885666
  endloop
endfacet
facet normal -0.9849684979215584 0.17273406757831222 -3.4560090961066945e-17
  outer loop
    vertex -8.518787561398097 0.9999999999999923 2.7091081522987457
    vertex -8.518787561398097 0.9999999999999926 3.0519042677118238
    vertex -8.343417417131748 1.9999999999999907 2.607858152298746
  endloop
endfacet
facet normal -0.9849684979215584 0.17273406757831222 -3.4560090961066945e-17
  outer loop
    vertex -8.343417417131748 1.9999999999999907 2.607858152298746
    vertex -8.518787561398097 0.9999999999999926 3.0519042677118238
    vertex -8.343417417131748 1.9999999999999907 3.215358152298745
  endloop
endfacet
facet normal 0.9849684979215584 0.17273406757831222 -1.2126155255366504e-17
  outer loop
    vertex -9.395638282729838 1.9999999999999907 2.607858152298745
    vertex -9.22026813846349 0.9999999999999923 2.771312036885666
    vertex -9.22026813846349 0.9999999999999923 2.7091081522987444
  endloop
endfacet
facet normal 0.9849684979215584 0.17273406757831222 -1.2126155255366504e-17
  outer loop
    vertex -9.22026813846349 0.9999999999999923 2.771312036885666
    vertex -9.395638282729838 1.9999999999999907 2.607858152298745
    vertex -9.22026813846349 0.9999999999999926 3.114108152298744
  endloop
endfacet
facet normal 0.9849684979215584 0.17273406757831222 -1.2126155255366504e-17
  outer loop
    vertex -9.22026813846349 0.9999999999999926 3.114108152298744
    vertex -9.395638282729838 1.9999999999999907 2.607858152298745
    vertex -9.395638282729838 1.9999999999999907 3.215358152298745
  endloop
endfacet
endsolid mark8_all
