solid mark8_all
facet normal 1.0 0.0 0.0
  outer loop
    vertex 85.85752786808244 78.38088184302204 -0.049999999999999906
    vertex 85.85752786808244 77.13088184302204 1.5494000000000006
    vertex 85.85752786808244 77.13088184302204 -0.049999999999999906
  endloop
endfacet
facet normal 1.0 0.0 0.0
  outer loop
    vertex 85.85752786808244 77.13088184302204 1.5494000000000006
    vertex 85.85752786808244 78.38088184302204 -0.049999999999999906
    vertex 85.85752786808244 78.38088184302204 1.5494000000000006
  endloop
endfacet
facet normal 1.0 0.0 0.0
  outer loop
    vertex 86.7465278680824 78.38088184302204 1.5494000000000006
    vertex 86.7465278680824 77.13088184302204 2.8440000000000007
    vertex 86.7465278680824 77.13088184302204 1.5494000000000006
  endloop
endfacet
facet normal 1.0 0.0 0.0
  outer loop
    vertex 86.7465278680824 77.13088184302204 2.8440000000000007
    vertex 86.7465278680824 78.38088184302204 1.5494000000000006
    vertex 86.7465278680824 78.38088184302204 2.8440000000000007
  endloop
endfacet
facet normal -1.0 0.0 0.0
  outer loop
    vertex 92.94252786808241 78.38088184302204 2.8440000000000007
    vertex 92.94252786808241 77.13088184302204 -0.049999999999999906
    vertex 92.94252786808241 77.13088184302204 2.8440000000000007
  endloop
endfacet
facet normal -1.0 0.0 0.0
  outer loop
    vertex 92.94252786808241 77.13088184302204 -0.049999999999999906
    vertex 92.94252786808241 78.38088184302204 2.8440000000000007
    vertex 92.94252786808241 78.38088184302204 -0.049999999999999906
  endloop
endfacet
facet normal 0.0 1.0 0.0
  outer loop
    vertex 84.90752786808244 78.38088184302204 -0.9999999999999996
    vertex 85.85752786808244 78.38088184302204 -0.049999999999999906
    vertex 93.8925278680824 78.38088184302204 -0.9999999999999996
  endloop
endfacet
facet normal 0.0 1.0 0.0
  outer loop
    vertex 85.85752786808244 78.38088184302204 -0.049999999999999906
    vertex 84.90752786808244 78.38088184302204 -0.9999999999999996
    vertex 84.90752786808244 78.38088184302204 2.5494000000000008
  endloop
endfacet
facet normal 0.0 1.0 0.0
  outer loop
    vertex 85.85752786808244 78.38088184302204 -0.049999999999999906
    vertex 84.90752786808244 78.38088184302204 2.5494000000000008
    vertex 85.85752786808244 78.38088184302204 1.5494000000000006
  endloop
endfacet
facet normal 0.0 1.0 0.0
  outer loop
    vertex 85.85752786808244 78.38088184302204 1.5494000000000006
    vertex 84.90752786808244 78.38088184302204 2.5494000000000008
    vertex 86.7465278680824 78.38088184302204 1.5494000000000006
  endloop
endfacet
facet normal 0.0 1.0 0.0
  outer loop
    vertex 86.7465278680824 78.38088184302204 1.5494000000000006
    vertex 84.90752786808244 78.38088184302204 2.5494000000000008
    vertex 85.7965278680824 78.38088184302204 2.5494000000000008
  endloop
endfacet
facet normal 0.0 1.0 0.0
  outer loop
    vertex 86.7465278680824 78.38088184302204 1.5494000000000006
    vertex 85.7965278680824 78.38088184302204 2.5494000000000008
    vertex 86.7465278680824 78.38088184302204 2.8440000000000007
  endloop
endfacet
facet normal 0.0 1.0 0.0
  outer loop
    vertex 86.7465278680824 78.38088184302204 2.8440000000000007
    vertex 85.7965278680824 78.38088184302204 2.5494000000000008
    vertex 85.7965278680824 78.38088184302204 3.7940000000000005
  endloop
endfacet
facet normal 0.0 1.0 0.0
  outer loop
    vertex 86.7465278680824 78.38088184302204 2.8440000000000007
    vertex 85.7965278680824 78.38088184302204 3.7940000000000005
    vertex 92.94252786808241 78.38088184302204 2.8440000000000007
  endloop
endfacet
facet normal 0.0 1.0 0.0
  outer loop
    vertex 93.8925278680824 78.38088184302204 -0.9999999999999996
    vertex 92.94252786808241 78.38088184302204 -0.049999999999999906
    vertex 93.8925278680824 78.38088184302204 3.7940000000000005
  endloop
endfacet
facet normal 0.0 1.0 0.0
  outer loop
    vertex 92.94252786808241 78.38088184302204 -0.049999999999999906
    vertex 93.8925278680824 78.38088184302204 -0.9999999999999996
    vertex 85.85752786808244 78.38088184302204 -0.049999999999999906
  endloop
endfacet
facet normal 0.0 1.0 0.0
  outer loop
    vertex 93.8925278680824 78.38088184302204 3.7940000000000005
    vertex 92.94252786808241 78.38088184302204 -0.049999999999999906
    vertex 92.94252786808241 78.38088184302204 2.8440000000000007
  endloop
endfacet
facet normal 0.0 1.0 0.0
  outer loop
    vertex 93.8925278680824 78.38088184302204 3.7940000000000005
    vertex 92.94252786808241 78.38088184302204 2.8440000000000007
    vertex 85.7965278680824 78.38088184302204 3.7940000000000005
  endloop
endfacet
facet normal 0.4966174496949121 0.11612249839757716 -0.8601666547968634
  outer loop
    vertex 89.4000278680824 76.13088184302204 1.8020000000000012
    vertex 89.16620100906061 75.13088184302204 1.5320000000000005
    vertex 89.04928757954971 76.13088184302204 1.5995000000000008
  endloop
endfacet
facet normal 0.4966174496949121 0.11612249839757716 -0.8601666547968634
  outer loop
    vertex 89.16620100906061 75.13088184302204 1.5320000000000005
    vertex 89.4000278680824 76.13088184302204 1.8020000000000012
    vertex 89.4000278680824 75.13088184302204 1.667000000000001
  endloop
endfacet
facet normal 0.3522929345329057 -0.7096187378534873 0.6101892617585281
  outer loop
    vertex 89.7445278680824 77.13088184302204 3.7940000000000005
    vertex 89.4000278680824 75.13088184302204 1.667000000000001
    vertex 89.63385472710421 75.13088184302204 1.5320000000000011
  endloop
endfacet
facet normal 4.242048302383774e-17 0.7795225883744726 0.6263741168135561
  outer loop
    vertex 89.04928757954971 76.13088184302204 1.1945000000000008
    vertex 89.40002786808242 77.13088184302204 -0.049999999999999906
    vertex 85.85752786808244 77.13088184302204 -0.049999999999999906
  endloop
endfacet
facet normal -0.3712040460354454 0.6699479269522867 0.6429442677085229
  outer loop
    vertex 89.75076815661511 76.13088184302204 1.194500000000001
    vertex 89.40002786808242 77.13088184302204 -0.049999999999999906
    vertex 89.4000278680824 76.13088184302204 0.9920000000000003
  endloop
endfacet
facet normal 0.42508669297130564 -0.9051526409720733 -3.0113347325853186e-17
  outer loop
    vertex 93.8925278680824 77.13088184302204 3.7940000000000005
    vertex 89.63385472710421 75.13088184302204 1.2620000000000011
    vertex 93.8925278680824 77.13088184302204 -0.9999999999999996
  endloop
endfacet
facet normal 0.42508669297130564 -0.9051526409720733 -3.0113347325853186e-17
  outer loop
    vertex 89.63385472710421 75.13088184302204 1.2620000000000011
    vertex 93.8925278680824 77.13088184302204 3.7940000000000005
    vertex 89.63385472710421 75.13088184302204 1.3034692563912817
  endloop
endfacet
facet normal 0.42508669297130564 -0.9051526409720733 -3.0113347325853186e-17
  outer loop
    vertex 89.63385472710421 75.13088184302204 1.3034692563912817
    vertex 93.8925278680824 77.13088184302204 3.7940000000000005
    vertex 89.63385472710421 75.13088184302204 1.4905307436087198
  endloop
endfacet
facet normal 0.42508669297130564 -0.9051526409720733 -3.0113347325853186e-17
  outer loop
    vertex 89.63385472710421 75.13088184302204 1.4905307436087198
    vertex 93.8925278680824 77.13088184302204 3.7940000000000005
    vertex 89.63385472710421 75.13088184302204 1.5320000000000011
  endloop
endfacet
facet normal 0.3983241180808467 0.9172447312223253 1.0916243135592027e-16
  outer loop
    vertex 86.7465278680824 77.13088184302204 2.8440000000000007
    vertex 89.04928757954971 76.13088184302204 1.5995000000000008
    vertex 86.7465278680824 77.13088184302204 1.5494000000000006
  endloop
endfacet
facet normal 0.3606956138350525 -0.6925277587509578 -0.6247431292295497
  outer loop
    vertex 89.63385472710421 75.13088184302204 1.2620000000000011
    vertex 89.4000278680824 75.13088184302204 1.1270000000000007
    vertex 89.5559124407636 77.13088184302204 -0.9999999999999996
  endloop
endfacet
facet normal 0.0 0.0 1.0
  outer loop
    vertex 89.7445278680824 77.13088184302204 3.7940000000000005
    vertex 85.7965278680824 78.38088184302204 3.7940000000000005
    vertex 85.7965278680824 77.13088184302204 3.7940000000000005
  endloop
endfacet
facet normal 0.0 0.0 1.0
  outer loop
    vertex 85.7965278680824 78.38088184302204 3.7940000000000005
    vertex 89.7445278680824 77.13088184302204 3.7940000000000005
    vertex 93.8925278680824 78.38088184302204 3.7940000000000005
  endloop
endfacet
facet normal 0.0 0.0 1.0
  outer loop
    vertex 93.8925278680824 78.38088184302204 3.7940000000000005
    vertex 89.7445278680824 77.13088184302204 3.7940000000000005
    vertex 93.8925278680824 77.13088184302204 3.7940000000000005
  endloop
endfacet
facet normal 0.0 0.0 -1.0
  outer loop
    vertex 92.94252786808241 78.38088184302204 2.8440000000000007
    vertex 86.7465278680824 77.13088184302204 2.8440000000000007
    vertex 86.7465278680824 78.38088184302204 2.8440000000000007
  endloop
endfacet
facet normal 0.0 0.0 -1.0
  outer loop
    vertex 86.7465278680824 77.13088184302204 2.8440000000000007
    vertex 92.94252786808241 78.38088184302204 2.8440000000000007
    vertex 89.40002786808242 77.13088184302204 2.8440000000000007
  endloop
endfacet
facet normal 0.0 0.0 -1.0
  outer loop
    vertex 89.40002786808242 77.13088184302204 2.8440000000000007
    vertex 92.94252786808241 78.38088184302204 2.8440000000000007
    vertex 92.94252786808241 77.13088184302204 2.8440000000000007
  endloop
endfacet
facet normal -1.0 0.0 0.0
  outer loop
    vertex 85.7965278680824 78.38088184302204 3.7940000000000005
    vertex 85.7965278680824 77.13088184302204 2.5494000000000008
    vertex 85.7965278680824 77.13088184302204 3.7940000000000005
  endloop
endfacet
facet normal -1.0 0.0 0.0
  outer loop
    vertex 85.7965278680824 77.13088184302204 2.5494000000000008
    vertex 85.7965278680824 78.38088184302204 3.7940000000000005
    vertex 85.7965278680824 78.38088184302204 2.5494000000000008
  endloop
endfacet
facet normal 0.0 0.0 1.0
  outer loop
    vertex 85.7965278680824 77.13088184302204 2.5494000000000008
    vertex 84.90752786808244 78.38088184302204 2.5494000000000008
    vertex 84.90752786808244 77.13088184302204 2.5494000000000008
  endloop
endfacet
facet normal 0.0 0.0 1.0
  outer loop
    vertex 84.90752786808244 78.38088184302204 2.5494000000000008
    vertex 85.7965278680824 77.13088184302204 2.5494000000000008
    vertex 85.7965278680824 78.38088184302204 2.5494000000000008
  endloop
endfacet
facet normal 0.0 0.0 1.0
  outer loop
    vertex 89.40002786808242 77.13088184302204 -0.049999999999999906
    vertex 85.85752786808244 78.38088184302204 -0.049999999999999906
    vertex 85.85752786808244 77.13088184302204 -0.049999999999999906
  endloop
endfacet
facet normal 0.0 0.0 1.0
  outer loop
    vertex 85.85752786808244 78.38088184302204 -0.049999999999999906
    vertex 89.40002786808242 77.13088184302204 -0.049999999999999906
    vertex 92.94252786808241 78.38088184302204 -0.049999999999999906
  endloop
endfacet
facet normal 0.0 0.0 1.0
  outer loop
    vertex 92.94252786808241 78.38088184302204 -0.049999999999999906
    vertex 89.40002786808242 77.13088184302204 -0.049999999999999906
    vertex 92.94252786808241 77.13088184302204 -0.049999999999999906
  endloop
endfacet
facet normal -2.12102415119189e-17 0.7795225883744723 -0.6263741168135565
  outer loop
    vertex 92.94252786808241 77.13088184302204 2.8440000000000007
    vertex 89.75076815661511 76.13088184302204 1.5995000000000013
    vertex 89.40002786808242 77.13088184302204 2.8440000000000007
  endloop
endfacet
facet normal 0.39832411808084683 0.9172447312223253 2.788523877941876e-16
  outer loop
    vertex 89.04928757954971 76.13088184302204 1.5995000000000008
    vertex 89.04928757954971 76.13088184302204 1.1945000000000008
    vertex 86.7465278680824 77.13088184302204 1.5494000000000006
  endloop
endfacet
facet normal -0.49661744969491095 0.11612249839757698 -0.8601666547968638
  outer loop
    vertex 89.75076815661511 76.13088184302204 1.5995000000000013
    vertex 89.4000278680824 75.13088184302204 1.667000000000001
    vertex 89.4000278680824 76.13088184302204 1.8020000000000012
  endloop
endfacet
facet normal -0.49661744969491095 0.11612249839757698 -0.8601666547968638
  outer loop
    vertex 89.4000278680824 75.13088184302204 1.667000000000001
    vertex 89.75076815661511 76.13088184302204 1.5995000000000013
    vertex 89.63385472710421 75.13088184302204 1.5320000000000011
  endloop
endfacet
facet normal 0.4966174496949118 0.11612249839757702 0.8601666547968635
  outer loop
    vertex 89.16620100906061 75.13088184302204 1.2620000000000007
    vertex 89.4000278680824 76.13088184302204 0.9920000000000003
    vertex 89.04928757954971 76.13088184302204 1.1945000000000008
  endloop
endfacet
facet normal 0.4966174496949118 0.11612249839757702 0.8601666547968635
  outer loop
    vertex 89.4000278680824 76.13088184302204 0.9920000000000003
    vertex 89.16620100906061 75.13088184302204 1.2620000000000007
    vertex 89.4000278680824 75.13088184302204 1.1270000000000007
  endloop
endfacet
facet normal -0.29897630791635416 0.954260534290665 -2.4160891530562388e-15
  outer loop
    vertex 92.94252786808241 77.13088184302204 2.8440000000000007
    vertex 89.75076815661511 76.13088184302204 1.194500000000001
    vertex 89.75076815661511 76.13088184302204 1.5995000000000013
  endloop
endfacet
facet normal -0.49661744969491256 0.11612249839757699 0.860166654796863
  outer loop
    vertex 89.63385472710421 75.13088184302204 1.2620000000000011
    vertex 89.4000278680824 76.13088184302204 0.9920000000000003
    vertex 89.4000278680824 75.13088184302204 1.1270000000000007
  endloop
endfacet
facet normal -0.49661744969491256 0.11612249839757699 0.860166654796863
  outer loop
    vertex 89.4000278680824 76.13088184302204 0.9920000000000003
    vertex 89.63385472710421 75.13088184302204 1.2620000000000011
    vertex 89.75076815661511 76.13088184302204 1.194500000000001
  endloop
endfacet
facet normal -0.2989763079163551 0.9542605342906648 -1.1829488247556542e-17
  outer loop
    vertex 92.94252786808241 77.13088184302204 2.8440000000000007
    vertex 92.94252786808241 77.13088184302204 -0.049999999999999906
    vertex 89.75076815661511 76.13088184302204 1.194500000000001
  endloop
endfacet
facet normal -0.37120404603544427 0.6699479269522867 -0.6429442677085234
  outer loop
    vertex 89.40002786808242 77.13088184302204 2.8440000000000007
    vertex 89.75076815661511 76.13088184302204 1.5995000000000013
    vertex 89.4000278680824 76.13088184302204 1.8020000000000012
  endloop
endfacet
facet normal 0.9932348993898195 0.11612249839757652 -1.3756415253911526e-17
  outer loop
    vertex 89.04928757954971 76.13088184302204 1.1945000000000008
    vertex 89.16620100906061 75.13088184302204 1.3034692563912817
    vertex 89.16620100906061 75.13088184302204 1.2620000000000007
  endloop
endfacet
facet normal 0.9932348993898195 0.11612249839757652 -1.3756415253911526e-17
  outer loop
    vertex 89.16620100906061 75.13088184302204 1.3034692563912817
    vertex 89.04928757954971 76.13088184302204 1.1945000000000008
    vertex 89.16620100906061 75.13088184302204 1.5320000000000005
  endloop
endfacet
facet normal 0.9932348993898195 0.11612249839757652 -1.3756415253911526e-17
  outer loop
    vertex 89.16620100906061 75.13088184302204 1.5320000000000005
    vertex 89.04928757954971 76.13088184302204 1.1945000000000008
    vertex 89.04928757954971 76.13088184302204 1.5995000000000008
  endloop
endfacet
facet normal 1.0 0.0 0.0
  outer loop
    vertex 93.8925278680824 78.38088184302204 -0.9999999999999996
    vertex 93.8925278680824 77.13088184302204 3.7940000000000005
    vertex 93.8925278680824 77.13088184302204 -0.9999999999999996
  endloop
endfacet
facet normal 1.0 0.0 0.0
  outer loop
    vertex 93.8925278680824 77.13088184302204 3.7940000000000005
    vertex 93.8925278680824 78.38088184302204 -0.9999999999999996
    vertex 93.8925278680824 78.38088184302204 3.7940000000000005
  endloop
endfacet
facet normal -0.9932348993898195 0.11612249839757649 1.3429846551777057e-17
  outer loop
    vertex 89.75076815661511 76.13088184302204 1.5995000000000013
    vertex 89.63385472710421 75.13088184302204 1.4905307436087198
    vertex 89.63385472710421 75.13088184302204 1.5320000000000011
  endloop
endfacet
facet normal -0.9932348993898195 0.11612249839757649 1.3429846551777057e-17
  outer loop
    vertex 89.63385472710421 75.13088184302204 1.4905307436087198
    vertex 89.75076815661511 76.13088184302204 1.5995000000000013
    vertex 89.63385472710421 75.13088184302204 1.3034692563912817
  endloop
endfacet
facet normal -0.9932348993898195 0.11612249839757649 1.3429846551777057e-17
  outer loop
    vertex 89.63385472710421 75.13088184302204 1.3034692563912817
    vertex 89.75076815661511 76.13088184302204 1.5995000000000013
    vertex 89.63385472710421 75.13088184302204 1.2620000000000011
  endloop
endfacet
facet normal -0.9932348993898195 0.11612249839757649 1.3429846551777057e-17
  outer loop
    vertex 89.63385472710421 75.13088184302204 1.2620000000000011
    vertex 89.75076815661511 76.13088184302204 1.5995000000000013
    vertex 89.75076815661511 76.13088184302204 1.194500000000001
  endloop
endfacet
facet normal 0.0 0.0 -1.0
  outer loop
    vertex 93.8925278680824 78.38088184302204 -0.9999999999999996
    vertex 84.90752786808244 77.13088184302204 -0.9999999999999996
    vertex 84.90752786808244 78.38088184302204 -0.9999999999999996
  endloop
endfacet
facet normal 0.0 0.0 -1.0
  outer loop
    vertex 84.90752786808244 77.13088184302204 -0.9999999999999996
    vertex 93.8925278680824 78.38088184302204 -0.9999999999999996
    vertex 89.5559124407636 77.13088184302204 -0.9999999999999996
  endloop
endfacet
facet normal 0.0 0.0 -1.0
  outer loop
    vertex 89.5559124407636 77.13088184302204 -0.9999999999999996
    vertex 93.8925278680824 78.38088184302204 -0.9999999999999996
    vertex 93.8925278680824 77.13088184302204 -0.9999999999999996
  endloop
endfacet
facet normal -1.0 0.0 0.0
  outer loop
    vertex 84.90752786808244 78.38088184302204 2.5494000000000008
    vertex 84.90752786808244 77.13088184302204 -0.9999999999999996
    vertex 84.90752786808244 77.13088184302204 2.5494000000000008
  endloop
endfacet
facet normal -1.0 0.0 0.0
  outer loop
    vertex 84.90752786808244 77.13088184302204 -0.9999999999999996
    vertex 84.90752786808244 78.38088184302204 2.5494000000000008
    vertex 84.90752786808244 78.38088184302204 -0.9999999999999996
  endloop
endfacet
facet normal 0.0 0.0 -1.0
  outer loop
    vertex 86.7465278680824 78.38088184302204 1.5494000000000006
    vertex 85.85752786808244 77.13088184302204 1.5494000000000006
    vertex 85.85752786808244 78.38088184302204 1.5494000000000006
  endloop
endfacet
facet normal 0.0 0.0 -1.0
  outer loop
    vertex 85.85752786808244 77.13088184302204 1.5494000000000006
    vertex 86.7465278680824 78.38088184302204 1.5494000000000006
    vertex 86.7465278680824 77.13088184302204 1.5494000000000006
  endloop
endfacet
facet normal 0.0 0.7795225883744724 -0.6263741168135565
  outer loop
    vertex 89.40002786808242 77.13088184302204 2.8440000000000007
    vertex 89.04928757954971 76.13088184302204 1.5995000000000008
    vertex 86.7465278680824 77.13088184302204 2.8440000000000007
  endloop
endfacet
facet normal -2.8668318123989747e-17 -0.7491608996371496 -0.6623880633396534
  outer loop
    vertex 89.16620100906061 75.13088184302204 1.2620000000000007
    vertex 84.90752786808244 77.13088184302204 -0.9999999999999996
    vertex 89.5559124407636 77.13088184302204 -0.9999999999999996
  endloop
endfacet
facet normal 0.3712040460354467 0.669947926952282 -0.6429442677085269
  outer loop
    vertex 89.40002786808242 77.13088184302204 2.8440000000000007
    vertex 89.4000278680824 76.13088184302204 1.8020000000000012
    vertex 89.04928757954971 76.13088184302204 1.5995000000000008
  endloop
endfacet
facet normal 0.29897630791635693 0.9542605342906642 0.0
  outer loop
    vertex 85.85752786808244 77.13088184302204 1.5494000000000006
    vertex 89.04928757954971 76.13088184302204 1.1945000000000008
    vertex 85.85752786808244 77.13088184302204 -0.049999999999999906
  endloop
endfacet
facet normal -0.3749758595089869 -0.6614925692265822 -0.6494772402813759
  outer loop
    vertex 89.16620100906061 75.13088184302204 1.2620000000000007
    vertex 89.5559124407636 77.13088184302204 -0.9999999999999996
    vertex 89.4000278680824 75.13088184302204 1.1270000000000007
  endloop
endfacet
facet normal -1.987110571019828e-17 -0.7491608996371496 0.6623880633396535
  outer loop
    vertex 85.7965278680824 77.13088184302204 3.7940000000000005
    vertex 89.16620100906061 75.13088184302204 1.5320000000000005
    vertex 89.7445278680824 77.13088184302204 3.7940000000000005
  endloop
endfacet
facet normal -0.510398476278156 -0.859938018355356 0.0
  outer loop
    vertex 85.7965278680824 77.13088184302204 3.7940000000000005
    vertex 85.7965278680824 77.13088184302204 2.5494000000000008
    vertex 89.16620100906061 75.13088184302204 1.5320000000000005
  endloop
endfacet
facet normal 0.0 -0.7491608996371494 0.6623880633396536
  outer loop
    vertex 89.7445278680824 77.13088184302204 3.7940000000000005
    vertex 89.63385472710421 75.13088184302204 1.5320000000000011
    vertex 93.8925278680824 77.13088184302204 3.7940000000000005
  endloop
endfacet
facet normal 0.371204046035447 0.6699479269522821 0.6429442677085268
  outer loop
    vertex 89.04928757954971 76.13088184302204 1.1945000000000008
    vertex 89.4000278680824 76.13088184302204 0.9920000000000003
    vertex 89.40002786808242 77.13088184302204 -0.049999999999999906
  endloop
endfacet
facet normal -3.1530625439506386e-16 0.3344611458970531 -0.942409540425621
  outer loop
    vertex 89.04928757954971 76.13088184302204 1.1945000000000008
    vertex 85.85752786808244 77.13088184302204 1.5494000000000006
    vertex 86.7465278680824 77.13088184302204 1.5494000000000006
  endloop
endfacet
facet normal 0.0 0.7795225883744727 0.6263741168135561
  outer loop
    vertex 89.75076815661511 76.13088184302204 1.194500000000001
    vertex 92.94252786808241 77.13088184302204 -0.049999999999999906
    vertex 89.40002786808242 77.13088184302204 -0.049999999999999906
  endloop
endfacet
facet normal 0.0 -0.4534063144397114 0.8913039403178904
  outer loop
    vertex 89.16620100906061 75.13088184302204 1.5320000000000005
    vertex 85.7965278680824 77.13088184302204 2.5494000000000008
    vertex 84.90752786808244 77.13088184302204 2.5494000000000008
  endloop
endfacet
facet normal -0.4250866929713075 -0.9051526409720724 0.0
  outer loop
    vertex 89.16620100906061 75.13088184302204 1.2620000000000007
    vertex 84.90752786808244 77.13088184302204 2.5494000000000008
    vertex 84.90752786808244 77.13088184302204 -0.9999999999999996
  endloop
endfacet
facet normal -0.4250866929713075 -0.9051526409720724 0.0
  outer loop
    vertex 84.90752786808244 77.13088184302204 2.5494000000000008
    vertex 89.16620100906061 75.13088184302204 1.2620000000000007
    vertex 89.16620100906061 75.13088184302204 1.3034692563912817
  endloop
endfacet
facet normal -0.4250866929713075 -0.9051526409720724 0.0
  outer loop
    vertex 84.90752786808244 77.13088184302204 2.5494000000000008
    vertex 89.16620100906061 75.13088184302204 1.3034692563912817
    vertex 89.16620100906061 75.13088184302204 1.5320000000000005
  endloop
endfacet
facet normal -0.38381606833137843 -0.6408907104667548 0.6647889311112671
  outer loop
    vertex 89.7445278680824 77.13088184302204 3.7940000000000005
    vertex 89.16620100906061 75.13088184302204 1.5320000000000005
    vertex 89.4000278680824 75.13088184302204 1.667000000000001
  endloop
endfacet
facet normal 0.0 -0.7491608996371496 -0.6623880633396534
  outer loop
    vertex 89.63385472710421 75.13088184302204 1.2620000000000011
    vertex 89.5559124407636 77.13088184302204 -0.9999999999999996
    vertex 93.8925278680824 77.13088184302204 -0.9999999999999996
  endloop
endfacet
endsolid mark8_all
