solid mark9_mountidea
facet normal 0.9999999977840051 4.94343548270055e-05 4.4589626644868966e-05
  outer loop
    vertex 18.03061676444456 23.83536510925806 0.0
    vertex 18.03061676444456 23.83536510925806 1.8719129999999997
    vertex 18.03061677857923 23.835365100578052 0.5302550000000018
  endloop
endfacet
facet normal 0.9999999977840051 4.94343548270055e-05 4.4589626644868966e-05
  outer loop
    vertex 18.03061676444456 23.83536510925806 1.8719129999999997
    vertex 18.03061676444456 23.83536510925806 0.0
    vertex 18.03061676444456 25.527417369627866 1.4099832412739487e-15
  endloop
endfacet
facet normal 0.9999999977840051 4.94343548270055e-05 4.4589626644868966e-05
  outer loop
    vertex 18.03061676444456 23.83536510925806 1.8719129999999997
    vertex 18.03061676444456 25.527417369627866 1.4099832412739487e-15
    vertex 18.03044981535755 25.527658117914374 1.8642449769794915
  endloop
endfacet
facet normal 0.0 0.9999999916614517 -0.0001291398327262294
  outer loop
    vertex 3.791945453586026 25.527658117914374 1.8642449769794915
    vertex 18.03061676444456 25.527417369627866 1.4099832412739487e-15
    vertex 3.7921124026730393 25.527417369627866 1.4099832412739487e-15
  endloop
endfacet
facet normal 0.0 0.9999999916614517 -0.0001291398327262294
  outer loop
    vertex 18.03061676444456 25.527417369627866 1.4099832412739487e-15
    vertex 3.791945453586026 25.527658117914374 1.8642449769794915
    vertex 18.03044981535755 25.527658117914374 1.8642449769794915
  endloop
endfacet
facet normal -0.999999997320344 -3.208828473368744e-07 -7.320662186325179e-05
  outer loop
    vertex 3.7919447543541787 17.868267147003788 1.8688213411204424
    vertex 3.7919454891899056 17.868265109257845 1.0445997540917134
    vertex 3.791945453586026 10.738103857544731 1.8642449769794915
  endloop
endfacet
facet normal -0.999999997320344 -3.208828473368744e-07 -7.320662186325179e-05
  outer loop
    vertex 3.791945483682184 18.023265010855088 1.4445997895167535
    vertex 3.791945485807537 17.963265109257847 1.0445997803170455
    vertex 3.791945485818417 17.963265010855096 1.4445997803170336
  endloop
endfacet
facet normal -0.999999997320344 -3.208828473368744e-07 -7.320662186325179e-05
  outer loop
    vertex 3.791945479597829 18.148265049145895 1.444599820767377
    vertex 3.791945481357052 18.08826510925784 1.0445998110242618
    vertex 3.7919454817340617 18.0882650491459 1.4445998110242573
  endloop
endfacet
facet normal -0.999999997320344 -3.208828473368744e-07 -7.320662186325179e-05
  outer loop
    vertex 3.791945474809081 18.273265038900334 1.4445998537605802
    vertex 3.7919454769065672 18.213265109257833 1.0445998426510745
    vertex 3.7919454769453136 18.213265038900335 1.4445998426510684
  endloop
endfacet
facet normal -0.999999997320344 -3.208828473368744e-07 -7.320662186325179e-05
  outer loop
    vertex 3.7919454703452105 18.396886868486092 1.4445998954418318
    vertex 3.791945472456083 18.338265109258014 1.044599878406294
    vertex 3.791945472432377 18.33826499533846 1.4445998784062781
  endloop
endfacet
facet normal -0.999999997320344 -3.208828473368744e-07 -7.320662186325179e-05
  outer loop
    vertex 3.7919454654153077 18.523264958357544 1.4445999351862704
    vertex 3.7919454680055975 18.463265109258007 1.0445999131909376
    vertex 3.7919454675515407 18.46326495835755 1.444599913190909
  endloop
endfacet
facet normal -0.999999997320344 -3.208828473368744e-07 -7.320662186325179e-05
  outer loop
    vertex 3.7919454623760562 18.64826509828904 1.4445999842628636
    vertex 3.7919454635551126 18.588265109258003 1.044599983278696
    vertex 3.7919454645122896 18.588265098289042 1.444599983278696
  endloop
endfacet
facet normal -0.999999997320344 -3.208828473368744e-07 -7.320662186325179e-05
  outer loop
    vertex 3.791945457629065 18.773265084471873 1.4445999883193568
    vertex 3.7919454591046273 18.713265109258003 1.044599986395227
    vertex 3.7919454597652975 18.713265084471875 1.4445999863952268
  endloop
endfacet
facet normal -0.999999997320344 -3.208828473368744e-07 -7.320662186325179e-05
  outer loop
    vertex 3.791945453586026 25.527658117914374 1.8642449769794915
    vertex 3.791945453586026 18.868265109257997 1.0446000000000013
    vertex 3.791945453586026 18.868265109257997 1.8680789884897464
  endloop
endfacet
facet normal -0.999999997320344 -3.208828473368744e-07 -7.320662186325179e-05
  outer loop
    vertex 3.791945453586026 18.868265109257997 1.0446000000000013
    vertex 3.791945453586026 25.527658117914374 1.8642449769794915
    vertex 3.7921124026730393 25.527417369627866 1.4099832412739487e-15
  endloop
endfacet
facet normal -0.999999997320344 -3.208828473368744e-07 -7.320662186325179e-05
  outer loop
    vertex 3.791945453586026 10.738103857544731 1.8642449769794915
    vertex 3.7921124026730393 25.527417369627866 1.4099832412739487e-15
    vertex 3.7921124026730393 10.737863109258235 1.4099832412739487e-15
  endloop
endfacet
facet normal -0.999999997320344 -3.208828473368744e-07 -7.320662186325179e-05
  outer loop
    vertex 3.7921124026730393 25.527417369627866 1.4099832412739487e-15
    vertex 3.791945453586026 10.738103857544731 1.8642449769794915
    vertex 3.7919454891899056 17.868265109257845 1.0445997540917134
  endloop
endfacet
facet normal -0.999999997320344 -3.208828473368744e-07 -7.320662186325179e-05
  outer loop
    vertex 3.7921124026730393 25.527417369627866 1.4099832412739487e-15
    vertex 3.7919454891899056 17.868265109257845 1.0445997540917134
    vertex 3.791945485807537 17.963265109257847 1.0445997803170455
  endloop
endfacet
facet normal -0.999999997320344 -3.208828473368744e-07 -7.320662186325179e-05
  outer loop
    vertex 3.7921124026730393 25.527417369627866 1.4099832412739487e-15
    vertex 3.791945485807537 17.963265109257847 1.0445997803170455
    vertex 3.791945483671304 18.02326510925784 1.0445997895167654
  endloop
endfacet
facet normal -0.999999997320344 -3.208828473368744e-07 -7.320662186325179e-05
  outer loop
    vertex 3.791945483671304 18.02326510925784 1.0445997895167654
    vertex 3.791945485807537 17.963265109257847 1.0445997803170455
    vertex 3.791945483682184 18.023265010855088 1.4445997895167535
  endloop
endfacet
facet normal -0.999999997320344 -3.208828473368744e-07 -7.320662186325179e-05
  outer loop
    vertex 3.7921124026730393 25.527417369627866 1.4099832412739487e-15
    vertex 3.791945483671304 18.02326510925784 1.0445997895167654
    vertex 3.791945481357052 18.08826510925784 1.0445998110242618
  endloop
endfacet
facet normal -0.999999997320344 -3.208828473368744e-07 -7.320662186325179e-05
  outer loop
    vertex 3.7921124026730393 25.527417369627866 1.4099832412739487e-15
    vertex 3.791945481357052 18.08826510925784 1.0445998110242618
    vertex 3.7919454792208196 18.14826510925783 1.0445998207673812
  endloop
endfacet
facet normal -0.999999997320344 -3.208828473368744e-07 -7.320662186325179e-05
  outer loop
    vertex 3.7919454792208196 18.14826510925783 1.0445998207673812
    vertex 3.791945481357052 18.08826510925784 1.0445998110242618
    vertex 3.791945479597829 18.148265049145895 1.444599820767377
  endloop
endfacet
facet normal -0.999999997320344 -3.208828473368744e-07 -7.320662186325179e-05
  outer loop
    vertex 3.7921124026730393 25.527417369627866 1.4099832412739487e-15
    vertex 3.7919454792208196 18.14826510925783 1.0445998207673812
    vertex 3.7919454769065672 18.213265109257833 1.0445998426510745
  endloop
endfacet
facet normal -0.999999997320344 -3.208828473368744e-07 -7.320662186325179e-05
  outer loop
    vertex 3.7921124026730393 25.527417369627866 1.4099832412739487e-15
    vertex 3.7919454769065672 18.213265109257833 1.0445998426510745
    vertex 3.7919454747703347 18.27326510925783 1.0445998537605867
  endloop
endfacet
facet normal -0.999999997320344 -3.208828473368744e-07 -7.320662186325179e-05
  outer loop
    vertex 3.7919454747703347 18.27326510925783 1.0445998537605867
    vertex 3.7919454769065672 18.213265109257833 1.0445998426510745
    vertex 3.791945474809081 18.273265038900334 1.4445998537605802
  endloop
endfacet
facet normal -0.999999997320344 -3.208828473368744e-07 -7.320662186325179e-05
  outer loop
    vertex 3.7921124026730393 25.527417369627866 1.4099832412739487e-15
    vertex 3.7919454747703347 18.27326510925783 1.0445998537605867
    vertex 3.791945472456083 18.338265109258014 1.044599878406294
  endloop
endfacet
facet normal -0.999999997320344 -3.208828473368744e-07 -7.320662186325179e-05
  outer loop
    vertex 3.7921124026730393 25.527417369627866 1.4099832412739487e-15
    vertex 3.791945472456083 18.338265109258014 1.044599878406294
    vertex 3.7919454703689164 18.39688698240565 1.0445998954418478
  endloop
endfacet
facet normal -0.999999997320344 -3.208828473368744e-07 -7.320662186325179e-05
  outer loop
    vertex 3.7919454703689164 18.39688698240565 1.0445998954418478
    vertex 3.791945472456083 18.338265109258014 1.044599878406294
    vertex 3.7919454703452105 18.396886868486092 1.4445998954418318
  endloop
endfacet
facet normal -0.999999997320344 -3.208828473368744e-07 -7.320662186325179e-05
  outer loop
    vertex 3.7921124026730393 25.527417369627866 1.4099832412739487e-15
    vertex 3.7919454703689164 18.39688698240565 1.0445998954418478
    vertex 3.7919454680055975 18.463265109258007 1.0445999131909376
  endloop
endfacet
facet normal -0.999999997320344 -3.208828473368744e-07 -7.320662186325179e-05
  outer loop
    vertex 3.7921124026730393 25.527417369627866 1.4099832412739487e-15
    vertex 3.7919454680055975 18.463265109258007 1.0445999131909376
    vertex 3.7919454658693645 18.523265109258002 1.044599935186299
  endloop
endfacet
facet normal -0.999999997320344 -3.208828473368744e-07 -7.320662186325179e-05
  outer loop
    vertex 3.7919454658693645 18.523265109258002 1.044599935186299
    vertex 3.7919454680055975 18.463265109258007 1.0445999131909376
    vertex 3.7919454654153077 18.523264958357544 1.4445999351862704
  endloop
endfacet
facet normal -0.999999997320344 -3.208828473368744e-07 -7.320662186325179e-05
  outer loop
    vertex 3.7921124026730393 25.527417369627866 1.4099832412739487e-15
    vertex 3.7919454658693645 18.523265109258002 1.044599935186299
    vertex 3.7919454635551126 18.588265109258003 1.044599983278696
  endloop
endfacet
facet normal -0.999999997320344 -3.208828473368744e-07 -7.320662186325179e-05
  outer loop
    vertex 3.7921124026730393 25.527417369627866 1.4099832412739487e-15
    vertex 3.7919454635551126 18.588265109258003 1.044599983278696
    vertex 3.7919454614188792 18.648265109258002 1.0445999842628637
  endloop
endfacet
facet normal -0.999999997320344 -3.208828473368744e-07 -7.320662186325179e-05
  outer loop
    vertex 3.7919454614188792 18.648265109258002 1.0445999842628637
    vertex 3.7919454635551126 18.588265109258003 1.044599983278696
    vertex 3.7919454623760562 18.64826509828904 1.4445999842628636
  endloop
endfacet
facet normal -0.999999997320344 -3.208828473368744e-07 -7.320662186325179e-05
  outer loop
    vertex 3.7921124026730393 25.527417369627866 1.4099832412739487e-15
    vertex 3.7919454614188792 18.648265109258002 1.0445999842628637
    vertex 3.7919454591046273 18.713265109258003 1.044599986395227
  endloop
endfacet
facet normal -0.999999997320344 -3.208828473368744e-07 -7.320662186325179e-05
  outer loop
    vertex 3.7921124026730393 25.527417369627866 1.4099832412739487e-15
    vertex 3.7919454591046273 18.713265109258003 1.044599986395227
    vertex 3.791945456968395 18.773265109258002 1.0445999883193575
  endloop
endfacet
facet normal -0.999999997320344 -3.208828473368744e-07 -7.320662186325179e-05
  outer loop
    vertex 3.791945456968395 18.773265109258002 1.0445999883193575
    vertex 3.7919454591046273 18.713265109258003 1.044599986395227
    vertex 3.791945457629065 18.773265084471873 1.4445999883193568
  endloop
endfacet
facet normal -0.999999997320344 -3.208828473368744e-07 -7.320662186325179e-05
  outer loop
    vertex 3.7921124026730393 25.527417369627866 1.4099832412739487e-15
    vertex 3.791945456968395 18.773265109258002 1.0445999883193575
    vertex 3.791945453586026 18.868265109257997 1.0446000000000013
  endloop
endfacet
facet normal 1.0 -1.6435522604160823e-08 5.41503141522635e-09
  outer loop
    vertex 9.530616764444575 17.322165109258236 1.4099832412739487e-15
    vertex 9.530616778579247 17.66826510057799 0.5302550000000018
    vertex 9.530616778579247 17.322165100578225 0.5302550000000018
  endloop
endfacet
facet normal 1.0 -1.6435522604160823e-08 5.41503141522635e-09
  outer loop
    vertex 9.530616778579247 17.66826510057799 0.5302550000000018
    vertex 9.530616764444575 17.322165109258236 1.4099832412739487e-15
    vertex 9.530616764444575 19.41436510925781 1.4099832412739487e-15
  endloop
endfacet
facet normal 1.0 -1.6435522604160823e-08 5.41503141522635e-09
  outer loop
    vertex 9.530616778579247 17.66826510057799 0.5302550000000018
    vertex 9.530616764444575 19.41436510925781 1.4099832412739487e-15
    vertex 9.530616814183128 17.868265100577837 0.5302547540917136
  endloop
endfacet
facet normal 1.0 -1.6435522604160823e-08 5.41503141522635e-09
  outer loop
    vertex 9.530616814183128 17.868265100577837 0.5302547540917136
    vertex 9.530616764444575 19.41436510925781 1.4099832412739487e-15
    vertex 9.530616778579247 17.963265100577836 0.530254780317046
  endloop
endfacet
facet normal 1.0 -1.6435522604160823e-08 5.41503141522635e-09
  outer loop
    vertex 9.530616778579247 17.963265100577836 0.530254780317046
    vertex 9.530616764444575 19.41436510925781 1.4099832412739487e-15
    vertex 9.530616794473744 18.023265830288434 0.5302547901326349
  endloop
endfacet
facet normal 1.0 -1.6435522604160823e-08 5.41503141522635e-09
  outer loop
    vertex 9.530616794473744 18.023265830288434 0.5302547901326349
    vertex 9.530616764444575 19.41436510925781 1.4099832412739487e-15
    vertex 9.53061678620865 18.088265100577832 0.5302548063417586
  endloop
endfacet
facet normal 1.0 -1.6435522604160823e-08 5.41503141522635e-09
  outer loop
    vertex 9.53061678620865 18.088265100577832 0.5302548063417586
    vertex 9.530616764444575 19.41436510925781 1.4099832412739487e-15
    vertex 9.530616778579247 18.148265100577827 0.530254814632221
  endloop
endfacet
facet normal 1.0 -1.6435522604160823e-08 5.41503141522635e-09
  outer loop
    vertex 9.530616778579247 18.148265100577827 0.530254814632221
    vertex 9.530616764444575 19.41436510925781 1.4099832412739487e-15
    vertex 9.530616778579247 18.213265100577825 0.5302548426510749
  endloop
endfacet
facet normal 1.0 -1.6435522604160823e-08 5.41503141522635e-09
  outer loop
    vertex 9.530616778579247 18.213265100577825 0.5302548426510749
    vertex 9.530616764444575 19.41436510925781 1.4099832412739487e-15
    vertex 9.530616786905462 18.273265100577824 0.5302548526488128
  endloop
endfacet
facet normal 1.0 -1.6435522604160823e-08 5.41503141522635e-09
  outer loop
    vertex 9.530616786905462 18.273265100577824 0.5302548526488128
    vertex 9.530616764444575 19.41436510925781 1.4099832412739487e-15
    vertex 9.530616782527565 18.338265100578006 0.5302548790865128
  endloop
endfacet
facet normal 1.0 -1.6435522604160823e-08 5.41503141522635e-09
  outer loop
    vertex 9.530616782527565 18.338265100578006 0.5302548790865128
    vertex 9.530616764444575 19.41436510925781 1.4099832412739487e-15
    vertex 9.530616778579247 18.396886973725643 0.5302548954418481
  endloop
endfacet
facet normal 1.0 -1.6435522604160823e-08 5.41503141522635e-09
  outer loop
    vertex 9.530616778579247 18.396886973725643 0.5302548954418481
    vertex 9.530616764444575 19.41436510925781 1.4099832412739487e-15
    vertex 9.530616792998812 18.46326530489696 0.5302549190655164
  endloop
endfacet
facet normal 1.0 -1.6435522604160823e-08 5.41503141522635e-09
  outer loop
    vertex 9.530616792998812 18.46326530489696 0.5302549190655164
    vertex 9.530616764444575 19.41436510925781 1.4099832412739487e-15
    vertex 9.530616790862586 18.52326510057799 0.5302549423402172
  endloop
endfacet
facet normal 1.0 -1.6435522604160823e-08 5.41503141522635e-09
  outer loop
    vertex 9.530616790862586 18.52326510057799 0.5302549423402172
    vertex 9.530616764444575 19.41436510925781 1.4099832412739487e-15
    vertex 9.530616788548334 18.588265100578 0.5302549688852153
  endloop
endfacet
facet normal 1.0 -1.6435522604160823e-08 5.41503141522635e-09
  outer loop
    vertex 9.530616788548334 18.588265100578 0.5302549688852153
    vertex 9.530616764444575 19.41436510925781 1.4099832412739487e-15
    vertex 9.530616786412102 18.648265100577994 0.530254971191736
  endloop
endfacet
facet normal 1.0 -1.6435522604160823e-08 5.41503141522635e-09
  outer loop
    vertex 9.530616786412102 18.648265100577994 0.530254971191736
    vertex 9.530616764444575 19.41436510925781 1.4099832412739487e-15
    vertex 9.530616784097848 18.713265100578 0.5302549751230159
  endloop
endfacet
facet normal 1.0 -1.6435522604160823e-08 5.41503141522635e-09
  outer loop
    vertex 9.530616784097848 18.713265100578 0.5302549751230159
    vertex 9.530616764444575 19.41436510925781 1.4099832412739487e-15
    vertex 9.530616781961617 18.773265100577998 0.5302549806347241
  endloop
endfacet
facet normal 1.0 -1.6435522604160823e-08 5.41503141522635e-09
  outer loop
    vertex 9.530616781961617 18.773265100577998 0.5302549806347241
    vertex 9.530616764444575 19.41436510925781 1.4099832412739487e-15
    vertex 9.530616778579247 18.86826510057799 0.5302550000000018
  endloop
endfacet
facet normal 1.0 -1.6435522604160823e-08 5.41503141522635e-09
  outer loop
    vertex 9.530616778579247 18.86826510057799 0.5302550000000018
    vertex 9.530616764444575 19.41436510925781 1.4099832412739487e-15
    vertex 9.530616778579247 19.06826510057799 0.5302550000000018
  endloop
endfacet
facet normal 1.0 -1.6435522604160823e-08 5.41503141522635e-09
  outer loop
    vertex 9.530616778579247 19.06826510057799 0.5302550000000018
    vertex 9.530616764444575 19.41436510925781 1.4099832412739487e-15
    vertex 9.530616933999086 19.414365100577772 0.5302528530976924
  endloop
endfacet
facet normal 0.0 -1.0 0.0
  outer loop
    vertex 18.03061677857923 23.835365100578052 0.5302550000000018
    vertex 15.008931510417039 23.83536510925806 7.931155732165962e-16
    vertex 18.03061676444456 23.83536510925806 0.0
  endloop
endfacet
facet normal 0.0 -1.0 0.0
  outer loop
    vertex 15.008931510417039 23.83536510925806 7.931155732165962e-16
    vertex 18.03061677857923 23.835365100578052 0.5302550000000018
    vertex 15.008931524551707 23.835365100578052 0.5302550000000018
  endloop
endfacet
facet normal 0.6280110056495432 -0.7782044569282852 -4.6719027026611706e-08
  outer loop
    vertex 15.008931524551707 23.835365100578052 0.5302550000000018
    vertex 9.530616764444575 19.41436510925781 1.4099832412739487e-15
    vertex 15.008931510417039 23.83536510925806 7.931155732165962e-16
  endloop
endfacet
facet normal 0.6280110056495432 -0.7782044569282852 -4.6719027026611706e-08
  outer loop
    vertex 9.530616764444575 19.41436510925781 1.4099832412739487e-15
    vertex 15.008931524551707 23.835365100578052 0.5302550000000018
    vertex 9.530616933999086 19.414365100577772 0.5302528530976924
  endloop
endfacet
facet normal 0.9999999984139916 -3.444053428188189e-05 4.456306134684218e-05
  outer loop
    vertex 18.03061676444456 12.850365109258059 1.4099832412739487e-15
    vertex 18.03044981535755 10.421051318619147 1.86424497697949
    vertex 18.03061676444456 10.420810570332653 0.0
  endloop
endfacet
facet normal 0.9999999984139916 -3.444053428188189e-05 4.456306134684218e-05
  outer loop
    vertex 18.03044981535755 10.421051318619147 1.86424497697949
    vertex 18.03061676444456 12.850365109258059 1.4099832412739487e-15
    vertex 18.03061677857923 12.850365100578049 0.5302550000000018
  endloop
endfacet
facet normal 0.9999999984139916 -3.444053428188189e-05 4.456306134684218e-05
  outer loop
    vertex 18.03061676444456 12.850365109258059 1.8732490000000013
    vertex 18.03044981535755 10.421051318619147 1.86424497697949
    vertex 18.03061677857923 12.850365100578049 0.5302550000000018
  endloop
endfacet
facet normal 0.6358929914230047 0.7717772369402345 5.1634658168701236e-17
  outer loop
    vertex 9.530616764444575 17.322165109258236 1.8732490000000013
    vertex 12.006302513670894 15.28236510057823 0.5302550000000018
    vertex 9.530616778579247 17.322165100578225 0.5302550000000018
  endloop
endfacet
facet normal 0.6358929914230047 0.7717772369402345 5.1634658168701236e-17
  outer loop
    vertex 12.006302513670894 15.28236510057823 0.5302550000000018
    vertex 9.530616764444575 17.322165109258236 1.8732490000000013
    vertex 12.006302499536222 15.28236510925824 1.8714245000000014
  endloop
endfacet
facet normal -8.814740017800499e-06 -0.9999999990039721 4.375335980537582e-05
  outer loop
    vertex 18.03061676444456 12.850365109258059 1.8732490000000013
    vertex 14.957998675093801 12.850366363374693 0.5302550000000018
    vertex 18.03061677857923 12.850365100578049 0.5302550000000018
  endloop
endfacet
facet normal -8.814740017800499e-06 -0.9999999990039721 4.375335980537582e-05
  outer loop
    vertex 14.957998675093801 12.850366363374693 0.5302550000000018
    vertex 18.03061676444456 12.850365109258059 1.8732490000000013
    vertex 14.9579976205007 12.850365109258059 1.8732490000000013
  endloop
endfacet
facet normal -8.814740017800499e-06 -0.9999999990039721 4.375335980537582e-05
  outer loop
    vertex 14.9579976205007 12.850365109258059 1.8732490000000013
    vertex 18.03061676444456 12.850365109258059 1.8732490000000013
    vertex 15.392584301882213 12.8504854834013 1.8732490000000013
  endloop
endfacet
facet normal 0.0 -1.0 0.0
  outer loop
    vertex 9.530616764444575 18.868265109257997 1.8719130000000013
    vertex 3.791945453586026 18.868265109257997 1.0446000000000013
    vertex 9.530616764444575 18.868265109257997 1.0446000000000013
  endloop
endfacet
facet normal 0.0 -1.0 0.0
  outer loop
    vertex 3.791945453586026 18.868265109257997 1.0446000000000013
    vertex 9.530616764444575 18.868265109257997 1.8719130000000013
    vertex 3.791945453586026 18.868265109257997 1.8680789884897464
  endloop
endfacet
facet normal -0.00035294736501689886 0.0009823138544360775 0.9999994552436761
  outer loop
    vertex 9.530616764444575 18.868265109257997 1.8719130000000013
    vertex 3.791945453586026 25.527658117914374 1.8642449769794915
    vertex 3.791945453586026 18.868265109257997 1.8680789884897464
  endloop
endfacet
facet normal -0.00035294736501689886 0.0009823138544360775 0.9999994552436761
  outer loop
    vertex 3.791945453586026 25.527658117914374 1.8642449769794915
    vertex 9.530616764444575 18.868265109257997 1.8719130000000013
    vertex 9.530616764444575 19.41436510925781 1.8719130000000013
  endloop
endfacet
facet normal -0.00035294736501689886 0.0009823138544360775 0.9999994552436761
  outer loop
    vertex 3.791945453586026 25.527658117914374 1.8642449769794915
    vertex 9.530616764444575 19.41436510925781 1.8719130000000013
    vertex 15.008931510417039 23.83536510925806 1.8719130000000006
  endloop
endfacet
facet normal -0.00035294736501689886 0.0009823138544360775 0.9999994552436761
  outer loop
    vertex 3.791945453586026 25.527658117914374 1.8642449769794915
    vertex 15.008931510417039 23.83536510925806 1.8719130000000006
    vertex 18.03044981535755 25.527658117914374 1.8642449769794915
  endloop
endfacet
facet normal -0.00035294736501689886 0.0009823138544360775 0.9999994552436761
  outer loop
    vertex 9.530616764444575 19.41436510925781 1.8719130000000013
    vertex 9.530616764444575 18.868265109257997 1.8719130000000013
    vertex 9.530616764444575 19.068265109257997 1.8719130000000013
  endloop
endfacet
facet normal -0.00035294736501689886 0.0009823138544360775 0.9999994552436761
  outer loop
    vertex 18.03044981535755 25.527658117914374 1.8642449769794915
    vertex 15.008931510417039 23.83536510925806 1.8719130000000006
    vertex 18.03061676444456 23.83536510925806 1.8719129999999997
  endloop
endfacet
facet normal 1.7801939859340978e-07 0.9999999999992284 -1.2295414409223833e-06
  outer loop
    vertex 3.7919447543541787 17.868267147003788 1.8688213411204424
    vertex 9.530616800048456 17.868265109257845 1.0445997540917134
    vertex 3.7919454891899056 17.868265109257845 1.0445997540917134
  endloop
endfacet
facet normal 1.7801939859340978e-07 0.9999999999992284 -1.2295414409223833e-06
  outer loop
    vertex 9.530616800048456 17.868265109257845 1.0445997540917134
    vertex 3.7919447543541787 17.868267147003788 1.8688213411204424
    vertex 9.530616800048456 17.868265109257845 1.8732487540917129
  endloop
endfacet
facet normal 1.0 -0.0 -0.0
  outer loop
    vertex 9.530616778579247 19.06826510057799 0.5302550000000018
    vertex 9.530616764444575 18.868265109257997 1.0446000000000013
    vertex 9.530616778579247 18.86826510057799 0.5302550000000018
  endloop
endfacet
facet normal 1.0 -0.0 -0.0
  outer loop
    vertex 9.530616764444575 18.868265109257997 1.0446000000000013
    vertex 9.530616778579247 19.06826510057799 0.5302550000000018
    vertex 9.530616764444575 18.868265109257997 1.8719130000000013
  endloop
endfacet
facet normal 1.0 -0.0 -0.0
  outer loop
    vertex 9.530616764444575 18.868265109257997 1.8719130000000013
    vertex 9.530616778579247 19.06826510057799 0.5302550000000018
    vertex 9.530616764444575 19.068265109257997 1.8719130000000013
  endloop
endfacet
facet normal 0.9999999999999842 -1.7801940105379954e-07 -1.652994754100815e-24
  outer loop
    vertex 9.530616814183128 17.868265100577837 0.5302547540917136
    vertex 9.530616764444575 17.668265109258 1.8732490000000013
    vertex 9.530616778579247 17.66826510057799 0.5302550000000018
  endloop
endfacet
facet normal 0.9999999999999842 -1.7801940105379954e-07 -1.652994754100815e-24
  outer loop
    vertex 9.530616764444575 17.668265109258 1.8732490000000013
    vertex 9.530616814183128 17.868265100577837 0.5302547540917136
    vertex 9.530616800048456 17.868265109257845 1.8732487540917129
  endloop
endfacet
facet normal 0.9999999999999842 -1.7801940105379954e-07 -1.652994754100815e-24
  outer loop
    vertex 9.530616800048456 17.868265109257845 1.8732487540917129
    vertex 9.530616814183128 17.868265100577837 0.5302547540917136
    vertex 9.530616800048456 17.868265109257845 1.0445997540917134
  endloop
endfacet
facet normal 6.695481840217949e-10 -1.6339958683431372e-07 0.9999999999999867
  outer loop
    vertex 3.791945456968395 18.773265109258002 1.0445999883193575
    vertex 9.530616764444575 18.868265109257997 1.0446000000000013
    vertex 3.791945453586026 18.868265109257997 1.0446000000000013
  endloop
endfacet
facet normal 6.695481840217949e-10 -1.6339958683431372e-07 0.9999999999999867
  outer loop
    vertex 9.530616764444575 18.868265109257997 1.0446000000000013
    vertex 3.791945456968395 18.773265109258002 1.0445999883193575
    vertex 9.530616767826945 18.773265109258006 1.0445999806347237
  endloop
endfacet
facet normal 2.1209909374869233e-09 -4.66434101377524e-08 0.9999999999999989
  outer loop
    vertex 3.7919454614188792 18.648265109258002 1.0445999842628637
    vertex 9.530616769963178 18.713265109258007 1.0445999751230155
    vertex 3.7919454591046273 18.713265109258003 1.044599986395227
  endloop
endfacet
facet normal 2.1209909374869233e-09 -4.66434101377524e-08 0.9999999999999989
  outer loop
    vertex 9.530616769963178 18.713265109258007 1.0445999751230155
    vertex 3.7919454614188792 18.648265109258002 1.0445999842628637
    vertex 9.53061677227743 18.648265109258006 1.0445999711917355
  endloop
endfacet
facet normal -8.998166778028943e-16 0.9999999999999982 6.196532309488132e-08
  outer loop
    vertex 3.791945456968395 18.773265109258002 1.0445999883193575
    vertex 9.530616768487615 18.773265084471877 1.4445999806347234
    vertex 9.530616767826945 18.773265109258006 1.0445999806347237
  endloop
endfacet
facet normal -8.998166778028943e-16 0.9999999999999982 6.196532309488132e-08
  outer loop
    vertex 9.530616768487615 18.773265084471877 1.4445999806347234
    vertex 3.791945456968395 18.773265109258002 1.0445999883193575
    vertex 3.791945457629065 18.773265084471873 1.4445999883193568
  endloop
endfacet
facet normal 0.9999999999999996 3.560386297266589e-08 -1.6516733123720515e-09
  outer loop
    vertex 9.530616781961617 18.773265100577998 0.5302549806347241
    vertex 9.530616769963178 18.713265109258007 1.0445999751230155
    vertex 9.530616784097848 18.713265100578 0.5302549751230159
  endloop
endfacet
facet normal 0.9999999999999996 3.560386297266589e-08 -1.6516733123720515e-09
  outer loop
    vertex 9.530616769963178 18.713265109258007 1.0445999751230155
    vertex 9.530616781961617 18.773265100577998 0.5302549806347241
    vertex 9.530616768487615 18.773265084471877 1.4445999806347234
  endloop
endfacet
facet normal 0.9999999999999996 3.560386297266589e-08 -1.6516733123720515e-09
  outer loop
    vertex 9.530616768487615 18.773265084471877 1.4445999806347234
    vertex 9.530616781961617 18.773265100577998 0.5302549806347241
    vertex 9.530616767826945 18.773265109258006 1.0445999806347237
  endloop
endfacet
facet normal 0.9999999999999996 3.560386297266589e-08 -1.6516733123720515e-09
  outer loop
    vertex 9.530616768487615 18.773265084471877 1.4445999806347234
    vertex 9.530616770623848 18.713265084471878 1.444599975123015
    vertex 9.530616769963178 18.713265109258007 1.0445999751230155
  endloop
endfacet
facet normal 8.610785414887578e-16 -0.9999999999999982 -6.196532309488129e-08
  outer loop
    vertex 9.530616770623848 18.713265084471878 1.444599975123015
    vertex 3.7919454591046273 18.713265109258003 1.044599986395227
    vertex 9.530616769963178 18.713265109258007 1.0445999751230155
  endloop
endfacet
facet normal 8.610785414887578e-16 -0.9999999999999982 -6.196532309488129e-08
  outer loop
    vertex 3.7919454591046273 18.713265109258003 1.044599986395227
    vertex 9.530616770623848 18.713265084471878 1.444599975123015
    vertex 3.7919454597652975 18.713265084471875 1.4445999863952268
  endloop
endfacet
facet normal 1.6516754961915408e-09 -6.196532215483695e-08 0.9999999999999982
  outer loop
    vertex 3.7919454597652975 18.713265084471875 1.4445999863952268
    vertex 9.530616768487615 18.773265084471877 1.4445999806347234
    vertex 3.791945457629065 18.773265084471873 1.4445999883193568
  endloop
endfacet
facet normal 1.6516754961915408e-09 -6.196532215483695e-08 0.9999999999999982
  outer loop
    vertex 9.530616768487615 18.773265084471877 1.4445999806347234
    vertex 3.7919454597652975 18.713265084471875 1.4445999863952268
    vertex 9.530616770623848 18.713265084471878 1.444599975123015
  endloop
endfacet
facet normal 4.8391286425660417e-26 -2.76056129125536e-07 0.999999999999962
  outer loop
    vertex 3.7919454891899056 17.868265109257845 1.0445997540917134
    vertex 9.530616764444575 17.963265109257847 1.0445997803170455
    vertex 3.791945485807537 17.963265109257847 1.0445997803170455
  endloop
endfacet
facet normal 4.8391286425660417e-26 -2.76056129125536e-07 0.999999999999962
  outer loop
    vertex 9.530616764444575 17.963265109257847 1.0445997803170455
    vertex 3.7919454891899056 17.868265109257845 1.0445997540917134
    vertex 9.530616800048456 17.868265109257845 1.0445997540917134
  endloop
endfacet
facet normal 3.543369066672073e-10 -2.901297039962607e-07 0.999999999999958
  outer loop
    vertex 3.791945483671304 18.02326510925784 1.0445997895167654
    vertex 9.530616772073978 18.08826510925784 1.044599806341758
    vertex 3.791945481357052 18.08826510925784 1.0445998110242618
  endloop
endfacet
facet normal 3.543369066672073e-10 -2.901297039962607e-07 0.999999999999958
  outer loop
    vertex 9.530616772073978 18.08826510925784 1.044599806341758
    vertex 3.791945483671304 18.02326510925784 1.0445997895167654
    vertex 9.530616780339072 18.02326583896844 1.0445997901326345
  endloop
endfacet
facet normal 5.345453996694717e-10 -3.838657465302533e-07 0.9999999999999265
  outer loop
    vertex 3.7919454792208196 18.14826510925783 1.0445998207673812
    vertex 9.530616764444575 18.213265109257833 1.0445998426510745
    vertex 3.7919454769065672 18.213265109257833 1.0445998426510745
  endloop
endfacet
facet normal 5.345453996694717e-10 -3.838657465302533e-07 0.9999999999999265
  outer loop
    vertex 9.530616764444575 18.213265109257833 1.0445998426510745
    vertex 3.7919454792208196 18.14826510925783 1.0445998207673812
    vertex 9.530616764444575 18.148265109257835 1.0445998146322206
  endloop
endfacet
facet normal 3.7600677915602e-11 -3.929492883507578e-07 0.999999999999923
  outer loop
    vertex 3.7919454747703347 18.27326510925783 1.0445998537605867
    vertex 9.530616768392893 18.338265109258014 1.0445998790865125
    vertex 3.791945472456083 18.338265109258014 1.044599878406294
  endloop
endfacet
facet normal 3.7600677915602e-11 -3.929492883507578e-07 0.999999999999923
  outer loop
    vertex 9.530616768392893 18.338265109258014 1.0445998790865125
    vertex 3.7919454747703347 18.27326510925783 1.0445998537605867
    vertex 9.53061677277079 18.27326510925783 1.0445998526488123
  endloop
endfacet
facet normal -5.118357845021977e-10 -3.1164410178520627e-07 0.9999999999999516
  outer loop
    vertex 3.7919454703689164 18.39688698240565 1.0445998954418478
    vertex 9.53061677886414 18.463265313576972 1.044599919065516
    vertex 3.7919454680055975 18.463265109258007 1.0445999131909376
  endloop
endfacet
facet normal -5.118357845021977e-10 -3.1164410178520627e-07 0.9999999999999516
  outer loop
    vertex 9.53061677886414 18.463265313576972 1.044599919065516
    vertex 3.7919454703689164 18.39688698240565 1.0445998954418478
    vertex 9.530616764444575 18.39688698240565 1.0445998954418478
  endloop
endfacet
facet normal 6.307699805504407e-10 -5.741338091900126e-07 0.9999999999998352
  outer loop
    vertex 3.7919454658693645 18.523265109258002 1.044599935186299
    vertex 9.530616774413662 18.588265109258007 1.044599968885215
    vertex 3.7919454635551126 18.588265109258003 1.044599983278696
  endloop
endfacet
facet normal 6.307699805504407e-10 -5.741338091900126e-07 0.9999999999998352
  outer loop
    vertex 9.530616774413662 18.588265109258007 1.044599968885215
    vertex 3.7919454658693645 18.523265109258002 1.044599935186299
    vertex 9.530616776727914 18.523265109258 1.0445999423402168
  endloop
endfacet
facet normal 2.3929414756433445e-09 -2.742240266613439e-08 0.9999999999999998
  outer loop
    vertex 3.7919454645122896 18.588265098289042 1.444599983278696
    vertex 9.530616773234605 18.648265098289045 1.4445999711917357
    vertex 3.7919454623760562 18.64826509828904 1.4445999842628636
  endloop
endfacet
facet normal 2.3929414756433445e-09 -2.742240266613439e-08 0.9999999999999998
  outer loop
    vertex 9.530616773234605 18.648265098289045 1.4445999711917357
    vertex 3.7919454645122896 18.588265098289042 1.444599983278696
    vertex 9.530616775370838 18.58826509828905 1.444599968885215
  endloop
endfacet
facet normal 9.140145722983482e-16 -0.9999999999999998 -2.74223974638943e-08
  outer loop
    vertex 9.530616775370838 18.58826509828905 1.444599968885215
    vertex 3.7919454635551126 18.588265109258003 1.044599983278696
    vertex 9.530616774413662 18.588265109258007 1.044599968885215
  endloop
endfacet
facet normal 9.140145722983482e-16 -0.9999999999999998 -2.74223974638943e-08
  outer loop
    vertex 3.7919454635551126 18.588265109258003 1.044599983278696
    vertex 9.530616775370838 18.58826509828905 1.444599968885215
    vertex 3.7919454645122896 18.588265098289042 1.444599983278696
  endloop
endfacet
facet normal 0.9999999999999996 3.5603886412651915e-08 -2.3929379817517443e-09
  outer loop
    vertex 9.530616786412102 18.648265100577994 0.530254971191736
    vertex 9.530616774413662 18.588265109258007 1.044599968885215
    vertex 9.530616788548334 18.588265100578 0.5302549688852153
  endloop
endfacet
facet normal 0.9999999999999996 3.5603886412651915e-08 -2.3929379817517443e-09
  outer loop
    vertex 9.530616774413662 18.588265109258007 1.044599968885215
    vertex 9.530616786412102 18.648265100577994 0.530254971191736
    vertex 9.530616773234605 18.648265098289045 1.4445999711917357
  endloop
endfacet
facet normal 0.9999999999999996 3.5603886412651915e-08 -2.3929379817517443e-09
  outer loop
    vertex 9.530616773234605 18.648265098289045 1.4445999711917357
    vertex 9.530616786412102 18.648265100577994 0.530254971191736
    vertex 9.53061677227743 18.648265109258006 1.0445999711917355
  endloop
endfacet
facet normal 0.9999999999999996 3.5603886412651915e-08 -2.3929379817517443e-09
  outer loop
    vertex 9.530616773234605 18.648265098289045 1.4445999711917357
    vertex 9.530616775370838 18.58826509828905 1.444599968885215
    vertex 9.530616774413662 18.588265109258007 1.044599968885215
  endloop
endfacet
facet normal -4.2893636547529125e-16 0.9999999999999998 2.7422397463894292e-08
  outer loop
    vertex 3.7919454614188792 18.648265109258002 1.0445999842628637
    vertex 9.530616773234605 18.648265098289045 1.4445999711917357
    vertex 9.53061677227743 18.648265109258006 1.0445999711917355
  endloop
endfacet
facet normal -4.2893636547529125e-16 0.9999999999999998 2.7422397463894292e-08
  outer loop
    vertex 9.530616773234605 18.648265098289045 1.4445999711917357
    vertex 3.7919454614188792 18.648265109258002 1.0445999842628637
    vertex 3.7919454623760562 18.64826509828904 1.4445999842628636
  endloop
endfacet
facet normal -1.135142484848573e-09 -3.7725114165034774e-07 0.999999999999929
  outer loop
    vertex 3.7919454675515407 18.46326495835755 1.444599913190909
    vertex 9.530616776273858 18.52326495835754 1.4445999423401885
    vertex 3.7919454654153077 18.523264958357544 1.4445999351862704
  endloop
endfacet
facet normal -1.135142484848573e-09 -3.7725114165034774e-07 0.999999999999929
  outer loop
    vertex 9.530616776273858 18.52326495835754 1.4445999423401885
    vertex 3.7919454675515407 18.46326495835755 1.444599913190909
    vertex 9.530616778410081 18.463265162676514 1.4445999190654877
  endloop
endfacet
facet normal 2.1109890134585686e-17 0.999999999999929 3.772511469324335e-07
  outer loop
    vertex 3.7919454654153077 18.523264958357544 1.4445999351862704
    vertex 9.530616776727914 18.523265109258 1.0445999423402168
    vertex 3.7919454658693645 18.523265109258002 1.044599935186299
  endloop
endfacet
facet normal 2.1109890134585686e-17 0.999999999999929 3.772511469324335e-07
  outer loop
    vertex 9.530616776727914 18.523265109258 1.0445999423402168
    vertex 3.7919454654153077 18.523264958357544 1.4445999351862704
    vertex 9.530616776273858 18.52326495835754 1.4445999423401885
  endloop
endfacet
facet normal 0.9999999999999996 3.5603866124418144e-08 1.1351556895680348e-09
  outer loop
    vertex 9.530616790862586 18.52326510057799 0.5302549423402172
    vertex 9.53061677886414 18.463265313576972 1.044599919065516
    vertex 9.530616792998812 18.46326530489696 0.5302549190655164
  endloop
endfacet
facet normal 0.9999999999999996 3.5603866124418144e-08 1.1351556895680348e-09
  outer loop
    vertex 9.53061677886414 18.463265313576972 1.044599919065516
    vertex 9.530616790862586 18.52326510057799 0.5302549423402172
    vertex 9.530616776273858 18.52326495835754 1.4445999423401885
  endloop
endfacet
facet normal 0.9999999999999996 3.5603866124418144e-08 1.1351556895680348e-09
  outer loop
    vertex 9.530616776273858 18.52326495835754 1.4445999423401885
    vertex 9.530616790862586 18.52326510057799 0.5302549423402172
    vertex 9.530616776727914 18.523265109258 1.0445999423402168
  endloop
endfacet
facet normal 0.9999999999999996 3.5603866124418144e-08 1.1351556895680348e-09
  outer loop
    vertex 9.530616776273858 18.52326495835754 1.4445999423401885
    vertex 9.530616778410081 18.463265162676514 1.4445999190654877
    vertex 9.53061677886414 18.463265313576972 1.044599919065516
  endloop
endfacet
facet normal 3.560388001712e-08 -0.9999999999999283 -3.772511468920179e-07
  outer loop
    vertex 9.53061677886414 18.463265313576972 1.044599919065516
    vertex 3.7919454675515407 18.46326495835755 1.444599913190909
    vertex 3.7919454680055975 18.463265109258007 1.0445999131909376
  endloop
endfacet
facet normal 3.560388001712e-08 -0.9999999999999283 -3.772511468920179e-07
  outer loop
    vertex 3.7919454675515407 18.46326495835755 1.444599913190909
    vertex 9.53061677886414 18.463265313576972 1.044599919065516
    vertex 9.530616778410081 18.463265162676514 1.4445999190654877
  endloop
endfacet
facet normal -5.926619216175506e-11 -2.847988927813065e-07 0.9999999999999596
  outer loop
    vertex 3.791945472432377 18.33826499533846 1.4445998784062781
    vertex 9.530616764420868 18.396886868486092 1.4445998954418318
    vertex 3.7919454703452105 18.396886868486092 1.4445998954418318
  endloop
endfacet
facet normal -5.926619216175506e-11 -2.847988927813065e-07 0.9999999999999596
  outer loop
    vertex 9.530616764420868 18.396886868486092 1.4445998954418318
    vertex 3.791945472432377 18.33826499533846 1.4445998784062781
    vertex 9.530616768369185 18.33826499533846 1.4445998790864965
  endloop
endfacet
facet normal 3.375788732557265e-17 -0.9999999999999596 -2.8479889124799474e-07
  outer loop
    vertex 9.530616768392893 18.338265109258014 1.0445998790865125
    vertex 3.791945472432377 18.33826499533846 1.4445998784062781
    vertex 3.791945472456083 18.338265109258014 1.044599878406294
  endloop
endfacet
facet normal 3.375788732557265e-17 -0.9999999999999596 -2.8479889124799474e-07
  outer loop
    vertex 3.791945472432377 18.33826499533846 1.4445998784062781
    vertex 9.530616768392893 18.338265109258014 1.0445998790865125
    vertex 9.530616768369185 18.33826499533846 1.4445998790864965
  endloop
endfacet
facet normal 0.9999999999999978 6.735228061256282e-08 5.928782740179361e-11
  outer loop
    vertex 9.530616778579247 18.396886973725643 0.5302548954418481
    vertex 9.530616768392893 18.338265109258014 1.0445998790865125
    vertex 9.530616782527565 18.338265100578006 0.5302548790865128
  endloop
endfacet
facet normal 0.9999999999999978 6.735228061256282e-08 5.928782740179361e-11
  outer loop
    vertex 9.530616768392893 18.338265109258014 1.0445998790865125
    vertex 9.530616778579247 18.396886973725643 0.5302548954418481
    vertex 9.530616764420868 18.396886868486092 1.4445998954418318
  endloop
endfacet
facet normal 0.9999999999999978 6.735228061256282e-08 5.928782740179361e-11
  outer loop
    vertex 9.530616764420868 18.396886868486092 1.4445998954418318
    vertex 9.530616778579247 18.396886973725643 0.5302548954418481
    vertex 9.530616764444575 18.39688698240565 1.0445998954418478
  endloop
endfacet
facet normal 0.9999999999999978 6.735228061256282e-08 5.928782740179361e-11
  outer loop
    vertex 9.530616764420868 18.396886868486092 1.4445998954418318
    vertex 9.530616768369185 18.33826499533846 1.4445998790864965
    vertex 9.530616768392893 18.338265109258014 1.0445998790865125
  endloop
endfacet
facet normal 9.686687017859618e-11 -1.7589374968614914e-07 0.9999999999999847
  outer loop
    vertex 3.7919454769453136 18.213265038900335 1.4445998426510684
    vertex 9.530616772809537 18.273265038900334 1.4445998526488064
    vertex 3.791945474809081 18.273265038900334 1.4445998537605802
  endloop
endfacet
facet normal 9.686687017859618e-11 -1.7589374968614914e-07 0.9999999999999847
  outer loop
    vertex 9.530616772809537 18.273265038900334 1.4445998526488064
    vertex 3.7919454769453136 18.213265038900335 1.4445998426510684
    vertex 9.530616764483325 18.213265038900335 1.4445998426510684
  endloop
endfacet
facet normal 3.9566720789004197e-26 0.9999999999999596 2.8479889124799474e-07
  outer loop
    vertex 3.7919454703452105 18.396886868486092 1.4445998954418318
    vertex 9.530616764444575 18.39688698240565 1.0445998954418478
    vertex 3.7919454703689164 18.39688698240565 1.0445998954418478
  endloop
endfacet
facet normal 3.9566720789004197e-26 0.9999999999999596 2.8479889124799474e-07
  outer loop
    vertex 9.530616764444575 18.39688698240565 1.0445998954418478
    vertex 3.7919454703452105 18.396886868486092 1.4445998954418318
    vertex 9.530616764420868 18.396886868486092 1.4445998954418318
  endloop
endfacet
facet normal -3.220289049185782e-25 -0.9999999999999847 -1.7589374556870038e-07
  outer loop
    vertex 9.530616764483325 18.213265038900335 1.4445998426510684
    vertex 3.7919454769065672 18.213265109257833 1.0445998426510745
    vertex 9.530616764444575 18.213265109257833 1.0445998426510745
  endloop
endfacet
facet normal -3.220289049185782e-25 -0.9999999999999847 -1.7589374556870038e-07
  outer loop
    vertex 3.7919454769065672 18.213265109257833 1.0445998426510745
    vertex 9.530616764483325 18.213265038900335 1.4445998426510684
    vertex 3.7919454769453136 18.213265038900335 1.4445998426510684
  endloop
endfacet
facet normal 0.9999999999999905 -1.3877022159394866e-07 -9.689378244767483e-11
  outer loop
    vertex 9.530616786905462 18.273265100577824 0.5302548526488128
    vertex 9.530616764444575 18.213265109257833 1.0445998426510745
    vertex 9.530616778579247 18.213265100577825 0.5302548426510749
  endloop
endfacet
facet normal 0.9999999999999905 -1.3877022159394866e-07 -9.689378244767483e-11
  outer loop
    vertex 9.530616764444575 18.213265109257833 1.0445998426510745
    vertex 9.530616786905462 18.273265100577824 0.5302548526488128
    vertex 9.530616772809537 18.273265038900334 1.4445998526488064
  endloop
endfacet
facet normal 0.9999999999999905 -1.3877022159394866e-07 -9.689378244767483e-11
  outer loop
    vertex 9.530616772809537 18.273265038900334 1.4445998526488064
    vertex 9.530616786905462 18.273265100577824 0.5302548526488128
    vertex 9.53061677277079 18.27326510925783 1.0445998526488123
  endloop
endfacet
facet normal 0.9999999999999905 -1.3877022159394866e-07 -9.689378244767483e-11
  outer loop
    vertex 9.530616772809537 18.273265038900334 1.4445998526488064
    vertex 9.530616764483325 18.213265038900335 1.4445998426510684
    vertex 9.530616764444575 18.213265109257833 1.0445998426510745
  endloop
endfacet
facet normal 3.407654770304227e-17 0.9999999999999847 1.758937455687004e-07
  outer loop
    vertex 3.7919454747703347 18.27326510925783 1.0445998537605867
    vertex 9.530616772809537 18.273265038900334 1.4445998526488064
    vertex 9.53061677277079 18.27326510925783 1.0445998526488123
  endloop
endfacet
facet normal 3.407654770304227e-17 0.9999999999999847 1.758937455687004e-07
  outer loop
    vertex 9.530616772809537 18.273265038900334 1.4445998526488064
    vertex 3.7919454747703347 18.27326510925783 1.0445998537605867
    vertex 3.791945474809081 18.273265038900334 1.4445998537605802
  endloop
endfacet
facet normal 9.425234270511745e-10 -1.5027985010768865e-07 0.9999999999999887
  outer loop
    vertex 3.7919454817340617 18.0882650491459 1.4445998110242573
    vertex 9.530616764821584 18.148265049145895 1.4445998146322163
    vertex 3.791945479597829 18.148265049145895 1.444599820767377
  endloop
endfacet
facet normal 9.425234270511745e-10 -1.5027985010768865e-07 0.9999999999999887
  outer loop
    vertex 9.530616764821584 18.148265049145895 1.4445998146322163
    vertex 3.7919454817340617 18.0882650491459 1.4445998110242573
    vertex 9.530616772450987 18.0882650491459 1.4445998063417538
  endloop
endfacet
facet normal -1.2262175187323055e-16 -0.9999999999999889 -1.5027984900939373e-07
  outer loop
    vertex 9.530616772450987 18.0882650491459 1.4445998063417538
    vertex 3.791945481357052 18.08826510925784 1.0445998110242618
    vertex 9.530616772073978 18.08826510925784 1.044599806341758
  endloop
endfacet
facet normal -1.2262175187323055e-16 -0.9999999999999889 -1.5027984900939373e-07
  outer loop
    vertex 3.791945481357052 18.08826510925784 1.0445998110242618
    vertex 9.530616772450987 18.0882650491459 1.4445998063417538
    vertex 3.7919454817340617 18.0882650491459 1.4445998110242573
  endloop
endfacet
facet normal 0.999999999999992 1.271567067758112e-07 -9.42501813329395e-10
  outer loop
    vertex 9.530616778579247 18.148265100577827 0.530254814632221
    vertex 9.530616772073978 18.08826510925784 1.044599806341758
    vertex 9.53061678620865 18.088265100577832 0.5302548063417586
  endloop
endfacet
facet normal 0.999999999999992 1.271567067758112e-07 -9.42501813329395e-10
  outer loop
    vertex 9.530616772073978 18.08826510925784 1.044599806341758
    vertex 9.530616778579247 18.148265100577827 0.530254814632221
    vertex 9.530616764821584 18.148265049145895 1.4445998146322163
  endloop
endfacet
facet normal 0.999999999999992 1.271567067758112e-07 -9.42501813329395e-10
  outer loop
    vertex 9.530616764821584 18.148265049145895 1.4445998146322163
    vertex 9.530616778579247 18.148265100577827 0.530254814632221
    vertex 9.530616764444575 18.148265109257835 1.0445998146322206
  endloop
endfacet
facet normal 0.999999999999992 1.271567067758112e-07 -9.42501813329395e-10
  outer loop
    vertex 9.530616764821584 18.148265049145895 1.4445998146322163
    vertex 9.530616772450987 18.0882650491459 1.4445998063417538
    vertex 9.530616772073978 18.08826510925784 1.044599806341758
  endloop
endfacet
facet normal -3.307343056269538e-16 0.9999999999999889 1.502798490093938e-07
  outer loop
    vertex 3.7919454792208196 18.14826510925783 1.0445998207673812
    vertex 9.530616764821584 18.148265049145895 1.4445998146322163
    vertex 9.530616764444575 18.148265109257835 1.0445998146322206
  endloop
endfacet
facet normal -3.307343056269538e-16 0.9999999999999889 1.502798490093938e-07
  outer loop
    vertex 9.530616764821584 18.148265049145895 1.4445998146322163
    vertex 3.7919454792208196 18.14826510925783 1.0445998207673812
    vertex 3.791945479597829 18.148265049145895 1.444599820767377
  endloop
endfacet
facet normal 2.7200385986129632e-11 -2.460068739225817e-07 0.9999999999999698
  outer loop
    vertex 3.791945485818417 17.963265010855096 1.4445997803170336
    vertex 9.530616780349952 18.02326574056569 1.4445997901326226
    vertex 3.791945483682184 18.023265010855088 1.4445997895167535
  endloop
endfacet
facet normal 2.7200385986129632e-11 -2.460068739225817e-07 0.9999999999999698
  outer loop
    vertex 9.530616780349952 18.02326574056569 1.4445997901326226
    vertex 3.791945485818417 17.963265010855096 1.4445997803170336
    vertex 9.530616764455456 17.963265010855096 1.4445997803170336
  endloop
endfacet
facet normal 9.484530002725851e-26 -0.9999999999999698 -2.4600687537068556e-07
  outer loop
    vertex 9.530616764455456 17.963265010855096 1.4445997803170336
    vertex 3.791945485807537 17.963265109257847 1.0445997803170455
    vertex 9.530616764444575 17.963265109257847 1.0445997803170455
  endloop
endfacet
facet normal 9.484530002725851e-26 -0.9999999999999698 -2.4600687537068556e-07
  outer loop
    vertex 3.791945485807537 17.963265109257847 1.0445997803170455
    vertex 9.530616764455456 17.963265010855096 1.4445997803170336
    vertex 3.791945485818417 17.963265010855096 1.4445997803170336
  endloop
endfacet
facet normal 0.9999999999999649 -2.6490504062522987e-07 -2.7263745185487977e-11
  outer loop
    vertex 9.530616794473744 18.023265830288434 0.5302547901326349
    vertex 9.530616764444575 17.963265109257847 1.0445997803170455
    vertex 9.530616778579247 17.963265100577836 0.530254780317046
  endloop
endfacet
facet normal 0.9999999999999649 -2.6490504062522987e-07 -2.7263745185487977e-11
  outer loop
    vertex 9.530616764444575 17.963265109257847 1.0445997803170455
    vertex 9.530616794473744 18.023265830288434 0.5302547901326349
    vertex 9.530616780349952 18.02326574056569 1.4445997901326226
  endloop
endfacet
facet normal 0.9999999999999649 -2.6490504062522987e-07 -2.7263745185487977e-11
  outer loop
    vertex 9.530616780349952 18.02326574056569 1.4445997901326226
    vertex 9.530616794473744 18.023265830288434 0.5302547901326349
    vertex 9.530616780339072 18.02326583896844 1.0445997901326345
  endloop
endfacet
facet normal 0.9999999999999649 -2.6490504062522987e-07 -2.7263745185487977e-11
  outer loop
    vertex 9.530616780349952 18.02326574056569 1.4445997901326226
    vertex 9.530616764455456 17.963265010855096 1.4445997803170336
    vertex 9.530616764444575 17.963265109257847 1.0445997803170455
  endloop
endfacet
facet normal -1.2715671730984257e-07 0.9999999999999618 2.4600687537414214e-07
  outer loop
    vertex 3.791945483682184 18.023265010855088 1.4445997895167535
    vertex 9.530616780339072 18.02326583896844 1.0445997901326345
    vertex 3.791945483671304 18.02326510925784 1.0445997895167654
  endloop
endfacet
facet normal -1.2715671730984257e-07 0.9999999999999618 2.4600687537414214e-07
  outer loop
    vertex 9.530616780339072 18.02326583896844 1.0445997901326345
    vertex 3.791945483682184 18.023265010855088 1.4445997895167535
    vertex 9.530616780349952 18.02326574056569 1.4445997901326226
  endloop
endfacet
facet normal 0.6358928994443852 0.7717773127242916 -5.331277676860868e-07
  outer loop
    vertex 9.530616778579247 17.322165100578225 0.5302550000000018
    vertex 14.9579976205007 12.850365109258059 0.010488000000001474
    vertex 9.530616764444575 17.322165109258236 1.4099832412739487e-15
  endloop
endfacet
facet normal 0.6358928994443852 0.7717773127242916 -5.331277676860868e-07
  outer loop
    vertex 14.9579976205007 12.850365109258059 0.010488000000001474
    vertex 9.530616778579247 17.322165100578225 0.5302550000000018
    vertex 14.957998675093801 12.850366363374693 0.5302550000000018
  endloop
endfacet
facet normal 0.6358928994443852 0.7717773127242916 -5.331277676860868e-07
  outer loop
    vertex 14.957998675093801 12.850366363374693 0.5302550000000018
    vertex 9.530616778579247 17.322165100578225 0.5302550000000018
    vertex 12.006302513670894 15.28236510057823 0.5302550000000018
  endloop
endfacet
facet normal 1.0 -0.0 -0.0
  outer loop
    vertex 9.530616778579247 17.66826510057799 0.5302550000000018
    vertex 9.530616764444575 17.322165109258236 1.8732490000000013
    vertex 9.530616778579247 17.322165100578225 0.5302550000000018
  endloop
endfacet
facet normal 1.0 -0.0 -0.0
  outer loop
    vertex 9.530616764444575 17.322165109258236 1.8732490000000013
    vertex 9.530616778579247 17.66826510057799 0.5302550000000018
    vertex 9.530616764444575 17.668265109258 1.8732490000000013
  endloop
endfacet
facet normal 0.9999999999999705 -2.2452995798495055e-07 9.393049461097341e-08
  outer loop
    vertex 9.530616933999086 19.414365100577772 0.5302528530976924
    vertex 9.530616764444575 19.068265109257997 1.8719130000000013
    vertex 9.530616778579247 19.06826510057799 0.5302550000000018
  endloop
endfacet
facet normal 0.9999999999999705 -2.2452995798495055e-07 9.393049461097341e-08
  outer loop
    vertex 9.530616764444575 19.068265109257997 1.8719130000000013
    vertex 9.530616933999086 19.414365100577772 0.5302528530976924
    vertex 9.530616764444575 19.41436510925781 1.8719130000000013
  endloop
endfacet
facet normal 0.63589220746824 0.7717778827228653 -1.486540024117876e-05
  outer loop
    vertex 12.006302499536222 15.28236510925824 1.8714245000000014
    vertex 14.957998675093801 12.850366363374693 0.5302550000000018
    vertex 12.006302513670894 15.28236510057823 0.5302550000000018
  endloop
endfacet
facet normal 0.63589220746824 0.7717778827228653 -1.486540024117876e-05
  outer loop
    vertex 14.957998675093801 12.850366363374693 0.5302550000000018
    vertex 12.006302499536222 15.28236510925824 1.8714245000000014
    vertex 13.828606163528168 13.780959973724059 1.8725508855848036
  endloop
endfacet
facet normal 0.63589220746824 0.7717778827228653 -1.486540024117876e-05
  outer loop
    vertex 14.957998675093801 12.850366363374693 0.5302550000000018
    vertex 13.828606163528168 13.780959973724059 1.8725508855848036
    vertex 14.9579976205007 12.850365109258059 1.8732490000000013
  endloop
endfacet
facet normal 0.0 -1.0 0.0
  outer loop
    vertex 18.03061676444456 23.83536510925806 1.8719129999999997
    vertex 15.008931524551707 23.835365100578052 0.5302550000000018
    vertex 18.03061677857923 23.835365100578052 0.5302550000000018
  endloop
endfacet
facet normal 0.0 -1.0 0.0
  outer loop
    vertex 15.008931524551707 23.835365100578052 0.5302550000000018
    vertex 18.03061676444456 23.83536510925806 1.8719129999999997
    vertex 15.008931510417039 23.83536510925806 1.8719130000000006
  endloop
endfacet
facet normal 0.6280110056495304 -0.778204456928295 5.898939778447737e-08
  outer loop
    vertex 15.008931524551707 23.835365100578052 0.5302550000000018
    vertex 9.530616764444575 19.41436510925781 1.8719130000000013
    vertex 9.530616933999086 19.414365100577772 0.5302528530976924
  endloop
endfacet
facet normal 0.6280110056495304 -0.778204456928295 5.898939778447737e-08
  outer loop
    vertex 9.530616764444575 19.41436510925781 1.8719130000000013
    vertex 15.008931524551707 23.835365100578052 0.5302550000000018
    vertex 15.008931510417039 23.83536510925806 1.8719130000000006
  endloop
endfacet
facet normal -2.044603535916606e-07 -0.9999999999997964 6.044096149242715e-07
  outer loop
    vertex 18.03061677857923 12.850365100578049 0.5302550000000018
    vertex 14.9579976205007 12.850365109258059 0.010488000000001474
    vertex 18.03061676444456 12.850365109258059 1.4099832412739487e-15
  endloop
endfacet
facet normal -2.044603535916606e-07 -0.9999999999997964 6.044096149242715e-07
  outer loop
    vertex 14.9579976205007 12.850365109258059 0.010488000000001474
    vertex 18.03061677857923 12.850365100578049 0.5302550000000018
    vertex 14.957998675093801 12.850366363374693 0.5302550000000018
  endloop
endfacet
facet normal 0.00011005108859988975 -0.00046963243971617427 -0.999999883667058
  outer loop
    vertex 15.008931510417039 23.83536510925806 7.931155732165962e-16
    vertex 9.530616764444575 17.322165109258236 1.4099832412739487e-15
    vertex 9.530616764444575 19.41436510925781 1.4099832412739487e-15
  endloop
endfacet
facet normal 0.00011005108859988975 -0.00046963243971617427 -0.999999883667058
  outer loop
    vertex 9.530616764444575 17.322165109258236 1.4099832412739487e-15
    vertex 15.008931510417039 23.83536510925806 7.931155732165962e-16
    vertex 14.9579976205007 12.850365109258059 0.010488000000001474
  endloop
endfacet
facet normal 0.00011005108859988975 -0.00046963243971617427 -0.999999883667058
  outer loop
    vertex 14.9579976205007 12.850365109258059 0.010488000000001474
    vertex 15.008931510417039 23.83536510925806 7.931155732165962e-16
    vertex 18.03061676444456 12.850365109258059 1.4099832412739487e-15
  endloop
endfacet
facet normal 0.00011005108859988975 -0.00046963243971617427 -0.999999883667058
  outer loop
    vertex 18.03061676444456 12.850365109258059 1.4099832412739487e-15
    vertex 15.008931510417039 23.83536510925806 7.931155732165962e-16
    vertex 18.03061676444456 23.83536510925806 0.0
  endloop
endfacet
facet normal 1.0 -0.0 -0.0
  outer loop
    vertex 18.03061676444456 12.850365109258059 1.4099832412739487e-15
    vertex 18.03061677857923 23.835365100578052 0.5302550000000018
    vertex 18.03061677857923 12.850365100578049 0.5302550000000018
  endloop
endfacet
facet normal 1.0 -0.0 -0.0
  outer loop
    vertex 18.03061677857923 23.835365100578052 0.5302550000000018
    vertex 18.03061676444456 12.850365109258059 1.4099832412739487e-15
    vertex 18.03061676444456 23.83536510925806 0.0
  endloop
endfacet
facet normal -2.7480913943537646e-08 1.68758392572571e-08 0.9999999999999996
  outer loop
    vertex 9.53061678620865 18.088265100577832 0.5302548063417586
    vertex 9.530616778579247 18.213265100577825 0.5302548426510749
    vertex 9.530616778579247 18.148265100577827 0.530254814632221
  endloop
endfacet
facet normal -2.7480913943537646e-08 1.68758392572571e-08 0.9999999999999996
  outer loop
    vertex 9.530616778579247 18.213265100577825 0.5302548426510749
    vertex 9.53061678620865 18.088265100577832 0.5302548063417586
    vertex 9.530616786905462 18.273265100577824 0.5302548526488128
  endloop
endfacet
facet normal -2.7480913943537646e-08 1.68758392572571e-08 0.9999999999999996
  outer loop
    vertex 9.530616786905462 18.273265100577824 0.5302548526488128
    vertex 9.53061678620865 18.088265100577832 0.5302548063417586
    vertex 9.530616794473744 18.023265830288434 0.5302547901326349
  endloop
endfacet
facet normal -2.7480913943537646e-08 1.68758392572571e-08 0.9999999999999996
  outer loop
    vertex 9.530616786905462 18.273265100577824 0.5302548526488128
    vertex 9.530616794473744 18.023265830288434 0.5302547901326349
    vertex 9.530616792998812 18.46326530489696 0.5302549190655164
  endloop
endfacet
facet normal -2.7480913943537646e-08 1.68758392572571e-08 0.9999999999999996
  outer loop
    vertex 9.530616814183128 17.868265100577837 0.5302547540917136
    vertex 9.530616794473744 18.023265830288434 0.5302547901326349
    vertex 9.530616778579247 17.963265100577836 0.530254780317046
  endloop
endfacet
facet normal -2.7480913943537646e-08 1.68758392572571e-08 0.9999999999999996
  outer loop
    vertex 12.006302513670894 15.28236510057823 0.5302550000000018
    vertex 9.530616778579247 17.66826510057799 0.5302550000000018
    vertex 9.530616778579247 17.322165100578225 0.5302550000000018
  endloop
endfacet
facet normal -2.7480913943537646e-08 1.68758392572571e-08 0.9999999999999996
  outer loop
    vertex 9.530616778579247 17.66826510057799 0.5302550000000018
    vertex 12.006302513670894 15.28236510057823 0.5302550000000018
    vertex 9.530616814183128 17.868265100577837 0.5302547540917136
  endloop
endfacet
facet normal -2.7480913943537646e-08 1.68758392572571e-08 0.9999999999999996
  outer loop
    vertex 9.530616814183128 17.868265100577837 0.5302547540917136
    vertex 12.006302513670894 15.28236510057823 0.5302550000000018
    vertex 9.530616933999086 19.414365100577772 0.5302528530976924
  endloop
endfacet
facet normal -2.7480913943537646e-08 1.68758392572571e-08 0.9999999999999996
  outer loop
    vertex 9.530616933999086 19.414365100577772 0.5302528530976924
    vertex 12.006302513670894 15.28236510057823 0.5302550000000018
    vertex 15.008931524551707 23.835365100578052 0.5302550000000018
  endloop
endfacet
facet normal -2.7480913943537646e-08 1.68758392572571e-08 0.9999999999999996
  outer loop
    vertex 15.008931524551707 23.835365100578052 0.5302550000000018
    vertex 12.006302513670894 15.28236510057823 0.5302550000000018
    vertex 14.957998675093801 12.850366363374693 0.5302550000000018
  endloop
endfacet
facet normal -2.7480913943537646e-08 1.68758392572571e-08 0.9999999999999996
  outer loop
    vertex 15.008931524551707 23.835365100578052 0.5302550000000018
    vertex 14.957998675093801 12.850366363374693 0.5302550000000018
    vertex 18.03061677857923 12.850365100578049 0.5302550000000018
  endloop
endfacet
facet normal -2.7480913943537646e-08 1.68758392572571e-08 0.9999999999999996
  outer loop
    vertex 15.008931524551707 23.835365100578052 0.5302550000000018
    vertex 18.03061677857923 12.850365100578049 0.5302550000000018
    vertex 18.03061677857923 23.835365100578052 0.5302550000000018
  endloop
endfacet
facet normal -2.7480913943537646e-08 1.68758392572571e-08 0.9999999999999996
  outer loop
    vertex 9.530616781961617 18.773265100577998 0.5302549806347241
    vertex 9.530616778579247 19.06826510057799 0.5302550000000018
    vertex 9.530616778579247 18.86826510057799 0.5302550000000018
  endloop
endfacet
facet normal -2.7480913943537646e-08 1.68758392572571e-08 0.9999999999999996
  outer loop
    vertex 9.530616778579247 19.06826510057799 0.5302550000000018
    vertex 9.530616781961617 18.773265100577998 0.5302549806347241
    vertex 9.530616933999086 19.414365100577772 0.5302528530976924
  endloop
endfacet
facet normal -2.7480913943537646e-08 1.68758392572571e-08 0.9999999999999996
  outer loop
    vertex 9.530616933999086 19.414365100577772 0.5302528530976924
    vertex 9.530616781961617 18.773265100577998 0.5302549806347241
    vertex 9.530616784097848 18.713265100578 0.5302549751230159
  endloop
endfacet
facet normal -2.7480913943537646e-08 1.68758392572571e-08 0.9999999999999996
  outer loop
    vertex 9.530616933999086 19.414365100577772 0.5302528530976924
    vertex 9.530616784097848 18.713265100578 0.5302549751230159
    vertex 9.530616786412102 18.648265100577994 0.530254971191736
  endloop
endfacet
facet normal -2.7480913943537646e-08 1.68758392572571e-08 0.9999999999999996
  outer loop
    vertex 9.530616933999086 19.414365100577772 0.5302528530976924
    vertex 9.530616786412102 18.648265100577994 0.530254971191736
    vertex 9.530616788548334 18.588265100578 0.5302549688852153
  endloop
endfacet
facet normal -2.7480913943537646e-08 1.68758392572571e-08 0.9999999999999996
  outer loop
    vertex 9.530616933999086 19.414365100577772 0.5302528530976924
    vertex 9.530616788548334 18.588265100578 0.5302549688852153
    vertex 9.530616790862586 18.52326510057799 0.5302549423402172
  endloop
endfacet
facet normal -2.7480913943537646e-08 1.68758392572571e-08 0.9999999999999996
  outer loop
    vertex 9.530616933999086 19.414365100577772 0.5302528530976924
    vertex 9.530616790862586 18.52326510057799 0.5302549423402172
    vertex 9.530616792998812 18.46326530489696 0.5302549190655164
  endloop
endfacet
facet normal -2.7480913943537646e-08 1.68758392572571e-08 0.9999999999999996
  outer loop
    vertex 9.530616933999086 19.414365100577772 0.5302528530976924
    vertex 9.530616792998812 18.46326530489696 0.5302549190655164
    vertex 9.530616794473744 18.023265830288434 0.5302547901326349
  endloop
endfacet
facet normal -2.7480913943537646e-08 1.68758392572571e-08 0.9999999999999996
  outer loop
    vertex 9.530616933999086 19.414365100577772 0.5302528530976924
    vertex 9.530616794473744 18.023265830288434 0.5302547901326349
    vertex 9.530616814183128 17.868265100577837 0.5302547540917136
  endloop
endfacet
facet normal -2.7480913943537646e-08 1.68758392572571e-08 0.9999999999999996
  outer loop
    vertex 9.530616782527565 18.338265100578006 0.5302548790865128
    vertex 9.530616792998812 18.46326530489696 0.5302549190655164
    vertex 9.530616778579247 18.396886973725643 0.5302548954418481
  endloop
endfacet
facet normal -2.7480913943537646e-08 1.68758392572571e-08 0.9999999999999996
  outer loop
    vertex 9.530616792998812 18.46326530489696 0.5302549190655164
    vertex 9.530616782527565 18.338265100578006 0.5302548790865128
    vertex 9.530616786905462 18.273265100577824 0.5302548526488128
  endloop
endfacet
facet normal 0.9999999999999991 3.5603881955643017e-08 2.7480913342692247e-08
  outer loop
    vertex 9.530616778579247 18.86826510057799 0.5302550000000018
    vertex 9.530616767826945 18.773265109258006 1.0445999806347237
    vertex 9.530616781961617 18.773265100577998 0.5302549806347241
  endloop
endfacet
facet normal 0.9999999999999991 3.5603881955643017e-08 2.7480913342692247e-08
  outer loop
    vertex 9.530616767826945 18.773265109258006 1.0445999806347237
    vertex 9.530616778579247 18.86826510057799 0.5302550000000018
    vertex 9.530616764444575 18.868265109257997 1.0446000000000013
  endloop
endfacet
facet normal 0.999999999999999 3.560387562022453e-08 2.7480913342692347e-08
  outer loop
    vertex 9.530616784097848 18.713265100578 0.5302549751230159
    vertex 9.53061677227743 18.648265109258006 1.0445999711917355
    vertex 9.530616786412102 18.648265100577994 0.530254971191736
  endloop
endfacet
facet normal 0.999999999999999 3.560387562022453e-08 2.7480913342692347e-08
  outer loop
    vertex 9.53061677227743 18.648265109258006 1.0445999711917355
    vertex 9.530616784097848 18.713265100578 0.5302549751230159
    vertex 9.530616769963178 18.713265109258007 1.0445999751230155
  endloop
endfacet
facet normal 0.9999999999999991 3.560386605951946e-08 2.7480913342692515e-08
  outer loop
    vertex 9.530616788548334 18.588265100578 0.5302549688852153
    vertex 9.530616776727914 18.523265109258 1.0445999423402168
    vertex 9.530616790862586 18.52326510057799 0.5302549423402172
  endloop
endfacet
facet normal 0.9999999999999991 3.560386605951946e-08 2.7480913342692515e-08
  outer loop
    vertex 9.530616776727914 18.523265109258 1.0445999423402168
    vertex 9.530616788548334 18.588265100578 0.5302549688852153
    vertex 9.530616774413662 18.588265109258007 1.044599968885215
  endloop
endfacet
facet normal 0.9999999999999761 -2.1723299497362205e-07 2.7480917609526106e-08
  outer loop
    vertex 9.530616792998812 18.46326530489696 0.5302549190655164
    vertex 9.530616764444575 18.39688698240565 1.0445998954418478
    vertex 9.530616778579247 18.396886973725643 0.5302548954418481
  endloop
endfacet
facet normal 0.9999999999999761 -2.1723299497362205e-07 2.7480917609526106e-08
  outer loop
    vertex 9.530616764444575 18.39688698240565 1.0445998954418478
    vertex 9.530616792998812 18.46326530489696 0.5302549190655164
    vertex 9.53061677886414 18.463265313576972 1.044599919065516
  endloop
endfacet
facet normal 0.9999999999999973 6.735224182796729e-08 2.7480912806911982e-08
  outer loop
    vertex 9.530616782527565 18.338265100578006 0.5302548790865128
    vertex 9.53061677277079 18.27326510925783 1.0445998526488123
    vertex 9.530616786905462 18.273265100577824 0.5302548526488128
  endloop
endfacet
facet normal 0.9999999999999973 6.735224182796729e-08 2.7480912806911982e-08
  outer loop
    vertex 9.53061677277079 18.27326510925783 1.0445998526488123
    vertex 9.530616782527565 18.338265100578006 0.5302548790865128
    vertex 9.530616768392893 18.338265109258014 1.0445998790865125
  endloop
endfacet
facet normal 0.9999999999999997 -1.1845903258149574e-14 2.7480913943537848e-08
  outer loop
    vertex 9.530616778579247 18.213265100577825 0.5302548426510749
    vertex 9.530616764444575 18.148265109257835 1.0445998146322206
    vertex 9.530616778579247 18.148265100577827 0.530254814632221
  endloop
endfacet
facet normal 0.9999999999999997 -1.1845903258149574e-14 2.7480913943537848e-08
  outer loop
    vertex 9.530616764444575 18.148265109257835 1.0445998146322206
    vertex 9.530616778579247 18.213265100577825 0.5302548426510749
    vertex 9.530616764444575 18.213265109257833 1.0445998426510745
  endloop
endfacet
facet normal 0.9999999999999916 1.2715670284946926e-07 2.748091179766135e-08
  outer loop
    vertex 9.53061678620865 18.088265100577832 0.5302548063417586
    vertex 9.530616780339072 18.02326583896844 1.0445997901326345
    vertex 9.530616794473744 18.023265830288434 0.5302547901326349
  endloop
endfacet
facet normal 0.9999999999999916 1.2715670284946926e-07 2.748091179766135e-08
  outer loop
    vertex 9.530616780339072 18.02326583896844 1.0445997901326345
    vertex 9.53061678620865 18.088265100577832 0.5302548063417586
    vertex 9.530616772073978 18.08826510925784 1.044599806341758
  endloop
endfacet
facet normal 0.9999999999999295 3.7477767884246534e-07 2.7480907618847856e-08
  outer loop
    vertex 9.530616778579247 17.963265100577836 0.530254780317046
    vertex 9.530616800048456 17.868265109257845 1.0445997540917134
    vertex 9.530616814183128 17.868265100577837 0.5302547540917136
  endloop
endfacet
facet normal 0.9999999999999295 3.7477767884246534e-07 2.7480907618847856e-08
  outer loop
    vertex 9.530616800048456 17.868265109257845 1.0445997540917134
    vertex 9.530616778579247 17.963265100577836 0.530254780317046
    vertex 9.530616764444575 17.963265109257847 1.0445997803170455
  endloop
endfacet
facet normal 7.231998277327225e-05 -0.0001628920024802429 -0.9999999841180078
  outer loop
    vertex 3.7921124026730393 25.527417369627866 1.4099832412739487e-15
    vertex 9.530616764444575 19.41436510925781 1.4099832412739487e-15
    vertex 3.7921124026730393 10.737863109258235 1.4099832412739487e-15
  endloop
endfacet
facet normal 7.231998277327225e-05 -0.0001628920024802429 -0.9999999841180078
  outer loop
    vertex 9.530616764444575 19.41436510925781 1.4099832412739487e-15
    vertex 3.7921124026730393 25.527417369627866 1.4099832412739487e-15
    vertex 15.008931510417039 23.83536510925806 7.931155732165962e-16
  endloop
endfacet
facet normal 7.231998277327225e-05 -0.0001628920024802429 -0.9999999841180078
  outer loop
    vertex 15.008931510417039 23.83536510925806 7.931155732165962e-16
    vertex 3.7921124026730393 25.527417369627866 1.4099832412739487e-15
    vertex 18.03061676444456 25.527417369627866 1.4099832412739487e-15
  endloop
endfacet
facet normal 7.231998277327225e-05 -0.0001628920024802429 -0.9999999841180078
  outer loop
    vertex 15.008931510417039 23.83536510925806 7.931155732165962e-16
    vertex 18.03061676444456 25.527417369627866 1.4099832412739487e-15
    vertex 18.03061676444456 23.83536510925806 0.0
  endloop
endfacet
facet normal 7.231998277327225e-05 -0.0001628920024802429 -0.9999999841180078
  outer loop
    vertex 3.7921124026730393 10.737863109258235 1.4099832412739487e-15
    vertex 14.9579976205007 12.850365109258059 0.010488000000001474
    vertex 18.03061676444456 10.420810570332653 0.0
  endloop
endfacet
facet normal 7.231998277327225e-05 -0.0001628920024802429 -0.9999999841180078
  outer loop
    vertex 14.9579976205007 12.850365109258059 0.010488000000001474
    vertex 3.7921124026730393 10.737863109258235 1.4099832412739487e-15
    vertex 9.530616764444575 17.322165109258236 1.4099832412739487e-15
  endloop
endfacet
facet normal 7.231998277327225e-05 -0.0001628920024802429 -0.9999999841180078
  outer loop
    vertex 9.530616764444575 17.322165109258236 1.4099832412739487e-15
    vertex 3.7921124026730393 10.737863109258235 1.4099832412739487e-15
    vertex 9.530616764444575 19.41436510925781 1.4099832412739487e-15
  endloop
endfacet
facet normal 7.231998277327225e-05 -0.0001628920024802429 -0.9999999841180078
  outer loop
    vertex 18.03061676444456 10.420810570332653 0.0
    vertex 14.9579976205007 12.850365109258059 0.010488000000001474
    vertex 18.03061676444456 12.850365109258059 1.4099832412739487e-15
  endloop
endfacet
facet normal -0.02226174570596861 -0.9997521685498353 0.00012711421851877068
  outer loop
    vertex 18.03044981535755 10.421051318619147 1.86424497697949
    vertex 3.7921124026730393 10.737863109258235 1.4099832412739487e-15
    vertex 18.03061676444456 10.420810570332653 0.0
  endloop
endfacet
facet normal -0.02226174570596861 -0.9997521685498353 0.00012711421851877068
  outer loop
    vertex 3.7921124026730393 10.737863109258235 1.4099832412739487e-15
    vertex 18.03044981535755 10.421051318619147 1.86424497697949
    vertex 3.791945453586026 10.738103857544731 1.8642449769794915
  endloop
endfacet
facet normal -0.0005968749431358892 -0.0007844876355530446 0.9999995141596081
  outer loop
    vertex 12.006302499536222 15.28236510925824 1.8714245000000014
    vertex 9.530616764444575 17.322165109258236 1.8732490000000013
    vertex 3.791945453586026 10.738103857544731 1.8642449769794915
  endloop
endfacet
facet normal -0.0005968749431358892 -0.0007844876355530446 0.9999995141596081
  outer loop
    vertex 3.791945453586026 10.738103857544731 1.8642449769794915
    vertex 9.530616800048456 17.868265109257845 1.8732487540917129
    vertex 3.7919447543541787 17.868267147003788 1.8688213411204424
  endloop
endfacet
facet normal -0.0005968749431358892 -0.0007844876355530446 0.9999995141596081
  outer loop
    vertex 9.530616800048456 17.868265109257845 1.8732487540917129
    vertex 3.791945453586026 10.738103857544731 1.8642449769794915
    vertex 9.530616764444575 17.668265109258 1.8732490000000013
  endloop
endfacet
facet normal -0.0005968749431358892 -0.0007844876355530446 0.9999995141596081
  outer loop
    vertex 9.530616764444575 17.668265109258 1.8732490000000013
    vertex 3.791945453586026 10.738103857544731 1.8642449769794915
    vertex 9.530616764444575 17.322165109258236 1.8732490000000013
  endloop
endfacet
facet normal -0.0002941561664833225 -0.0017973018749707804 0.9999983415876849
  outer loop
    vertex 3.791945453586026 10.738103857544731 1.8642449769794915
    vertex 14.9579976205007 12.850365109258059 1.8732490000000013
    vertex 12.006302499536222 15.28236510925824 1.8714245000000014
  endloop
endfacet
facet normal -0.0002941561664833225 -0.0017973018749707804 0.9999983415876849
  outer loop
    vertex 14.9579976205007 12.850365109258059 1.8732490000000013
    vertex 3.791945453586026 10.738103857544731 1.8642449769794915
    vertex 18.03044981535755 10.421051318619147 1.86424497697949
  endloop
endfacet
facet normal -0.0002941561664833225 -0.0017973018749707804 0.9999983415876849
  outer loop
    vertex 12.006302499536222 15.28236510925824 1.8714245000000014
    vertex 14.9579976205007 12.850365109258059 1.8732490000000013
    vertex 13.828606163528168 13.780959973724059 1.8725508855848036
  endloop
endfacet
facet normal -0.0002941561664833225 -0.0017973018749707804 0.9999983415876849
  outer loop
    vertex 14.9579976205007 12.850365109258059 1.8732490000000013
    vertex 18.03044981535755 10.421051318619147 1.86424497697949
    vertex 15.392584301882213 12.8504854834013 1.8732490000000013
  endloop
endfacet
facet normal -0.0002941561664833225 -0.0017973018749707804 0.9999983415876849
  outer loop
    vertex 15.392584301882213 12.8504854834013 1.8732490000000013
    vertex 18.03044981535755 10.421051318619147 1.86424497697949
    vertex 18.03061676444456 12.850365109258059 1.8732490000000013
  endloop
endfacet
endsolid mark9_mountidea
